%TF.GenerationSoftware,KiCad,Pcbnew,(5.1.7)-1*%
%TF.CreationDate,2020-11-01T17:05:04-05:00*%
%TF.ProjectId,low_current_data_logger,6c6f775f-6375-4727-9265-6e745f646174,rev?*%
%TF.SameCoordinates,Original*%
%TF.FileFunction,Soldermask,Top*%
%TF.FilePolarity,Negative*%
%FSLAX46Y46*%
G04 Gerber Fmt 4.6, Leading zero omitted, Abs format (unit mm)*
G04 Created by KiCad (PCBNEW (5.1.7)-1) date 2020-11-01 17:05:04*
%MOMM*%
%LPD*%
G01*
G04 APERTURE LIST*
%ADD10C,1.524000*%
%ADD11C,6.350000*%
%ADD12C,7.112000*%
%ADD13C,2.641600*%
%ADD14C,4.775200*%
%ADD15C,6.400000*%
%ADD16C,2.600000*%
%ADD17R,2.600000X2.600000*%
%ADD18C,1.600000*%
%ADD19R,1.600000X1.600000*%
G04 APERTURE END LIST*
D10*
%TO.C,U6*%
X112250000Y-120650000D03*
X112250000Y-123190000D03*
X112250000Y-125730000D03*
X112250000Y-128270000D03*
X112250000Y-130810000D03*
X112250000Y-133350000D03*
%TD*%
D11*
%TO.C,U1*%
X74230000Y-71560000D03*
X91756000Y-71560000D03*
D12*
X74230000Y-126805000D03*
X56754800Y-126805000D03*
D13*
X83805800Y-63051000D03*
X64679600Y-63051000D03*
X64679600Y-135314000D03*
X83805800Y-135314000D03*
D14*
X91756000Y-135314000D03*
%TD*%
D10*
%TO.C,U3*%
X103500000Y-78150000D03*
X99050000Y-78150000D03*
X115950000Y-84130000D03*
X115950000Y-86670000D03*
X115950000Y-89210000D03*
X115950000Y-91750000D03*
X115950000Y-94290000D03*
X115950000Y-96830000D03*
X115950000Y-99370000D03*
X103450000Y-105350000D03*
X99050000Y-105350000D03*
%TD*%
D15*
%TO.C,REF\u002A\u002A*%
X54500000Y-145500000D03*
%TD*%
%TO.C,REF\u002A\u002A*%
X145500000Y-145500000D03*
%TD*%
%TO.C,REF\u002A\u002A*%
X145500000Y-54500000D03*
%TD*%
%TO.C,REF\u002A\u002A*%
X54500000Y-54500000D03*
%TD*%
D10*
%TO.C,U5*%
X122500000Y-72000000D03*
X125000000Y-72000000D03*
X127500000Y-72000000D03*
X130000000Y-72000000D03*
X132500000Y-72000000D03*
X135000000Y-72000000D03*
X137500000Y-72000000D03*
%TD*%
%TO.C,U4*%
X135500000Y-93500000D03*
X135500000Y-96040000D03*
X135500000Y-104210000D03*
X135500000Y-106750000D03*
X132000000Y-87560000D03*
X132000000Y-112960000D03*
X132000000Y-105340000D03*
X132000000Y-110420000D03*
X132000000Y-100260000D03*
X132000000Y-107880000D03*
X132000000Y-97720000D03*
X132000000Y-95180000D03*
X132000000Y-92640000D03*
X132000000Y-102800000D03*
X132000000Y-90100000D03*
X132000000Y-115500000D03*
X148000000Y-87560000D03*
X148000000Y-90100000D03*
X148000000Y-92640000D03*
X148000000Y-95180000D03*
X148000000Y-97720000D03*
X148000000Y-100260000D03*
X148000000Y-102800000D03*
X148000000Y-105340000D03*
X148000000Y-107880000D03*
X148000000Y-110420000D03*
X148000000Y-112960000D03*
X148000000Y-115500000D03*
%TD*%
%TO.C,U2*%
X129000000Y-123000000D03*
X131500000Y-123000000D03*
X134000000Y-123000000D03*
X136500000Y-123000000D03*
X139000000Y-123000000D03*
X141500000Y-123000000D03*
X144000000Y-123000000D03*
X146500000Y-123000000D03*
%TD*%
%TO.C,R3*%
X124750000Y-130825000D03*
X124750000Y-137175000D03*
%TD*%
%TO.C,R2*%
X125500000Y-140325000D03*
X125500000Y-146675000D03*
%TD*%
%TO.C,R1*%
X122925000Y-148250000D03*
X116575000Y-148250000D03*
%TD*%
D16*
%TO.C,J1*%
X135000000Y-146250000D03*
D17*
X135000000Y-142750000D03*
%TD*%
D18*
%TO.C,C8*%
X85500000Y-144500000D03*
X90500000Y-144500000D03*
%TD*%
%TO.C,C7*%
X144000000Y-76000000D03*
X144000000Y-71000000D03*
%TD*%
%TO.C,C6*%
X119250000Y-110750000D03*
X119250000Y-115750000D03*
%TD*%
%TO.C,C5*%
X121250000Y-97000000D03*
D19*
X123750000Y-97000000D03*
%TD*%
D18*
%TO.C,C4*%
X103500000Y-53750000D03*
X103500000Y-58750000D03*
%TD*%
%TO.C,C3*%
X97250000Y-54000000D03*
D19*
X97250000Y-56500000D03*
%TD*%
D18*
%TO.C,C2*%
X120000000Y-137750000D03*
D19*
X120000000Y-140250000D03*
%TD*%
D18*
%TO.C,C1*%
X126500000Y-115500000D03*
X126500000Y-110500000D03*
%TD*%
M02*
