%TF.GenerationSoftware,KiCad,Pcbnew,(5.1.7)-1*%
%TF.CreationDate,2020-11-01T17:05:04-05:00*%
%TF.ProjectId,low_current_data_logger,6c6f775f-6375-4727-9265-6e745f646174,rev?*%
%TF.SameCoordinates,Original*%
%TF.FileFunction,Copper,L2,Inr*%
%TF.FilePolarity,Positive*%
%FSLAX46Y46*%
G04 Gerber Fmt 4.6, Leading zero omitted, Abs format (unit mm)*
G04 Created by KiCad (PCBNEW (5.1.7)-1) date 2020-11-01 17:05:04*
%MOMM*%
%LPD*%
G01*
G04 APERTURE LIST*
%TA.AperFunction,ComponentPad*%
%ADD10C,1.524000*%
%TD*%
%TA.AperFunction,ComponentPad*%
%ADD11C,6.350000*%
%TD*%
%TA.AperFunction,ComponentPad*%
%ADD12C,7.112000*%
%TD*%
%TA.AperFunction,ComponentPad*%
%ADD13C,2.641600*%
%TD*%
%TA.AperFunction,ComponentPad*%
%ADD14C,4.775200*%
%TD*%
%TA.AperFunction,ComponentPad*%
%ADD15C,6.400000*%
%TD*%
%TA.AperFunction,ComponentPad*%
%ADD16C,2.600000*%
%TD*%
%TA.AperFunction,ComponentPad*%
%ADD17R,2.600000X2.600000*%
%TD*%
%TA.AperFunction,ComponentPad*%
%ADD18C,1.600000*%
%TD*%
%TA.AperFunction,ComponentPad*%
%ADD19R,1.600000X1.600000*%
%TD*%
%TA.AperFunction,Conductor*%
%ADD20C,0.254000*%
%TD*%
%TA.AperFunction,Conductor*%
%ADD21C,0.100000*%
%TD*%
G04 APERTURE END LIST*
D10*
%TO.N,+3V3*%
%TO.C,U6*%
X112250000Y-120650000D03*
%TO.N,Net-(U6-Pad5)*%
X112250000Y-123190000D03*
%TO.N,GND*%
X112250000Y-125730000D03*
%TO.N,Net-(U6-Pad3)*%
X112250000Y-128270000D03*
%TO.N,SCL_I2C*%
X112250000Y-130810000D03*
%TO.N,SDA_I2C*%
X112250000Y-133350000D03*
%TD*%
D11*
%TO.N,N/C*%
%TO.C,U1*%
X74230000Y-71560000D03*
X91756000Y-71560000D03*
D12*
X74230000Y-126805000D03*
X56754800Y-126805000D03*
D13*
%TO.N,RAW_Battery*%
X83805800Y-63051000D03*
X64679600Y-63051000D03*
%TO.N,GND*%
X64679600Y-135314000D03*
X83805800Y-135314000D03*
D14*
%TO.N,N/C*%
X91756000Y-135314000D03*
%TD*%
D10*
%TO.N,RAW_Battery*%
%TO.C,U3*%
X103500000Y-78150000D03*
%TO.N,GND*%
X99050000Y-78150000D03*
%TO.N,Net-(U3-Pad3)*%
X115950000Y-84130000D03*
%TO.N,Net-(U3-Pad4)*%
X115950000Y-86670000D03*
%TO.N,GND*%
X115950000Y-89210000D03*
%TO.N,Net-(U3-Pad6)*%
X115950000Y-91750000D03*
%TO.N,Net-(U3-Pad7)*%
X115950000Y-94290000D03*
%TO.N,Net-(U3-Pad8)*%
X115950000Y-96830000D03*
%TO.N,Net-(U3-Pad9)*%
X115950000Y-99370000D03*
%TO.N,+3V3*%
X103450000Y-105350000D03*
%TO.N,GND*%
X99050000Y-105350000D03*
%TD*%
D15*
%TO.N,N/C*%
%TO.C,REF\u002A\u002A*%
X54500000Y-145500000D03*
%TD*%
%TO.N,N/C*%
%TO.C,REF\u002A\u002A*%
X145500000Y-145500000D03*
%TD*%
%TO.N,N/C*%
%TO.C,REF\u002A\u002A*%
X145500000Y-54500000D03*
%TD*%
%TO.N,N/C*%
%TO.C,REF\u002A\u002A*%
X54500000Y-54500000D03*
%TD*%
D10*
%TO.N,CS_SD_SPI*%
%TO.C,U5*%
X122500000Y-72000000D03*
%TO.N,MOSI_SPI*%
X125000000Y-72000000D03*
%TO.N,+3V3*%
X127500000Y-72000000D03*
%TO.N,SCLK_SPI*%
X130000000Y-72000000D03*
%TO.N,GND*%
X132500000Y-72000000D03*
%TO.N,MISO_SPI*%
X135000000Y-72000000D03*
%TO.N,Net-(U5-Pad1)*%
X137500000Y-72000000D03*
%TD*%
%TO.N,Net-(U4-Pad28)*%
%TO.C,U4*%
X135500000Y-93500000D03*
%TO.N,Net-(U4-Pad27)*%
X135500000Y-96040000D03*
%TO.N,SDA_I2C*%
X135500000Y-104210000D03*
%TO.N,SCL_I2C*%
X135500000Y-106750000D03*
%TO.N,Net-(U4-Pad24)*%
X132000000Y-87560000D03*
%TO.N,GND*%
X132000000Y-112960000D03*
%TO.N,Net-(U4-Pad17)*%
X132000000Y-105340000D03*
%TO.N,Net-(U4-Pad15)*%
X132000000Y-110420000D03*
%TO.N,SENSOR_SIG*%
X132000000Y-100260000D03*
%TO.N,+3V3*%
X132000000Y-107880000D03*
%TO.N,RAW_Battery*%
X132000000Y-97720000D03*
%TO.N,SCLK_SPI*%
X132000000Y-95180000D03*
%TO.N,MISO_SPI*%
X132000000Y-92640000D03*
%TO.N,Net-(U4-Pad18)*%
X132000000Y-102800000D03*
%TO.N,MOSI_SPI*%
X132000000Y-90100000D03*
%TO.N,Net-(U4-Pad13)*%
X132000000Y-115500000D03*
%TO.N,Net-(U4-Pad12)*%
X148000000Y-87560000D03*
%TO.N,Net-(U4-Pad11)*%
X148000000Y-90100000D03*
%TO.N,Net-(U4-Pad10)*%
X148000000Y-92640000D03*
%TO.N,Net-(U4-Pad9)*%
X148000000Y-95180000D03*
%TO.N,Net-(U4-Pad8)*%
X148000000Y-97720000D03*
%TO.N,Net-(U4-Pad7)*%
X148000000Y-100260000D03*
%TO.N,Net-(U4-Pad6)*%
X148000000Y-102800000D03*
%TO.N,CS_SD_SPI*%
X148000000Y-105340000D03*
%TO.N,Net-(U4-Pad4)*%
X148000000Y-107880000D03*
%TO.N,Net-(U4-Pad3)*%
X148000000Y-110420000D03*
%TO.N,Net-(U4-Pad2)*%
X148000000Y-112960000D03*
%TO.N,Net-(U4-Pad1)*%
X148000000Y-115500000D03*
%TD*%
%TO.N,Net-(U2-Pad8)*%
%TO.C,U2*%
X129000000Y-123000000D03*
%TO.N,Net-(U2-Pad7)*%
X131500000Y-123000000D03*
%TO.N,Net-(U2-Pad6)*%
X134000000Y-123000000D03*
%TO.N,Net-(U2-Pad5)*%
X136500000Y-123000000D03*
%TO.N,SDA_I2C*%
X139000000Y-123000000D03*
%TO.N,SCL_I2C*%
X141500000Y-123000000D03*
%TO.N,GND*%
X144000000Y-123000000D03*
%TO.N,+3V3*%
X146500000Y-123000000D03*
%TD*%
%TO.N,GND*%
%TO.C,R3*%
X124750000Y-130825000D03*
%TO.N,Net-(C2-Pad1)*%
X124750000Y-137175000D03*
%TD*%
%TO.N,Net-(C2-Pad1)*%
%TO.C,R2*%
X125500000Y-140325000D03*
%TO.N,+3V3*%
X125500000Y-146675000D03*
%TD*%
%TO.N,SENSOR_SIG*%
%TO.C,R1*%
X122925000Y-148250000D03*
%TO.N,Net-(C2-Pad1)*%
X116575000Y-148250000D03*
%TD*%
D16*
%TO.N,SENSOR_SIG*%
%TO.C,J1*%
X135000000Y-146250000D03*
D17*
%TO.N,Net-(C2-Pad1)*%
X135000000Y-142750000D03*
%TD*%
D18*
%TO.N,GND*%
%TO.C,C8*%
X85500000Y-144500000D03*
%TO.N,+3V3*%
X90500000Y-144500000D03*
%TD*%
%TO.N,GND*%
%TO.C,C7*%
X144000000Y-76000000D03*
%TO.N,+3V3*%
X144000000Y-71000000D03*
%TD*%
%TO.N,GND*%
%TO.C,C6*%
X119250000Y-110750000D03*
%TO.N,+3V3*%
X119250000Y-115750000D03*
%TD*%
%TO.N,GND*%
%TO.C,C5*%
X121250000Y-97000000D03*
D19*
%TO.N,+3V3*%
X123750000Y-97000000D03*
%TD*%
D18*
%TO.N,GND*%
%TO.C,C4*%
X103500000Y-53750000D03*
%TO.N,RAW_Battery*%
X103500000Y-58750000D03*
%TD*%
%TO.N,GND*%
%TO.C,C3*%
X97250000Y-54000000D03*
D19*
%TO.N,RAW_Battery*%
X97250000Y-56500000D03*
%TD*%
D18*
%TO.N,GND*%
%TO.C,C2*%
X120000000Y-137750000D03*
D19*
%TO.N,Net-(C2-Pad1)*%
X120000000Y-140250000D03*
%TD*%
D18*
%TO.N,GND*%
%TO.C,C1*%
X126500000Y-115500000D03*
%TO.N,+3V3*%
X126500000Y-110500000D03*
%TD*%
D20*
%TO.N,+3V3*%
X149373634Y-149873000D02*
X50127000Y-149873000D01*
X50127000Y-145122285D01*
X50665000Y-145122285D01*
X50665000Y-145877715D01*
X50812377Y-146618628D01*
X51101467Y-147316554D01*
X51521161Y-147944670D01*
X52055330Y-148478839D01*
X52683446Y-148898533D01*
X53381372Y-149187623D01*
X54122285Y-149335000D01*
X54877715Y-149335000D01*
X55618628Y-149187623D01*
X56316554Y-148898533D01*
X56944670Y-148478839D01*
X57311101Y-148112408D01*
X115178000Y-148112408D01*
X115178000Y-148387592D01*
X115231686Y-148657490D01*
X115336995Y-148911727D01*
X115489880Y-149140535D01*
X115684465Y-149335120D01*
X115913273Y-149488005D01*
X116167510Y-149593314D01*
X116437408Y-149647000D01*
X116712592Y-149647000D01*
X116982490Y-149593314D01*
X117236727Y-149488005D01*
X117465535Y-149335120D01*
X117660120Y-149140535D01*
X117813005Y-148911727D01*
X117918314Y-148657490D01*
X117972000Y-148387592D01*
X117972000Y-148112408D01*
X121528000Y-148112408D01*
X121528000Y-148387592D01*
X121581686Y-148657490D01*
X121686995Y-148911727D01*
X121839880Y-149140535D01*
X122034465Y-149335120D01*
X122263273Y-149488005D01*
X122517510Y-149593314D01*
X122787408Y-149647000D01*
X123062592Y-149647000D01*
X123332490Y-149593314D01*
X123586727Y-149488005D01*
X123815535Y-149335120D01*
X124010120Y-149140535D01*
X124163005Y-148911727D01*
X124268314Y-148657490D01*
X124322000Y-148387592D01*
X124322000Y-148112408D01*
X124268314Y-147842510D01*
X124184666Y-147640565D01*
X124714040Y-147640565D01*
X124781020Y-147880656D01*
X125030048Y-147997756D01*
X125297135Y-148064023D01*
X125572017Y-148076910D01*
X125844133Y-148035922D01*
X126103023Y-147942636D01*
X126218980Y-147880656D01*
X126285960Y-147640565D01*
X125500000Y-146854605D01*
X124714040Y-147640565D01*
X124184666Y-147640565D01*
X124163005Y-147588273D01*
X124010120Y-147359465D01*
X123815535Y-147164880D01*
X123586727Y-147011995D01*
X123332490Y-146906686D01*
X123062592Y-146853000D01*
X122787408Y-146853000D01*
X122517510Y-146906686D01*
X122263273Y-147011995D01*
X122034465Y-147164880D01*
X121839880Y-147359465D01*
X121686995Y-147588273D01*
X121581686Y-147842510D01*
X121528000Y-148112408D01*
X117972000Y-148112408D01*
X117918314Y-147842510D01*
X117813005Y-147588273D01*
X117660120Y-147359465D01*
X117465535Y-147164880D01*
X117236727Y-147011995D01*
X116982490Y-146906686D01*
X116712592Y-146853000D01*
X116437408Y-146853000D01*
X116167510Y-146906686D01*
X115913273Y-147011995D01*
X115684465Y-147164880D01*
X115489880Y-147359465D01*
X115336995Y-147588273D01*
X115231686Y-147842510D01*
X115178000Y-148112408D01*
X57311101Y-148112408D01*
X57478839Y-147944670D01*
X57898533Y-147316554D01*
X58134442Y-146747017D01*
X124098090Y-146747017D01*
X124139078Y-147019133D01*
X124232364Y-147278023D01*
X124294344Y-147393980D01*
X124534435Y-147460960D01*
X125320395Y-146675000D01*
X125679605Y-146675000D01*
X126465565Y-147460960D01*
X126705656Y-147393980D01*
X126822756Y-147144952D01*
X126889023Y-146877865D01*
X126901910Y-146602983D01*
X126860922Y-146330867D01*
X126767636Y-146071977D01*
X126705656Y-145956020D01*
X126465565Y-145889040D01*
X125679605Y-146675000D01*
X125320395Y-146675000D01*
X124534435Y-145889040D01*
X124294344Y-145956020D01*
X124177244Y-146205048D01*
X124110977Y-146472135D01*
X124098090Y-146747017D01*
X58134442Y-146747017D01*
X58187623Y-146618628D01*
X58335000Y-145877715D01*
X58335000Y-145122285D01*
X58187623Y-144381372D01*
X58178218Y-144358665D01*
X84065000Y-144358665D01*
X84065000Y-144641335D01*
X84120147Y-144918574D01*
X84228320Y-145179727D01*
X84385363Y-145414759D01*
X84585241Y-145614637D01*
X84820273Y-145771680D01*
X85081426Y-145879853D01*
X85358665Y-145935000D01*
X85641335Y-145935000D01*
X85918574Y-145879853D01*
X86179727Y-145771680D01*
X86414759Y-145614637D01*
X86536694Y-145492702D01*
X89686903Y-145492702D01*
X89758486Y-145736671D01*
X90013996Y-145857571D01*
X90288184Y-145926300D01*
X90570512Y-145940217D01*
X90850130Y-145898787D01*
X91116292Y-145803603D01*
X91241514Y-145736671D01*
X91249505Y-145709435D01*
X124714040Y-145709435D01*
X125500000Y-146495395D01*
X126285960Y-145709435D01*
X126218980Y-145469344D01*
X125969952Y-145352244D01*
X125702865Y-145285977D01*
X125427983Y-145273090D01*
X125155867Y-145314078D01*
X124896977Y-145407364D01*
X124781020Y-145469344D01*
X124714040Y-145709435D01*
X91249505Y-145709435D01*
X91313097Y-145492702D01*
X90500000Y-144679605D01*
X89686903Y-145492702D01*
X86536694Y-145492702D01*
X86614637Y-145414759D01*
X86771680Y-145179727D01*
X86879853Y-144918574D01*
X86935000Y-144641335D01*
X86935000Y-144570512D01*
X89059783Y-144570512D01*
X89101213Y-144850130D01*
X89196397Y-145116292D01*
X89263329Y-145241514D01*
X89507298Y-145313097D01*
X90320395Y-144500000D01*
X90679605Y-144500000D01*
X91492702Y-145313097D01*
X91736671Y-145241514D01*
X91857571Y-144986004D01*
X91926300Y-144711816D01*
X91940217Y-144429488D01*
X91898787Y-144149870D01*
X91803603Y-143883708D01*
X91736671Y-143758486D01*
X91492702Y-143686903D01*
X90679605Y-144500000D01*
X90320395Y-144500000D01*
X89507298Y-143686903D01*
X89263329Y-143758486D01*
X89142429Y-144013996D01*
X89073700Y-144288184D01*
X89059783Y-144570512D01*
X86935000Y-144570512D01*
X86935000Y-144358665D01*
X86879853Y-144081426D01*
X86771680Y-143820273D01*
X86614637Y-143585241D01*
X86536694Y-143507298D01*
X89686903Y-143507298D01*
X90500000Y-144320395D01*
X91313097Y-143507298D01*
X91241514Y-143263329D01*
X90986004Y-143142429D01*
X90711816Y-143073700D01*
X90429488Y-143059783D01*
X90149870Y-143101213D01*
X89883708Y-143196397D01*
X89758486Y-143263329D01*
X89686903Y-143507298D01*
X86536694Y-143507298D01*
X86414759Y-143385363D01*
X86179727Y-143228320D01*
X85918574Y-143120147D01*
X85641335Y-143065000D01*
X85358665Y-143065000D01*
X85081426Y-143120147D01*
X84820273Y-143228320D01*
X84585241Y-143385363D01*
X84385363Y-143585241D01*
X84228320Y-143820273D01*
X84120147Y-144081426D01*
X84065000Y-144358665D01*
X58178218Y-144358665D01*
X57898533Y-143683446D01*
X57478839Y-143055330D01*
X56944670Y-142521161D01*
X56316554Y-142101467D01*
X55618628Y-141812377D01*
X54877715Y-141665000D01*
X54122285Y-141665000D01*
X53381372Y-141812377D01*
X52683446Y-142101467D01*
X52055330Y-142521161D01*
X51521161Y-143055330D01*
X51101467Y-143683446D01*
X50812377Y-144381372D01*
X50665000Y-145122285D01*
X50127000Y-145122285D01*
X50127000Y-139450000D01*
X118561928Y-139450000D01*
X118561928Y-141050000D01*
X118574188Y-141174482D01*
X118610498Y-141294180D01*
X118669463Y-141404494D01*
X118748815Y-141501185D01*
X118845506Y-141580537D01*
X118955820Y-141639502D01*
X119075518Y-141675812D01*
X119200000Y-141688072D01*
X120800000Y-141688072D01*
X120924482Y-141675812D01*
X121044180Y-141639502D01*
X121154494Y-141580537D01*
X121251185Y-141501185D01*
X121330537Y-141404494D01*
X121389502Y-141294180D01*
X121425812Y-141174482D01*
X121438072Y-141050000D01*
X121438072Y-140187408D01*
X124103000Y-140187408D01*
X124103000Y-140462592D01*
X124156686Y-140732490D01*
X124261995Y-140986727D01*
X124414880Y-141215535D01*
X124609465Y-141410120D01*
X124838273Y-141563005D01*
X125092510Y-141668314D01*
X125362408Y-141722000D01*
X125637592Y-141722000D01*
X125907490Y-141668314D01*
X126161727Y-141563005D01*
X126330850Y-141450000D01*
X133061928Y-141450000D01*
X133061928Y-144050000D01*
X133074188Y-144174482D01*
X133110498Y-144294180D01*
X133169463Y-144404494D01*
X133248815Y-144501185D01*
X133345506Y-144580537D01*
X133455820Y-144639502D01*
X133575518Y-144675812D01*
X133700000Y-144688072D01*
X133854682Y-144688072D01*
X133766509Y-144746987D01*
X133496987Y-145016509D01*
X133285225Y-145333434D01*
X133139361Y-145685581D01*
X133065000Y-146059419D01*
X133065000Y-146440581D01*
X133139361Y-146814419D01*
X133285225Y-147166566D01*
X133496987Y-147483491D01*
X133766509Y-147753013D01*
X134083434Y-147964775D01*
X134435581Y-148110639D01*
X134809419Y-148185000D01*
X135190581Y-148185000D01*
X135564419Y-148110639D01*
X135916566Y-147964775D01*
X136233491Y-147753013D01*
X136503013Y-147483491D01*
X136714775Y-147166566D01*
X136860639Y-146814419D01*
X136935000Y-146440581D01*
X136935000Y-146059419D01*
X136860639Y-145685581D01*
X136714775Y-145333434D01*
X136573691Y-145122285D01*
X141665000Y-145122285D01*
X141665000Y-145877715D01*
X141812377Y-146618628D01*
X142101467Y-147316554D01*
X142521161Y-147944670D01*
X143055330Y-148478839D01*
X143683446Y-148898533D01*
X144381372Y-149187623D01*
X145122285Y-149335000D01*
X145877715Y-149335000D01*
X146618628Y-149187623D01*
X147316554Y-148898533D01*
X147944670Y-148478839D01*
X148478839Y-147944670D01*
X148898533Y-147316554D01*
X149187623Y-146618628D01*
X149335000Y-145877715D01*
X149335000Y-145122285D01*
X149187623Y-144381372D01*
X148898533Y-143683446D01*
X148478839Y-143055330D01*
X147944670Y-142521161D01*
X147316554Y-142101467D01*
X146618628Y-141812377D01*
X145877715Y-141665000D01*
X145122285Y-141665000D01*
X144381372Y-141812377D01*
X143683446Y-142101467D01*
X143055330Y-142521161D01*
X142521161Y-143055330D01*
X142101467Y-143683446D01*
X141812377Y-144381372D01*
X141665000Y-145122285D01*
X136573691Y-145122285D01*
X136503013Y-145016509D01*
X136233491Y-144746987D01*
X136145318Y-144688072D01*
X136300000Y-144688072D01*
X136424482Y-144675812D01*
X136544180Y-144639502D01*
X136654494Y-144580537D01*
X136751185Y-144501185D01*
X136830537Y-144404494D01*
X136889502Y-144294180D01*
X136925812Y-144174482D01*
X136938072Y-144050000D01*
X136938072Y-141450000D01*
X136925812Y-141325518D01*
X136889502Y-141205820D01*
X136830537Y-141095506D01*
X136751185Y-140998815D01*
X136654494Y-140919463D01*
X136544180Y-140860498D01*
X136424482Y-140824188D01*
X136300000Y-140811928D01*
X133700000Y-140811928D01*
X133575518Y-140824188D01*
X133455820Y-140860498D01*
X133345506Y-140919463D01*
X133248815Y-140998815D01*
X133169463Y-141095506D01*
X133110498Y-141205820D01*
X133074188Y-141325518D01*
X133061928Y-141450000D01*
X126330850Y-141450000D01*
X126390535Y-141410120D01*
X126585120Y-141215535D01*
X126738005Y-140986727D01*
X126843314Y-140732490D01*
X126897000Y-140462592D01*
X126897000Y-140187408D01*
X126843314Y-139917510D01*
X126738005Y-139663273D01*
X126585120Y-139434465D01*
X126390535Y-139239880D01*
X126161727Y-139086995D01*
X125907490Y-138981686D01*
X125637592Y-138928000D01*
X125362408Y-138928000D01*
X125092510Y-138981686D01*
X124838273Y-139086995D01*
X124609465Y-139239880D01*
X124414880Y-139434465D01*
X124261995Y-139663273D01*
X124156686Y-139917510D01*
X124103000Y-140187408D01*
X121438072Y-140187408D01*
X121438072Y-139450000D01*
X121425812Y-139325518D01*
X121389502Y-139205820D01*
X121330537Y-139095506D01*
X121251185Y-138998815D01*
X121154494Y-138919463D01*
X121044180Y-138860498D01*
X120948057Y-138831339D01*
X121114637Y-138664759D01*
X121271680Y-138429727D01*
X121379853Y-138168574D01*
X121435000Y-137891335D01*
X121435000Y-137608665D01*
X121379853Y-137331426D01*
X121271680Y-137070273D01*
X121249721Y-137037408D01*
X123353000Y-137037408D01*
X123353000Y-137312592D01*
X123406686Y-137582490D01*
X123511995Y-137836727D01*
X123664880Y-138065535D01*
X123859465Y-138260120D01*
X124088273Y-138413005D01*
X124342510Y-138518314D01*
X124612408Y-138572000D01*
X124887592Y-138572000D01*
X125157490Y-138518314D01*
X125411727Y-138413005D01*
X125640535Y-138260120D01*
X125835120Y-138065535D01*
X125988005Y-137836727D01*
X126093314Y-137582490D01*
X126147000Y-137312592D01*
X126147000Y-137037408D01*
X126093314Y-136767510D01*
X125988005Y-136513273D01*
X125835120Y-136284465D01*
X125640535Y-136089880D01*
X125411727Y-135936995D01*
X125157490Y-135831686D01*
X124887592Y-135778000D01*
X124612408Y-135778000D01*
X124342510Y-135831686D01*
X124088273Y-135936995D01*
X123859465Y-136089880D01*
X123664880Y-136284465D01*
X123511995Y-136513273D01*
X123406686Y-136767510D01*
X123353000Y-137037408D01*
X121249721Y-137037408D01*
X121114637Y-136835241D01*
X120914759Y-136635363D01*
X120679727Y-136478320D01*
X120418574Y-136370147D01*
X120141335Y-136315000D01*
X119858665Y-136315000D01*
X119581426Y-136370147D01*
X119320273Y-136478320D01*
X119085241Y-136635363D01*
X118885363Y-136835241D01*
X118728320Y-137070273D01*
X118620147Y-137331426D01*
X118565000Y-137608665D01*
X118565000Y-137891335D01*
X118620147Y-138168574D01*
X118728320Y-138429727D01*
X118885363Y-138664759D01*
X119051943Y-138831339D01*
X118955820Y-138860498D01*
X118845506Y-138919463D01*
X118748815Y-138998815D01*
X118669463Y-139095506D01*
X118610498Y-139205820D01*
X118574188Y-139325518D01*
X118561928Y-139450000D01*
X50127000Y-139450000D01*
X50127000Y-135121371D01*
X62723800Y-135121371D01*
X62723800Y-135506629D01*
X62798961Y-135884486D01*
X62946393Y-136240419D01*
X63160431Y-136560750D01*
X63432850Y-136833169D01*
X63753181Y-137047207D01*
X64109114Y-137194639D01*
X64486971Y-137269800D01*
X64872229Y-137269800D01*
X65250086Y-137194639D01*
X65606019Y-137047207D01*
X65926350Y-136833169D01*
X66198769Y-136560750D01*
X66412807Y-136240419D01*
X66560239Y-135884486D01*
X66635400Y-135506629D01*
X66635400Y-135121371D01*
X81850000Y-135121371D01*
X81850000Y-135506629D01*
X81925161Y-135884486D01*
X82072593Y-136240419D01*
X82286631Y-136560750D01*
X82559050Y-136833169D01*
X82879381Y-137047207D01*
X83235314Y-137194639D01*
X83613171Y-137269800D01*
X83998429Y-137269800D01*
X84376286Y-137194639D01*
X84732219Y-137047207D01*
X85052550Y-136833169D01*
X85324969Y-136560750D01*
X85539007Y-136240419D01*
X85686439Y-135884486D01*
X85761600Y-135506629D01*
X85761600Y-135121371D01*
X85740700Y-135016300D01*
X88733400Y-135016300D01*
X88733400Y-135611700D01*
X88849557Y-136195660D01*
X89077407Y-136745738D01*
X89408193Y-137240795D01*
X89829205Y-137661807D01*
X90324262Y-137992593D01*
X90874340Y-138220443D01*
X91458300Y-138336600D01*
X92053700Y-138336600D01*
X92637660Y-138220443D01*
X93187738Y-137992593D01*
X93682795Y-137661807D01*
X94103807Y-137240795D01*
X94434593Y-136745738D01*
X94662443Y-136195660D01*
X94778600Y-135611700D01*
X94778600Y-135016300D01*
X94662443Y-134432340D01*
X94434593Y-133882262D01*
X94103807Y-133387205D01*
X93682795Y-132966193D01*
X93187738Y-132635407D01*
X92637660Y-132407557D01*
X92053700Y-132291400D01*
X91458300Y-132291400D01*
X90874340Y-132407557D01*
X90324262Y-132635407D01*
X89829205Y-132966193D01*
X89408193Y-133387205D01*
X89077407Y-133882262D01*
X88849557Y-134432340D01*
X88733400Y-135016300D01*
X85740700Y-135016300D01*
X85686439Y-134743514D01*
X85539007Y-134387581D01*
X85324969Y-134067250D01*
X85052550Y-133794831D01*
X84732219Y-133580793D01*
X84376286Y-133433361D01*
X83998429Y-133358200D01*
X83613171Y-133358200D01*
X83235314Y-133433361D01*
X82879381Y-133580793D01*
X82559050Y-133794831D01*
X82286631Y-134067250D01*
X82072593Y-134387581D01*
X81925161Y-134743514D01*
X81850000Y-135121371D01*
X66635400Y-135121371D01*
X66560239Y-134743514D01*
X66412807Y-134387581D01*
X66198769Y-134067250D01*
X65926350Y-133794831D01*
X65606019Y-133580793D01*
X65250086Y-133433361D01*
X64872229Y-133358200D01*
X64486971Y-133358200D01*
X64109114Y-133433361D01*
X63753181Y-133580793D01*
X63432850Y-133794831D01*
X63160431Y-134067250D01*
X62946393Y-134387581D01*
X62798961Y-134743514D01*
X62723800Y-135121371D01*
X50127000Y-135121371D01*
X50127000Y-126392223D01*
X52563800Y-126392223D01*
X52563800Y-127217777D01*
X52724858Y-128027469D01*
X53040784Y-128790183D01*
X53499438Y-129476606D01*
X54083194Y-130060362D01*
X54769617Y-130519016D01*
X55532331Y-130834942D01*
X56342023Y-130996000D01*
X57167577Y-130996000D01*
X57977269Y-130834942D01*
X58739983Y-130519016D01*
X59426406Y-130060362D01*
X60010162Y-129476606D01*
X60468816Y-128790183D01*
X60784742Y-128027469D01*
X60945800Y-127217777D01*
X60945800Y-126392223D01*
X70039000Y-126392223D01*
X70039000Y-127217777D01*
X70200058Y-128027469D01*
X70515984Y-128790183D01*
X70974638Y-129476606D01*
X71558394Y-130060362D01*
X72244817Y-130519016D01*
X73007531Y-130834942D01*
X73817223Y-130996000D01*
X74642777Y-130996000D01*
X75452469Y-130834942D01*
X76215183Y-130519016D01*
X76901606Y-130060362D01*
X77485362Y-129476606D01*
X77944016Y-128790183D01*
X78259942Y-128027469D01*
X78421000Y-127217777D01*
X78421000Y-126392223D01*
X78259942Y-125582531D01*
X77944016Y-124819817D01*
X77485362Y-124133394D01*
X76901606Y-123549638D01*
X76215183Y-123090984D01*
X76122053Y-123052408D01*
X110853000Y-123052408D01*
X110853000Y-123327592D01*
X110906686Y-123597490D01*
X111011995Y-123851727D01*
X111164880Y-124080535D01*
X111359465Y-124275120D01*
X111588273Y-124428005D01*
X111665515Y-124460000D01*
X111588273Y-124491995D01*
X111359465Y-124644880D01*
X111164880Y-124839465D01*
X111011995Y-125068273D01*
X110906686Y-125322510D01*
X110853000Y-125592408D01*
X110853000Y-125867592D01*
X110906686Y-126137490D01*
X111011995Y-126391727D01*
X111164880Y-126620535D01*
X111359465Y-126815120D01*
X111588273Y-126968005D01*
X111665515Y-127000000D01*
X111588273Y-127031995D01*
X111359465Y-127184880D01*
X111164880Y-127379465D01*
X111011995Y-127608273D01*
X110906686Y-127862510D01*
X110853000Y-128132408D01*
X110853000Y-128407592D01*
X110906686Y-128677490D01*
X111011995Y-128931727D01*
X111164880Y-129160535D01*
X111359465Y-129355120D01*
X111588273Y-129508005D01*
X111665515Y-129540000D01*
X111588273Y-129571995D01*
X111359465Y-129724880D01*
X111164880Y-129919465D01*
X111011995Y-130148273D01*
X110906686Y-130402510D01*
X110853000Y-130672408D01*
X110853000Y-130947592D01*
X110906686Y-131217490D01*
X111011995Y-131471727D01*
X111164880Y-131700535D01*
X111359465Y-131895120D01*
X111588273Y-132048005D01*
X111665515Y-132080000D01*
X111588273Y-132111995D01*
X111359465Y-132264880D01*
X111164880Y-132459465D01*
X111011995Y-132688273D01*
X110906686Y-132942510D01*
X110853000Y-133212408D01*
X110853000Y-133487592D01*
X110906686Y-133757490D01*
X111011995Y-134011727D01*
X111164880Y-134240535D01*
X111359465Y-134435120D01*
X111588273Y-134588005D01*
X111842510Y-134693314D01*
X112112408Y-134747000D01*
X112387592Y-134747000D01*
X112657490Y-134693314D01*
X112911727Y-134588005D01*
X113140535Y-134435120D01*
X113335120Y-134240535D01*
X113488005Y-134011727D01*
X113593314Y-133757490D01*
X113647000Y-133487592D01*
X113647000Y-133212408D01*
X113593314Y-132942510D01*
X113488005Y-132688273D01*
X113335120Y-132459465D01*
X113140535Y-132264880D01*
X112911727Y-132111995D01*
X112834485Y-132080000D01*
X112911727Y-132048005D01*
X113140535Y-131895120D01*
X113335120Y-131700535D01*
X113488005Y-131471727D01*
X113593314Y-131217490D01*
X113647000Y-130947592D01*
X113647000Y-130687408D01*
X123353000Y-130687408D01*
X123353000Y-130962592D01*
X123406686Y-131232490D01*
X123511995Y-131486727D01*
X123664880Y-131715535D01*
X123859465Y-131910120D01*
X124088273Y-132063005D01*
X124342510Y-132168314D01*
X124612408Y-132222000D01*
X124887592Y-132222000D01*
X125157490Y-132168314D01*
X125411727Y-132063005D01*
X125640535Y-131910120D01*
X125835120Y-131715535D01*
X125988005Y-131486727D01*
X126093314Y-131232490D01*
X126147000Y-130962592D01*
X126147000Y-130687408D01*
X126093314Y-130417510D01*
X125988005Y-130163273D01*
X125835120Y-129934465D01*
X125640535Y-129739880D01*
X125411727Y-129586995D01*
X125157490Y-129481686D01*
X124887592Y-129428000D01*
X124612408Y-129428000D01*
X124342510Y-129481686D01*
X124088273Y-129586995D01*
X123859465Y-129739880D01*
X123664880Y-129934465D01*
X123511995Y-130163273D01*
X123406686Y-130417510D01*
X123353000Y-130687408D01*
X113647000Y-130687408D01*
X113647000Y-130672408D01*
X113593314Y-130402510D01*
X113488005Y-130148273D01*
X113335120Y-129919465D01*
X113140535Y-129724880D01*
X112911727Y-129571995D01*
X112834485Y-129540000D01*
X112911727Y-129508005D01*
X113140535Y-129355120D01*
X113335120Y-129160535D01*
X113488005Y-128931727D01*
X113593314Y-128677490D01*
X113647000Y-128407592D01*
X113647000Y-128132408D01*
X113593314Y-127862510D01*
X113488005Y-127608273D01*
X113335120Y-127379465D01*
X113140535Y-127184880D01*
X112911727Y-127031995D01*
X112834485Y-127000000D01*
X112911727Y-126968005D01*
X113140535Y-126815120D01*
X113335120Y-126620535D01*
X113488005Y-126391727D01*
X113593314Y-126137490D01*
X113647000Y-125867592D01*
X113647000Y-125592408D01*
X113593314Y-125322510D01*
X113488005Y-125068273D01*
X113335120Y-124839465D01*
X113140535Y-124644880D01*
X112911727Y-124491995D01*
X112834485Y-124460000D01*
X112911727Y-124428005D01*
X113140535Y-124275120D01*
X113335120Y-124080535D01*
X113488005Y-123851727D01*
X113593314Y-123597490D01*
X113647000Y-123327592D01*
X113647000Y-123052408D01*
X113609207Y-122862408D01*
X127603000Y-122862408D01*
X127603000Y-123137592D01*
X127656686Y-123407490D01*
X127761995Y-123661727D01*
X127914880Y-123890535D01*
X128109465Y-124085120D01*
X128338273Y-124238005D01*
X128592510Y-124343314D01*
X128862408Y-124397000D01*
X129137592Y-124397000D01*
X129407490Y-124343314D01*
X129661727Y-124238005D01*
X129890535Y-124085120D01*
X130085120Y-123890535D01*
X130238005Y-123661727D01*
X130250000Y-123632769D01*
X130261995Y-123661727D01*
X130414880Y-123890535D01*
X130609465Y-124085120D01*
X130838273Y-124238005D01*
X131092510Y-124343314D01*
X131362408Y-124397000D01*
X131637592Y-124397000D01*
X131907490Y-124343314D01*
X132161727Y-124238005D01*
X132390535Y-124085120D01*
X132585120Y-123890535D01*
X132738005Y-123661727D01*
X132750000Y-123632769D01*
X132761995Y-123661727D01*
X132914880Y-123890535D01*
X133109465Y-124085120D01*
X133338273Y-124238005D01*
X133592510Y-124343314D01*
X133862408Y-124397000D01*
X134137592Y-124397000D01*
X134407490Y-124343314D01*
X134661727Y-124238005D01*
X134890535Y-124085120D01*
X135085120Y-123890535D01*
X135238005Y-123661727D01*
X135250000Y-123632769D01*
X135261995Y-123661727D01*
X135414880Y-123890535D01*
X135609465Y-124085120D01*
X135838273Y-124238005D01*
X136092510Y-124343314D01*
X136362408Y-124397000D01*
X136637592Y-124397000D01*
X136907490Y-124343314D01*
X137161727Y-124238005D01*
X137390535Y-124085120D01*
X137585120Y-123890535D01*
X137738005Y-123661727D01*
X137750000Y-123632769D01*
X137761995Y-123661727D01*
X137914880Y-123890535D01*
X138109465Y-124085120D01*
X138338273Y-124238005D01*
X138592510Y-124343314D01*
X138862408Y-124397000D01*
X139137592Y-124397000D01*
X139407490Y-124343314D01*
X139661727Y-124238005D01*
X139890535Y-124085120D01*
X140085120Y-123890535D01*
X140238005Y-123661727D01*
X140250000Y-123632769D01*
X140261995Y-123661727D01*
X140414880Y-123890535D01*
X140609465Y-124085120D01*
X140838273Y-124238005D01*
X141092510Y-124343314D01*
X141362408Y-124397000D01*
X141637592Y-124397000D01*
X141907490Y-124343314D01*
X142161727Y-124238005D01*
X142390535Y-124085120D01*
X142585120Y-123890535D01*
X142738005Y-123661727D01*
X142750000Y-123632769D01*
X142761995Y-123661727D01*
X142914880Y-123890535D01*
X143109465Y-124085120D01*
X143338273Y-124238005D01*
X143592510Y-124343314D01*
X143862408Y-124397000D01*
X144137592Y-124397000D01*
X144407490Y-124343314D01*
X144661727Y-124238005D01*
X144890535Y-124085120D01*
X145010090Y-123965565D01*
X145714040Y-123965565D01*
X145781020Y-124205656D01*
X146030048Y-124322756D01*
X146297135Y-124389023D01*
X146572017Y-124401910D01*
X146844133Y-124360922D01*
X147103023Y-124267636D01*
X147218980Y-124205656D01*
X147285960Y-123965565D01*
X146500000Y-123179605D01*
X145714040Y-123965565D01*
X145010090Y-123965565D01*
X145085120Y-123890535D01*
X145238005Y-123661727D01*
X145249242Y-123634599D01*
X145294344Y-123718980D01*
X145534435Y-123785960D01*
X146320395Y-123000000D01*
X146679605Y-123000000D01*
X147465565Y-123785960D01*
X147705656Y-123718980D01*
X147822756Y-123469952D01*
X147889023Y-123202865D01*
X147901910Y-122927983D01*
X147860922Y-122655867D01*
X147767636Y-122396977D01*
X147705656Y-122281020D01*
X147465565Y-122214040D01*
X146679605Y-123000000D01*
X146320395Y-123000000D01*
X145534435Y-122214040D01*
X145294344Y-122281020D01*
X145251782Y-122371533D01*
X145238005Y-122338273D01*
X145085120Y-122109465D01*
X145010090Y-122034435D01*
X145714040Y-122034435D01*
X146500000Y-122820395D01*
X147285960Y-122034435D01*
X147218980Y-121794344D01*
X146969952Y-121677244D01*
X146702865Y-121610977D01*
X146427983Y-121598090D01*
X146155867Y-121639078D01*
X145896977Y-121732364D01*
X145781020Y-121794344D01*
X145714040Y-122034435D01*
X145010090Y-122034435D01*
X144890535Y-121914880D01*
X144661727Y-121761995D01*
X144407490Y-121656686D01*
X144137592Y-121603000D01*
X143862408Y-121603000D01*
X143592510Y-121656686D01*
X143338273Y-121761995D01*
X143109465Y-121914880D01*
X142914880Y-122109465D01*
X142761995Y-122338273D01*
X142750000Y-122367231D01*
X142738005Y-122338273D01*
X142585120Y-122109465D01*
X142390535Y-121914880D01*
X142161727Y-121761995D01*
X141907490Y-121656686D01*
X141637592Y-121603000D01*
X141362408Y-121603000D01*
X141092510Y-121656686D01*
X140838273Y-121761995D01*
X140609465Y-121914880D01*
X140414880Y-122109465D01*
X140261995Y-122338273D01*
X140250000Y-122367231D01*
X140238005Y-122338273D01*
X140085120Y-122109465D01*
X139890535Y-121914880D01*
X139661727Y-121761995D01*
X139407490Y-121656686D01*
X139137592Y-121603000D01*
X138862408Y-121603000D01*
X138592510Y-121656686D01*
X138338273Y-121761995D01*
X138109465Y-121914880D01*
X137914880Y-122109465D01*
X137761995Y-122338273D01*
X137750000Y-122367231D01*
X137738005Y-122338273D01*
X137585120Y-122109465D01*
X137390535Y-121914880D01*
X137161727Y-121761995D01*
X136907490Y-121656686D01*
X136637592Y-121603000D01*
X136362408Y-121603000D01*
X136092510Y-121656686D01*
X135838273Y-121761995D01*
X135609465Y-121914880D01*
X135414880Y-122109465D01*
X135261995Y-122338273D01*
X135250000Y-122367231D01*
X135238005Y-122338273D01*
X135085120Y-122109465D01*
X134890535Y-121914880D01*
X134661727Y-121761995D01*
X134407490Y-121656686D01*
X134137592Y-121603000D01*
X133862408Y-121603000D01*
X133592510Y-121656686D01*
X133338273Y-121761995D01*
X133109465Y-121914880D01*
X132914880Y-122109465D01*
X132761995Y-122338273D01*
X132750000Y-122367231D01*
X132738005Y-122338273D01*
X132585120Y-122109465D01*
X132390535Y-121914880D01*
X132161727Y-121761995D01*
X131907490Y-121656686D01*
X131637592Y-121603000D01*
X131362408Y-121603000D01*
X131092510Y-121656686D01*
X130838273Y-121761995D01*
X130609465Y-121914880D01*
X130414880Y-122109465D01*
X130261995Y-122338273D01*
X130250000Y-122367231D01*
X130238005Y-122338273D01*
X130085120Y-122109465D01*
X129890535Y-121914880D01*
X129661727Y-121761995D01*
X129407490Y-121656686D01*
X129137592Y-121603000D01*
X128862408Y-121603000D01*
X128592510Y-121656686D01*
X128338273Y-121761995D01*
X128109465Y-121914880D01*
X127914880Y-122109465D01*
X127761995Y-122338273D01*
X127656686Y-122592510D01*
X127603000Y-122862408D01*
X113609207Y-122862408D01*
X113593314Y-122782510D01*
X113488005Y-122528273D01*
X113335120Y-122299465D01*
X113140535Y-122104880D01*
X112911727Y-121951995D01*
X112840057Y-121922308D01*
X112853023Y-121917636D01*
X112968980Y-121855656D01*
X113035960Y-121615565D01*
X112250000Y-120829605D01*
X111464040Y-121615565D01*
X111531020Y-121855656D01*
X111666760Y-121919485D01*
X111588273Y-121951995D01*
X111359465Y-122104880D01*
X111164880Y-122299465D01*
X111011995Y-122528273D01*
X110906686Y-122782510D01*
X110853000Y-123052408D01*
X76122053Y-123052408D01*
X75452469Y-122775058D01*
X74642777Y-122614000D01*
X73817223Y-122614000D01*
X73007531Y-122775058D01*
X72244817Y-123090984D01*
X71558394Y-123549638D01*
X70974638Y-124133394D01*
X70515984Y-124819817D01*
X70200058Y-125582531D01*
X70039000Y-126392223D01*
X60945800Y-126392223D01*
X60784742Y-125582531D01*
X60468816Y-124819817D01*
X60010162Y-124133394D01*
X59426406Y-123549638D01*
X58739983Y-123090984D01*
X57977269Y-122775058D01*
X57167577Y-122614000D01*
X56342023Y-122614000D01*
X55532331Y-122775058D01*
X54769617Y-123090984D01*
X54083194Y-123549638D01*
X53499438Y-124133394D01*
X53040784Y-124819817D01*
X52724858Y-125582531D01*
X52563800Y-126392223D01*
X50127000Y-126392223D01*
X50127000Y-120722017D01*
X110848090Y-120722017D01*
X110889078Y-120994133D01*
X110982364Y-121253023D01*
X111044344Y-121368980D01*
X111284435Y-121435960D01*
X112070395Y-120650000D01*
X112429605Y-120650000D01*
X113215565Y-121435960D01*
X113455656Y-121368980D01*
X113572756Y-121119952D01*
X113639023Y-120852865D01*
X113651910Y-120577983D01*
X113610922Y-120305867D01*
X113517636Y-120046977D01*
X113455656Y-119931020D01*
X113215565Y-119864040D01*
X112429605Y-120650000D01*
X112070395Y-120650000D01*
X111284435Y-119864040D01*
X111044344Y-119931020D01*
X110927244Y-120180048D01*
X110860977Y-120447135D01*
X110848090Y-120722017D01*
X50127000Y-120722017D01*
X50127000Y-119684435D01*
X111464040Y-119684435D01*
X112250000Y-120470395D01*
X113035960Y-119684435D01*
X112968980Y-119444344D01*
X112719952Y-119327244D01*
X112452865Y-119260977D01*
X112177983Y-119248090D01*
X111905867Y-119289078D01*
X111646977Y-119382364D01*
X111531020Y-119444344D01*
X111464040Y-119684435D01*
X50127000Y-119684435D01*
X50127000Y-116742702D01*
X118436903Y-116742702D01*
X118508486Y-116986671D01*
X118763996Y-117107571D01*
X119038184Y-117176300D01*
X119320512Y-117190217D01*
X119600130Y-117148787D01*
X119866292Y-117053603D01*
X119991514Y-116986671D01*
X120063097Y-116742702D01*
X119250000Y-115929605D01*
X118436903Y-116742702D01*
X50127000Y-116742702D01*
X50127000Y-115820512D01*
X117809783Y-115820512D01*
X117851213Y-116100130D01*
X117946397Y-116366292D01*
X118013329Y-116491514D01*
X118257298Y-116563097D01*
X119070395Y-115750000D01*
X119429605Y-115750000D01*
X120242702Y-116563097D01*
X120486671Y-116491514D01*
X120607571Y-116236004D01*
X120676300Y-115961816D01*
X120690217Y-115679488D01*
X120648787Y-115399870D01*
X120634052Y-115358665D01*
X125065000Y-115358665D01*
X125065000Y-115641335D01*
X125120147Y-115918574D01*
X125228320Y-116179727D01*
X125385363Y-116414759D01*
X125585241Y-116614637D01*
X125820273Y-116771680D01*
X126081426Y-116879853D01*
X126358665Y-116935000D01*
X126641335Y-116935000D01*
X126918574Y-116879853D01*
X127179727Y-116771680D01*
X127414759Y-116614637D01*
X127614637Y-116414759D01*
X127771680Y-116179727D01*
X127879853Y-115918574D01*
X127935000Y-115641335D01*
X127935000Y-115358665D01*
X127879853Y-115081426D01*
X127771680Y-114820273D01*
X127614637Y-114585241D01*
X127414759Y-114385363D01*
X127179727Y-114228320D01*
X126918574Y-114120147D01*
X126641335Y-114065000D01*
X126358665Y-114065000D01*
X126081426Y-114120147D01*
X125820273Y-114228320D01*
X125585241Y-114385363D01*
X125385363Y-114585241D01*
X125228320Y-114820273D01*
X125120147Y-115081426D01*
X125065000Y-115358665D01*
X120634052Y-115358665D01*
X120553603Y-115133708D01*
X120486671Y-115008486D01*
X120242702Y-114936903D01*
X119429605Y-115750000D01*
X119070395Y-115750000D01*
X118257298Y-114936903D01*
X118013329Y-115008486D01*
X117892429Y-115263996D01*
X117823700Y-115538184D01*
X117809783Y-115820512D01*
X50127000Y-115820512D01*
X50127000Y-114757298D01*
X118436903Y-114757298D01*
X119250000Y-115570395D01*
X120063097Y-114757298D01*
X119991514Y-114513329D01*
X119736004Y-114392429D01*
X119461816Y-114323700D01*
X119179488Y-114309783D01*
X118899870Y-114351213D01*
X118633708Y-114446397D01*
X118508486Y-114513329D01*
X118436903Y-114757298D01*
X50127000Y-114757298D01*
X50127000Y-110608665D01*
X117815000Y-110608665D01*
X117815000Y-110891335D01*
X117870147Y-111168574D01*
X117978320Y-111429727D01*
X118135363Y-111664759D01*
X118335241Y-111864637D01*
X118570273Y-112021680D01*
X118831426Y-112129853D01*
X119108665Y-112185000D01*
X119391335Y-112185000D01*
X119668574Y-112129853D01*
X119929727Y-112021680D01*
X120164759Y-111864637D01*
X120364637Y-111664759D01*
X120479601Y-111492702D01*
X125686903Y-111492702D01*
X125758486Y-111736671D01*
X126013996Y-111857571D01*
X126288184Y-111926300D01*
X126570512Y-111940217D01*
X126850130Y-111898787D01*
X127116292Y-111803603D01*
X127241514Y-111736671D01*
X127313097Y-111492702D01*
X126500000Y-110679605D01*
X125686903Y-111492702D01*
X120479601Y-111492702D01*
X120521680Y-111429727D01*
X120629853Y-111168574D01*
X120685000Y-110891335D01*
X120685000Y-110608665D01*
X120677411Y-110570512D01*
X125059783Y-110570512D01*
X125101213Y-110850130D01*
X125196397Y-111116292D01*
X125263329Y-111241514D01*
X125507298Y-111313097D01*
X126320395Y-110500000D01*
X126679605Y-110500000D01*
X127492702Y-111313097D01*
X127736671Y-111241514D01*
X127857571Y-110986004D01*
X127926300Y-110711816D01*
X127940217Y-110429488D01*
X127918425Y-110282408D01*
X130603000Y-110282408D01*
X130603000Y-110557592D01*
X130656686Y-110827490D01*
X130761995Y-111081727D01*
X130914880Y-111310535D01*
X131109465Y-111505120D01*
X131338273Y-111658005D01*
X131415515Y-111690000D01*
X131338273Y-111721995D01*
X131109465Y-111874880D01*
X130914880Y-112069465D01*
X130761995Y-112298273D01*
X130656686Y-112552510D01*
X130603000Y-112822408D01*
X130603000Y-113097592D01*
X130656686Y-113367490D01*
X130761995Y-113621727D01*
X130914880Y-113850535D01*
X131109465Y-114045120D01*
X131338273Y-114198005D01*
X131415515Y-114230000D01*
X131338273Y-114261995D01*
X131109465Y-114414880D01*
X130914880Y-114609465D01*
X130761995Y-114838273D01*
X130656686Y-115092510D01*
X130603000Y-115362408D01*
X130603000Y-115637592D01*
X130656686Y-115907490D01*
X130761995Y-116161727D01*
X130914880Y-116390535D01*
X131109465Y-116585120D01*
X131338273Y-116738005D01*
X131592510Y-116843314D01*
X131862408Y-116897000D01*
X132137592Y-116897000D01*
X132407490Y-116843314D01*
X132661727Y-116738005D01*
X132890535Y-116585120D01*
X133085120Y-116390535D01*
X133238005Y-116161727D01*
X133343314Y-115907490D01*
X133397000Y-115637592D01*
X133397000Y-115362408D01*
X133343314Y-115092510D01*
X133238005Y-114838273D01*
X133085120Y-114609465D01*
X132890535Y-114414880D01*
X132661727Y-114261995D01*
X132584485Y-114230000D01*
X132661727Y-114198005D01*
X132890535Y-114045120D01*
X133085120Y-113850535D01*
X133238005Y-113621727D01*
X133343314Y-113367490D01*
X133397000Y-113097592D01*
X133397000Y-112822408D01*
X133343314Y-112552510D01*
X133238005Y-112298273D01*
X133085120Y-112069465D01*
X132890535Y-111874880D01*
X132661727Y-111721995D01*
X132584485Y-111690000D01*
X132661727Y-111658005D01*
X132890535Y-111505120D01*
X133085120Y-111310535D01*
X133238005Y-111081727D01*
X133343314Y-110827490D01*
X133397000Y-110557592D01*
X133397000Y-110282408D01*
X133343314Y-110012510D01*
X133238005Y-109758273D01*
X133085120Y-109529465D01*
X132890535Y-109334880D01*
X132661727Y-109181995D01*
X132590057Y-109152308D01*
X132603023Y-109147636D01*
X132718980Y-109085656D01*
X132785960Y-108845565D01*
X132000000Y-108059605D01*
X131214040Y-108845565D01*
X131281020Y-109085656D01*
X131416760Y-109149485D01*
X131338273Y-109181995D01*
X131109465Y-109334880D01*
X130914880Y-109529465D01*
X130761995Y-109758273D01*
X130656686Y-110012510D01*
X130603000Y-110282408D01*
X127918425Y-110282408D01*
X127898787Y-110149870D01*
X127803603Y-109883708D01*
X127736671Y-109758486D01*
X127492702Y-109686903D01*
X126679605Y-110500000D01*
X126320395Y-110500000D01*
X125507298Y-109686903D01*
X125263329Y-109758486D01*
X125142429Y-110013996D01*
X125073700Y-110288184D01*
X125059783Y-110570512D01*
X120677411Y-110570512D01*
X120629853Y-110331426D01*
X120521680Y-110070273D01*
X120364637Y-109835241D01*
X120164759Y-109635363D01*
X119973096Y-109507298D01*
X125686903Y-109507298D01*
X126500000Y-110320395D01*
X127313097Y-109507298D01*
X127241514Y-109263329D01*
X126986004Y-109142429D01*
X126711816Y-109073700D01*
X126429488Y-109059783D01*
X126149870Y-109101213D01*
X125883708Y-109196397D01*
X125758486Y-109263329D01*
X125686903Y-109507298D01*
X119973096Y-109507298D01*
X119929727Y-109478320D01*
X119668574Y-109370147D01*
X119391335Y-109315000D01*
X119108665Y-109315000D01*
X118831426Y-109370147D01*
X118570273Y-109478320D01*
X118335241Y-109635363D01*
X118135363Y-109835241D01*
X117978320Y-110070273D01*
X117870147Y-110331426D01*
X117815000Y-110608665D01*
X50127000Y-110608665D01*
X50127000Y-107952017D01*
X130598090Y-107952017D01*
X130639078Y-108224133D01*
X130732364Y-108483023D01*
X130794344Y-108598980D01*
X131034435Y-108665960D01*
X131820395Y-107880000D01*
X132179605Y-107880000D01*
X132965565Y-108665960D01*
X133205656Y-108598980D01*
X133322756Y-108349952D01*
X133389023Y-108082865D01*
X133401910Y-107807983D01*
X133360922Y-107535867D01*
X133267636Y-107276977D01*
X133205656Y-107161020D01*
X132965565Y-107094040D01*
X132179605Y-107880000D01*
X131820395Y-107880000D01*
X131034435Y-107094040D01*
X130794344Y-107161020D01*
X130677244Y-107410048D01*
X130610977Y-107677135D01*
X130598090Y-107952017D01*
X50127000Y-107952017D01*
X50127000Y-105212408D01*
X97653000Y-105212408D01*
X97653000Y-105487592D01*
X97706686Y-105757490D01*
X97811995Y-106011727D01*
X97964880Y-106240535D01*
X98159465Y-106435120D01*
X98388273Y-106588005D01*
X98642510Y-106693314D01*
X98912408Y-106747000D01*
X99187592Y-106747000D01*
X99457490Y-106693314D01*
X99711727Y-106588005D01*
X99940535Y-106435120D01*
X100060090Y-106315565D01*
X102664040Y-106315565D01*
X102731020Y-106555656D01*
X102980048Y-106672756D01*
X103247135Y-106739023D01*
X103522017Y-106751910D01*
X103794133Y-106710922D01*
X104053023Y-106617636D01*
X104168980Y-106555656D01*
X104235960Y-106315565D01*
X103450000Y-105529605D01*
X102664040Y-106315565D01*
X100060090Y-106315565D01*
X100135120Y-106240535D01*
X100288005Y-106011727D01*
X100393314Y-105757490D01*
X100447000Y-105487592D01*
X100447000Y-105422017D01*
X102048090Y-105422017D01*
X102089078Y-105694133D01*
X102182364Y-105953023D01*
X102244344Y-106068980D01*
X102484435Y-106135960D01*
X103270395Y-105350000D01*
X103629605Y-105350000D01*
X104415565Y-106135960D01*
X104655656Y-106068980D01*
X104772756Y-105819952D01*
X104839023Y-105552865D01*
X104851910Y-105277983D01*
X104810922Y-105005867D01*
X104717636Y-104746977D01*
X104655656Y-104631020D01*
X104415565Y-104564040D01*
X103629605Y-105350000D01*
X103270395Y-105350000D01*
X102484435Y-104564040D01*
X102244344Y-104631020D01*
X102127244Y-104880048D01*
X102060977Y-105147135D01*
X102048090Y-105422017D01*
X100447000Y-105422017D01*
X100447000Y-105212408D01*
X100393314Y-104942510D01*
X100288005Y-104688273D01*
X100135120Y-104459465D01*
X100060090Y-104384435D01*
X102664040Y-104384435D01*
X103450000Y-105170395D01*
X104235960Y-104384435D01*
X104168980Y-104144344D01*
X103919952Y-104027244D01*
X103652865Y-103960977D01*
X103377983Y-103948090D01*
X103105867Y-103989078D01*
X102846977Y-104082364D01*
X102731020Y-104144344D01*
X102664040Y-104384435D01*
X100060090Y-104384435D01*
X99940535Y-104264880D01*
X99711727Y-104111995D01*
X99457490Y-104006686D01*
X99187592Y-103953000D01*
X98912408Y-103953000D01*
X98642510Y-104006686D01*
X98388273Y-104111995D01*
X98159465Y-104264880D01*
X97964880Y-104459465D01*
X97811995Y-104688273D01*
X97706686Y-104942510D01*
X97653000Y-105212408D01*
X50127000Y-105212408D01*
X50127000Y-83992408D01*
X114553000Y-83992408D01*
X114553000Y-84267592D01*
X114606686Y-84537490D01*
X114711995Y-84791727D01*
X114864880Y-85020535D01*
X115059465Y-85215120D01*
X115288273Y-85368005D01*
X115365515Y-85400000D01*
X115288273Y-85431995D01*
X115059465Y-85584880D01*
X114864880Y-85779465D01*
X114711995Y-86008273D01*
X114606686Y-86262510D01*
X114553000Y-86532408D01*
X114553000Y-86807592D01*
X114606686Y-87077490D01*
X114711995Y-87331727D01*
X114864880Y-87560535D01*
X115059465Y-87755120D01*
X115288273Y-87908005D01*
X115365515Y-87940000D01*
X115288273Y-87971995D01*
X115059465Y-88124880D01*
X114864880Y-88319465D01*
X114711995Y-88548273D01*
X114606686Y-88802510D01*
X114553000Y-89072408D01*
X114553000Y-89347592D01*
X114606686Y-89617490D01*
X114711995Y-89871727D01*
X114864880Y-90100535D01*
X115059465Y-90295120D01*
X115288273Y-90448005D01*
X115365515Y-90480000D01*
X115288273Y-90511995D01*
X115059465Y-90664880D01*
X114864880Y-90859465D01*
X114711995Y-91088273D01*
X114606686Y-91342510D01*
X114553000Y-91612408D01*
X114553000Y-91887592D01*
X114606686Y-92157490D01*
X114711995Y-92411727D01*
X114864880Y-92640535D01*
X115059465Y-92835120D01*
X115288273Y-92988005D01*
X115365515Y-93020000D01*
X115288273Y-93051995D01*
X115059465Y-93204880D01*
X114864880Y-93399465D01*
X114711995Y-93628273D01*
X114606686Y-93882510D01*
X114553000Y-94152408D01*
X114553000Y-94427592D01*
X114606686Y-94697490D01*
X114711995Y-94951727D01*
X114864880Y-95180535D01*
X115059465Y-95375120D01*
X115288273Y-95528005D01*
X115365515Y-95560000D01*
X115288273Y-95591995D01*
X115059465Y-95744880D01*
X114864880Y-95939465D01*
X114711995Y-96168273D01*
X114606686Y-96422510D01*
X114553000Y-96692408D01*
X114553000Y-96967592D01*
X114606686Y-97237490D01*
X114711995Y-97491727D01*
X114864880Y-97720535D01*
X115059465Y-97915120D01*
X115288273Y-98068005D01*
X115365515Y-98100000D01*
X115288273Y-98131995D01*
X115059465Y-98284880D01*
X114864880Y-98479465D01*
X114711995Y-98708273D01*
X114606686Y-98962510D01*
X114553000Y-99232408D01*
X114553000Y-99507592D01*
X114606686Y-99777490D01*
X114711995Y-100031727D01*
X114864880Y-100260535D01*
X115059465Y-100455120D01*
X115288273Y-100608005D01*
X115542510Y-100713314D01*
X115812408Y-100767000D01*
X116087592Y-100767000D01*
X116357490Y-100713314D01*
X116611727Y-100608005D01*
X116840535Y-100455120D01*
X117035120Y-100260535D01*
X117188005Y-100031727D01*
X117293314Y-99777490D01*
X117347000Y-99507592D01*
X117347000Y-99232408D01*
X117293314Y-98962510D01*
X117188005Y-98708273D01*
X117035120Y-98479465D01*
X116840535Y-98284880D01*
X116611727Y-98131995D01*
X116534485Y-98100000D01*
X116611727Y-98068005D01*
X116840535Y-97915120D01*
X117035120Y-97720535D01*
X117188005Y-97491727D01*
X117293314Y-97237490D01*
X117347000Y-96967592D01*
X117347000Y-96858665D01*
X119815000Y-96858665D01*
X119815000Y-97141335D01*
X119870147Y-97418574D01*
X119978320Y-97679727D01*
X120135363Y-97914759D01*
X120335241Y-98114637D01*
X120570273Y-98271680D01*
X120831426Y-98379853D01*
X121108665Y-98435000D01*
X121391335Y-98435000D01*
X121668574Y-98379853D01*
X121929727Y-98271680D01*
X122164759Y-98114637D01*
X122331339Y-97948057D01*
X122360498Y-98044180D01*
X122419463Y-98154494D01*
X122498815Y-98251185D01*
X122595506Y-98330537D01*
X122705820Y-98389502D01*
X122825518Y-98425812D01*
X122950000Y-98438072D01*
X123464250Y-98435000D01*
X123623000Y-98276250D01*
X123623000Y-97127000D01*
X123877000Y-97127000D01*
X123877000Y-98276250D01*
X124035750Y-98435000D01*
X124550000Y-98438072D01*
X124674482Y-98425812D01*
X124794180Y-98389502D01*
X124904494Y-98330537D01*
X125001185Y-98251185D01*
X125080537Y-98154494D01*
X125139502Y-98044180D01*
X125175812Y-97924482D01*
X125188072Y-97800000D01*
X125185000Y-97285750D01*
X125026250Y-97127000D01*
X123877000Y-97127000D01*
X123623000Y-97127000D01*
X123603000Y-97127000D01*
X123603000Y-96873000D01*
X123623000Y-96873000D01*
X123623000Y-95723750D01*
X123877000Y-95723750D01*
X123877000Y-96873000D01*
X125026250Y-96873000D01*
X125185000Y-96714250D01*
X125188072Y-96200000D01*
X125175812Y-96075518D01*
X125139502Y-95955820D01*
X125080537Y-95845506D01*
X125001185Y-95748815D01*
X124904494Y-95669463D01*
X124794180Y-95610498D01*
X124674482Y-95574188D01*
X124550000Y-95561928D01*
X124035750Y-95565000D01*
X123877000Y-95723750D01*
X123623000Y-95723750D01*
X123464250Y-95565000D01*
X122950000Y-95561928D01*
X122825518Y-95574188D01*
X122705820Y-95610498D01*
X122595506Y-95669463D01*
X122498815Y-95748815D01*
X122419463Y-95845506D01*
X122360498Y-95955820D01*
X122331339Y-96051943D01*
X122164759Y-95885363D01*
X121929727Y-95728320D01*
X121668574Y-95620147D01*
X121391335Y-95565000D01*
X121108665Y-95565000D01*
X120831426Y-95620147D01*
X120570273Y-95728320D01*
X120335241Y-95885363D01*
X120135363Y-96085241D01*
X119978320Y-96320273D01*
X119870147Y-96581426D01*
X119815000Y-96858665D01*
X117347000Y-96858665D01*
X117347000Y-96692408D01*
X117293314Y-96422510D01*
X117188005Y-96168273D01*
X117035120Y-95939465D01*
X116840535Y-95744880D01*
X116611727Y-95591995D01*
X116534485Y-95560000D01*
X116611727Y-95528005D01*
X116840535Y-95375120D01*
X117035120Y-95180535D01*
X117188005Y-94951727D01*
X117293314Y-94697490D01*
X117347000Y-94427592D01*
X117347000Y-94152408D01*
X117293314Y-93882510D01*
X117188005Y-93628273D01*
X117035120Y-93399465D01*
X116840535Y-93204880D01*
X116611727Y-93051995D01*
X116534485Y-93020000D01*
X116611727Y-92988005D01*
X116840535Y-92835120D01*
X117035120Y-92640535D01*
X117188005Y-92411727D01*
X117293314Y-92157490D01*
X117347000Y-91887592D01*
X117347000Y-91612408D01*
X117293314Y-91342510D01*
X117188005Y-91088273D01*
X117035120Y-90859465D01*
X116840535Y-90664880D01*
X116611727Y-90511995D01*
X116534485Y-90480000D01*
X116611727Y-90448005D01*
X116840535Y-90295120D01*
X117035120Y-90100535D01*
X117188005Y-89871727D01*
X117293314Y-89617490D01*
X117347000Y-89347592D01*
X117347000Y-89072408D01*
X117293314Y-88802510D01*
X117188005Y-88548273D01*
X117035120Y-88319465D01*
X116840535Y-88124880D01*
X116611727Y-87971995D01*
X116534485Y-87940000D01*
X116611727Y-87908005D01*
X116840535Y-87755120D01*
X117035120Y-87560535D01*
X117127413Y-87422408D01*
X130603000Y-87422408D01*
X130603000Y-87697592D01*
X130656686Y-87967490D01*
X130761995Y-88221727D01*
X130914880Y-88450535D01*
X131109465Y-88645120D01*
X131338273Y-88798005D01*
X131415515Y-88830000D01*
X131338273Y-88861995D01*
X131109465Y-89014880D01*
X130914880Y-89209465D01*
X130761995Y-89438273D01*
X130656686Y-89692510D01*
X130603000Y-89962408D01*
X130603000Y-90237592D01*
X130656686Y-90507490D01*
X130761995Y-90761727D01*
X130914880Y-90990535D01*
X131109465Y-91185120D01*
X131338273Y-91338005D01*
X131415515Y-91370000D01*
X131338273Y-91401995D01*
X131109465Y-91554880D01*
X130914880Y-91749465D01*
X130761995Y-91978273D01*
X130656686Y-92232510D01*
X130603000Y-92502408D01*
X130603000Y-92777592D01*
X130656686Y-93047490D01*
X130761995Y-93301727D01*
X130914880Y-93530535D01*
X131109465Y-93725120D01*
X131338273Y-93878005D01*
X131415515Y-93910000D01*
X131338273Y-93941995D01*
X131109465Y-94094880D01*
X130914880Y-94289465D01*
X130761995Y-94518273D01*
X130656686Y-94772510D01*
X130603000Y-95042408D01*
X130603000Y-95317592D01*
X130656686Y-95587490D01*
X130761995Y-95841727D01*
X130914880Y-96070535D01*
X131109465Y-96265120D01*
X131338273Y-96418005D01*
X131415515Y-96450000D01*
X131338273Y-96481995D01*
X131109465Y-96634880D01*
X130914880Y-96829465D01*
X130761995Y-97058273D01*
X130656686Y-97312510D01*
X130603000Y-97582408D01*
X130603000Y-97857592D01*
X130656686Y-98127490D01*
X130761995Y-98381727D01*
X130914880Y-98610535D01*
X131109465Y-98805120D01*
X131338273Y-98958005D01*
X131415515Y-98990000D01*
X131338273Y-99021995D01*
X131109465Y-99174880D01*
X130914880Y-99369465D01*
X130761995Y-99598273D01*
X130656686Y-99852510D01*
X130603000Y-100122408D01*
X130603000Y-100397592D01*
X130656686Y-100667490D01*
X130761995Y-100921727D01*
X130914880Y-101150535D01*
X131109465Y-101345120D01*
X131338273Y-101498005D01*
X131415515Y-101530000D01*
X131338273Y-101561995D01*
X131109465Y-101714880D01*
X130914880Y-101909465D01*
X130761995Y-102138273D01*
X130656686Y-102392510D01*
X130603000Y-102662408D01*
X130603000Y-102937592D01*
X130656686Y-103207490D01*
X130761995Y-103461727D01*
X130914880Y-103690535D01*
X131109465Y-103885120D01*
X131338273Y-104038005D01*
X131415515Y-104070000D01*
X131338273Y-104101995D01*
X131109465Y-104254880D01*
X130914880Y-104449465D01*
X130761995Y-104678273D01*
X130656686Y-104932510D01*
X130603000Y-105202408D01*
X130603000Y-105477592D01*
X130656686Y-105747490D01*
X130761995Y-106001727D01*
X130914880Y-106230535D01*
X131109465Y-106425120D01*
X131338273Y-106578005D01*
X131409943Y-106607692D01*
X131396977Y-106612364D01*
X131281020Y-106674344D01*
X131214040Y-106914435D01*
X132000000Y-107700395D01*
X132785960Y-106914435D01*
X132718980Y-106674344D01*
X132583240Y-106610515D01*
X132661727Y-106578005D01*
X132890535Y-106425120D01*
X133085120Y-106230535D01*
X133238005Y-106001727D01*
X133343314Y-105747490D01*
X133397000Y-105477592D01*
X133397000Y-105202408D01*
X133343314Y-104932510D01*
X133238005Y-104678273D01*
X133085120Y-104449465D01*
X132890535Y-104254880D01*
X132661727Y-104101995D01*
X132590299Y-104072408D01*
X134103000Y-104072408D01*
X134103000Y-104347592D01*
X134156686Y-104617490D01*
X134261995Y-104871727D01*
X134414880Y-105100535D01*
X134609465Y-105295120D01*
X134838273Y-105448005D01*
X134915515Y-105480000D01*
X134838273Y-105511995D01*
X134609465Y-105664880D01*
X134414880Y-105859465D01*
X134261995Y-106088273D01*
X134156686Y-106342510D01*
X134103000Y-106612408D01*
X134103000Y-106887592D01*
X134156686Y-107157490D01*
X134261995Y-107411727D01*
X134414880Y-107640535D01*
X134609465Y-107835120D01*
X134838273Y-107988005D01*
X135092510Y-108093314D01*
X135362408Y-108147000D01*
X135637592Y-108147000D01*
X135907490Y-108093314D01*
X136161727Y-107988005D01*
X136390535Y-107835120D01*
X136585120Y-107640535D01*
X136738005Y-107411727D01*
X136843314Y-107157490D01*
X136897000Y-106887592D01*
X136897000Y-106612408D01*
X136843314Y-106342510D01*
X136738005Y-106088273D01*
X136585120Y-105859465D01*
X136390535Y-105664880D01*
X136161727Y-105511995D01*
X136084485Y-105480000D01*
X136161727Y-105448005D01*
X136390535Y-105295120D01*
X136585120Y-105100535D01*
X136738005Y-104871727D01*
X136843314Y-104617490D01*
X136897000Y-104347592D01*
X136897000Y-104072408D01*
X136843314Y-103802510D01*
X136738005Y-103548273D01*
X136585120Y-103319465D01*
X136390535Y-103124880D01*
X136161727Y-102971995D01*
X135907490Y-102866686D01*
X135637592Y-102813000D01*
X135362408Y-102813000D01*
X135092510Y-102866686D01*
X134838273Y-102971995D01*
X134609465Y-103124880D01*
X134414880Y-103319465D01*
X134261995Y-103548273D01*
X134156686Y-103802510D01*
X134103000Y-104072408D01*
X132590299Y-104072408D01*
X132584485Y-104070000D01*
X132661727Y-104038005D01*
X132890535Y-103885120D01*
X133085120Y-103690535D01*
X133238005Y-103461727D01*
X133343314Y-103207490D01*
X133397000Y-102937592D01*
X133397000Y-102662408D01*
X133343314Y-102392510D01*
X133238005Y-102138273D01*
X133085120Y-101909465D01*
X132890535Y-101714880D01*
X132661727Y-101561995D01*
X132584485Y-101530000D01*
X132661727Y-101498005D01*
X132890535Y-101345120D01*
X133085120Y-101150535D01*
X133238005Y-100921727D01*
X133343314Y-100667490D01*
X133397000Y-100397592D01*
X133397000Y-100122408D01*
X133343314Y-99852510D01*
X133238005Y-99598273D01*
X133085120Y-99369465D01*
X132890535Y-99174880D01*
X132661727Y-99021995D01*
X132584485Y-98990000D01*
X132661727Y-98958005D01*
X132890535Y-98805120D01*
X133085120Y-98610535D01*
X133238005Y-98381727D01*
X133343314Y-98127490D01*
X133397000Y-97857592D01*
X133397000Y-97582408D01*
X133343314Y-97312510D01*
X133238005Y-97058273D01*
X133085120Y-96829465D01*
X132890535Y-96634880D01*
X132661727Y-96481995D01*
X132584485Y-96450000D01*
X132661727Y-96418005D01*
X132890535Y-96265120D01*
X133085120Y-96070535D01*
X133238005Y-95841727D01*
X133343314Y-95587490D01*
X133397000Y-95317592D01*
X133397000Y-95042408D01*
X133343314Y-94772510D01*
X133238005Y-94518273D01*
X133085120Y-94289465D01*
X132890535Y-94094880D01*
X132661727Y-93941995D01*
X132584485Y-93910000D01*
X132661727Y-93878005D01*
X132890535Y-93725120D01*
X133085120Y-93530535D01*
X133197459Y-93362408D01*
X134103000Y-93362408D01*
X134103000Y-93637592D01*
X134156686Y-93907490D01*
X134261995Y-94161727D01*
X134414880Y-94390535D01*
X134609465Y-94585120D01*
X134838273Y-94738005D01*
X134915515Y-94770000D01*
X134838273Y-94801995D01*
X134609465Y-94954880D01*
X134414880Y-95149465D01*
X134261995Y-95378273D01*
X134156686Y-95632510D01*
X134103000Y-95902408D01*
X134103000Y-96177592D01*
X134156686Y-96447490D01*
X134261995Y-96701727D01*
X134414880Y-96930535D01*
X134609465Y-97125120D01*
X134838273Y-97278005D01*
X135092510Y-97383314D01*
X135362408Y-97437000D01*
X135637592Y-97437000D01*
X135907490Y-97383314D01*
X136161727Y-97278005D01*
X136390535Y-97125120D01*
X136585120Y-96930535D01*
X136738005Y-96701727D01*
X136843314Y-96447490D01*
X136897000Y-96177592D01*
X136897000Y-95902408D01*
X136843314Y-95632510D01*
X136738005Y-95378273D01*
X136585120Y-95149465D01*
X136390535Y-94954880D01*
X136161727Y-94801995D01*
X136084485Y-94770000D01*
X136161727Y-94738005D01*
X136390535Y-94585120D01*
X136585120Y-94390535D01*
X136738005Y-94161727D01*
X136843314Y-93907490D01*
X136897000Y-93637592D01*
X136897000Y-93362408D01*
X136843314Y-93092510D01*
X136738005Y-92838273D01*
X136585120Y-92609465D01*
X136390535Y-92414880D01*
X136161727Y-92261995D01*
X135907490Y-92156686D01*
X135637592Y-92103000D01*
X135362408Y-92103000D01*
X135092510Y-92156686D01*
X134838273Y-92261995D01*
X134609465Y-92414880D01*
X134414880Y-92609465D01*
X134261995Y-92838273D01*
X134156686Y-93092510D01*
X134103000Y-93362408D01*
X133197459Y-93362408D01*
X133238005Y-93301727D01*
X133343314Y-93047490D01*
X133397000Y-92777592D01*
X133397000Y-92502408D01*
X133343314Y-92232510D01*
X133238005Y-91978273D01*
X133085120Y-91749465D01*
X132890535Y-91554880D01*
X132661727Y-91401995D01*
X132584485Y-91370000D01*
X132661727Y-91338005D01*
X132890535Y-91185120D01*
X133085120Y-90990535D01*
X133238005Y-90761727D01*
X133343314Y-90507490D01*
X133397000Y-90237592D01*
X133397000Y-89962408D01*
X133343314Y-89692510D01*
X133238005Y-89438273D01*
X133085120Y-89209465D01*
X132890535Y-89014880D01*
X132661727Y-88861995D01*
X132584485Y-88830000D01*
X132661727Y-88798005D01*
X132890535Y-88645120D01*
X133085120Y-88450535D01*
X133238005Y-88221727D01*
X133343314Y-87967490D01*
X133397000Y-87697592D01*
X133397000Y-87422408D01*
X146603000Y-87422408D01*
X146603000Y-87697592D01*
X146656686Y-87967490D01*
X146761995Y-88221727D01*
X146914880Y-88450535D01*
X147109465Y-88645120D01*
X147338273Y-88798005D01*
X147415515Y-88830000D01*
X147338273Y-88861995D01*
X147109465Y-89014880D01*
X146914880Y-89209465D01*
X146761995Y-89438273D01*
X146656686Y-89692510D01*
X146603000Y-89962408D01*
X146603000Y-90237592D01*
X146656686Y-90507490D01*
X146761995Y-90761727D01*
X146914880Y-90990535D01*
X147109465Y-91185120D01*
X147338273Y-91338005D01*
X147415515Y-91370000D01*
X147338273Y-91401995D01*
X147109465Y-91554880D01*
X146914880Y-91749465D01*
X146761995Y-91978273D01*
X146656686Y-92232510D01*
X146603000Y-92502408D01*
X146603000Y-92777592D01*
X146656686Y-93047490D01*
X146761995Y-93301727D01*
X146914880Y-93530535D01*
X147109465Y-93725120D01*
X147338273Y-93878005D01*
X147415515Y-93910000D01*
X147338273Y-93941995D01*
X147109465Y-94094880D01*
X146914880Y-94289465D01*
X146761995Y-94518273D01*
X146656686Y-94772510D01*
X146603000Y-95042408D01*
X146603000Y-95317592D01*
X146656686Y-95587490D01*
X146761995Y-95841727D01*
X146914880Y-96070535D01*
X147109465Y-96265120D01*
X147338273Y-96418005D01*
X147415515Y-96450000D01*
X147338273Y-96481995D01*
X147109465Y-96634880D01*
X146914880Y-96829465D01*
X146761995Y-97058273D01*
X146656686Y-97312510D01*
X146603000Y-97582408D01*
X146603000Y-97857592D01*
X146656686Y-98127490D01*
X146761995Y-98381727D01*
X146914880Y-98610535D01*
X147109465Y-98805120D01*
X147338273Y-98958005D01*
X147415515Y-98990000D01*
X147338273Y-99021995D01*
X147109465Y-99174880D01*
X146914880Y-99369465D01*
X146761995Y-99598273D01*
X146656686Y-99852510D01*
X146603000Y-100122408D01*
X146603000Y-100397592D01*
X146656686Y-100667490D01*
X146761995Y-100921727D01*
X146914880Y-101150535D01*
X147109465Y-101345120D01*
X147338273Y-101498005D01*
X147415515Y-101530000D01*
X147338273Y-101561995D01*
X147109465Y-101714880D01*
X146914880Y-101909465D01*
X146761995Y-102138273D01*
X146656686Y-102392510D01*
X146603000Y-102662408D01*
X146603000Y-102937592D01*
X146656686Y-103207490D01*
X146761995Y-103461727D01*
X146914880Y-103690535D01*
X147109465Y-103885120D01*
X147338273Y-104038005D01*
X147415515Y-104070000D01*
X147338273Y-104101995D01*
X147109465Y-104254880D01*
X146914880Y-104449465D01*
X146761995Y-104678273D01*
X146656686Y-104932510D01*
X146603000Y-105202408D01*
X146603000Y-105477592D01*
X146656686Y-105747490D01*
X146761995Y-106001727D01*
X146914880Y-106230535D01*
X147109465Y-106425120D01*
X147338273Y-106578005D01*
X147415515Y-106610000D01*
X147338273Y-106641995D01*
X147109465Y-106794880D01*
X146914880Y-106989465D01*
X146761995Y-107218273D01*
X146656686Y-107472510D01*
X146603000Y-107742408D01*
X146603000Y-108017592D01*
X146656686Y-108287490D01*
X146761995Y-108541727D01*
X146914880Y-108770535D01*
X147109465Y-108965120D01*
X147338273Y-109118005D01*
X147415515Y-109150000D01*
X147338273Y-109181995D01*
X147109465Y-109334880D01*
X146914880Y-109529465D01*
X146761995Y-109758273D01*
X146656686Y-110012510D01*
X146603000Y-110282408D01*
X146603000Y-110557592D01*
X146656686Y-110827490D01*
X146761995Y-111081727D01*
X146914880Y-111310535D01*
X147109465Y-111505120D01*
X147338273Y-111658005D01*
X147415515Y-111690000D01*
X147338273Y-111721995D01*
X147109465Y-111874880D01*
X146914880Y-112069465D01*
X146761995Y-112298273D01*
X146656686Y-112552510D01*
X146603000Y-112822408D01*
X146603000Y-113097592D01*
X146656686Y-113367490D01*
X146761995Y-113621727D01*
X146914880Y-113850535D01*
X147109465Y-114045120D01*
X147338273Y-114198005D01*
X147415515Y-114230000D01*
X147338273Y-114261995D01*
X147109465Y-114414880D01*
X146914880Y-114609465D01*
X146761995Y-114838273D01*
X146656686Y-115092510D01*
X146603000Y-115362408D01*
X146603000Y-115637592D01*
X146656686Y-115907490D01*
X146761995Y-116161727D01*
X146914880Y-116390535D01*
X147109465Y-116585120D01*
X147338273Y-116738005D01*
X147592510Y-116843314D01*
X147862408Y-116897000D01*
X148137592Y-116897000D01*
X148407490Y-116843314D01*
X148661727Y-116738005D01*
X148890535Y-116585120D01*
X149085120Y-116390535D01*
X149238005Y-116161727D01*
X149343314Y-115907490D01*
X149397000Y-115637592D01*
X149397000Y-115362408D01*
X149343314Y-115092510D01*
X149238005Y-114838273D01*
X149085120Y-114609465D01*
X148890535Y-114414880D01*
X148661727Y-114261995D01*
X148584485Y-114230000D01*
X148661727Y-114198005D01*
X148890535Y-114045120D01*
X149085120Y-113850535D01*
X149238005Y-113621727D01*
X149343314Y-113367490D01*
X149397000Y-113097592D01*
X149397000Y-112822408D01*
X149343314Y-112552510D01*
X149238005Y-112298273D01*
X149085120Y-112069465D01*
X148890535Y-111874880D01*
X148661727Y-111721995D01*
X148584485Y-111690000D01*
X148661727Y-111658005D01*
X148890535Y-111505120D01*
X149085120Y-111310535D01*
X149238005Y-111081727D01*
X149343314Y-110827490D01*
X149397000Y-110557592D01*
X149397000Y-110282408D01*
X149343314Y-110012510D01*
X149238005Y-109758273D01*
X149085120Y-109529465D01*
X148890535Y-109334880D01*
X148661727Y-109181995D01*
X148584485Y-109150000D01*
X148661727Y-109118005D01*
X148890535Y-108965120D01*
X149085120Y-108770535D01*
X149238005Y-108541727D01*
X149343314Y-108287490D01*
X149397000Y-108017592D01*
X149397000Y-107742408D01*
X149343314Y-107472510D01*
X149238005Y-107218273D01*
X149085120Y-106989465D01*
X148890535Y-106794880D01*
X148661727Y-106641995D01*
X148584485Y-106610000D01*
X148661727Y-106578005D01*
X148890535Y-106425120D01*
X149085120Y-106230535D01*
X149238005Y-106001727D01*
X149343314Y-105747490D01*
X149397000Y-105477592D01*
X149397000Y-105202408D01*
X149343314Y-104932510D01*
X149238005Y-104678273D01*
X149085120Y-104449465D01*
X148890535Y-104254880D01*
X148661727Y-104101995D01*
X148584485Y-104070000D01*
X148661727Y-104038005D01*
X148890535Y-103885120D01*
X149085120Y-103690535D01*
X149238005Y-103461727D01*
X149343314Y-103207490D01*
X149397000Y-102937592D01*
X149397000Y-102662408D01*
X149343314Y-102392510D01*
X149238005Y-102138273D01*
X149085120Y-101909465D01*
X148890535Y-101714880D01*
X148661727Y-101561995D01*
X148584485Y-101530000D01*
X148661727Y-101498005D01*
X148890535Y-101345120D01*
X149085120Y-101150535D01*
X149238005Y-100921727D01*
X149343314Y-100667490D01*
X149397000Y-100397592D01*
X149397000Y-100122408D01*
X149343314Y-99852510D01*
X149238005Y-99598273D01*
X149085120Y-99369465D01*
X148890535Y-99174880D01*
X148661727Y-99021995D01*
X148584485Y-98990000D01*
X148661727Y-98958005D01*
X148890535Y-98805120D01*
X149085120Y-98610535D01*
X149238005Y-98381727D01*
X149343314Y-98127490D01*
X149397000Y-97857592D01*
X149397000Y-97582408D01*
X149343314Y-97312510D01*
X149238005Y-97058273D01*
X149085120Y-96829465D01*
X148890535Y-96634880D01*
X148661727Y-96481995D01*
X148584485Y-96450000D01*
X148661727Y-96418005D01*
X148890535Y-96265120D01*
X149085120Y-96070535D01*
X149238005Y-95841727D01*
X149343314Y-95587490D01*
X149397000Y-95317592D01*
X149397000Y-95042408D01*
X149343314Y-94772510D01*
X149238005Y-94518273D01*
X149085120Y-94289465D01*
X148890535Y-94094880D01*
X148661727Y-93941995D01*
X148584485Y-93910000D01*
X148661727Y-93878005D01*
X148890535Y-93725120D01*
X149085120Y-93530535D01*
X149238005Y-93301727D01*
X149343314Y-93047490D01*
X149397000Y-92777592D01*
X149397000Y-92502408D01*
X149343314Y-92232510D01*
X149238005Y-91978273D01*
X149085120Y-91749465D01*
X148890535Y-91554880D01*
X148661727Y-91401995D01*
X148584485Y-91370000D01*
X148661727Y-91338005D01*
X148890535Y-91185120D01*
X149085120Y-90990535D01*
X149238005Y-90761727D01*
X149343314Y-90507490D01*
X149397000Y-90237592D01*
X149397000Y-89962408D01*
X149343314Y-89692510D01*
X149238005Y-89438273D01*
X149085120Y-89209465D01*
X148890535Y-89014880D01*
X148661727Y-88861995D01*
X148584485Y-88830000D01*
X148661727Y-88798005D01*
X148890535Y-88645120D01*
X149085120Y-88450535D01*
X149238005Y-88221727D01*
X149343314Y-87967490D01*
X149397000Y-87697592D01*
X149397000Y-87422408D01*
X149343314Y-87152510D01*
X149238005Y-86898273D01*
X149085120Y-86669465D01*
X148890535Y-86474880D01*
X148661727Y-86321995D01*
X148407490Y-86216686D01*
X148137592Y-86163000D01*
X147862408Y-86163000D01*
X147592510Y-86216686D01*
X147338273Y-86321995D01*
X147109465Y-86474880D01*
X146914880Y-86669465D01*
X146761995Y-86898273D01*
X146656686Y-87152510D01*
X146603000Y-87422408D01*
X133397000Y-87422408D01*
X133343314Y-87152510D01*
X133238005Y-86898273D01*
X133085120Y-86669465D01*
X132890535Y-86474880D01*
X132661727Y-86321995D01*
X132407490Y-86216686D01*
X132137592Y-86163000D01*
X131862408Y-86163000D01*
X131592510Y-86216686D01*
X131338273Y-86321995D01*
X131109465Y-86474880D01*
X130914880Y-86669465D01*
X130761995Y-86898273D01*
X130656686Y-87152510D01*
X130603000Y-87422408D01*
X117127413Y-87422408D01*
X117188005Y-87331727D01*
X117293314Y-87077490D01*
X117347000Y-86807592D01*
X117347000Y-86532408D01*
X117293314Y-86262510D01*
X117188005Y-86008273D01*
X117035120Y-85779465D01*
X116840535Y-85584880D01*
X116611727Y-85431995D01*
X116534485Y-85400000D01*
X116611727Y-85368005D01*
X116840535Y-85215120D01*
X117035120Y-85020535D01*
X117188005Y-84791727D01*
X117293314Y-84537490D01*
X117347000Y-84267592D01*
X117347000Y-83992408D01*
X117293314Y-83722510D01*
X117188005Y-83468273D01*
X117035120Y-83239465D01*
X116840535Y-83044880D01*
X116611727Y-82891995D01*
X116357490Y-82786686D01*
X116087592Y-82733000D01*
X115812408Y-82733000D01*
X115542510Y-82786686D01*
X115288273Y-82891995D01*
X115059465Y-83044880D01*
X114864880Y-83239465D01*
X114711995Y-83468273D01*
X114606686Y-83722510D01*
X114553000Y-83992408D01*
X50127000Y-83992408D01*
X50127000Y-78012408D01*
X97653000Y-78012408D01*
X97653000Y-78287592D01*
X97706686Y-78557490D01*
X97811995Y-78811727D01*
X97964880Y-79040535D01*
X98159465Y-79235120D01*
X98388273Y-79388005D01*
X98642510Y-79493314D01*
X98912408Y-79547000D01*
X99187592Y-79547000D01*
X99457490Y-79493314D01*
X99711727Y-79388005D01*
X99940535Y-79235120D01*
X100135120Y-79040535D01*
X100288005Y-78811727D01*
X100393314Y-78557490D01*
X100447000Y-78287592D01*
X100447000Y-78012408D01*
X102103000Y-78012408D01*
X102103000Y-78287592D01*
X102156686Y-78557490D01*
X102261995Y-78811727D01*
X102414880Y-79040535D01*
X102609465Y-79235120D01*
X102838273Y-79388005D01*
X103092510Y-79493314D01*
X103362408Y-79547000D01*
X103637592Y-79547000D01*
X103907490Y-79493314D01*
X104161727Y-79388005D01*
X104390535Y-79235120D01*
X104585120Y-79040535D01*
X104738005Y-78811727D01*
X104843314Y-78557490D01*
X104897000Y-78287592D01*
X104897000Y-78012408D01*
X104843314Y-77742510D01*
X104738005Y-77488273D01*
X104585120Y-77259465D01*
X104390535Y-77064880D01*
X104161727Y-76911995D01*
X103907490Y-76806686D01*
X103637592Y-76753000D01*
X103362408Y-76753000D01*
X103092510Y-76806686D01*
X102838273Y-76911995D01*
X102609465Y-77064880D01*
X102414880Y-77259465D01*
X102261995Y-77488273D01*
X102156686Y-77742510D01*
X102103000Y-78012408D01*
X100447000Y-78012408D01*
X100393314Y-77742510D01*
X100288005Y-77488273D01*
X100135120Y-77259465D01*
X99940535Y-77064880D01*
X99711727Y-76911995D01*
X99457490Y-76806686D01*
X99187592Y-76753000D01*
X98912408Y-76753000D01*
X98642510Y-76806686D01*
X98388273Y-76911995D01*
X98159465Y-77064880D01*
X97964880Y-77259465D01*
X97811995Y-77488273D01*
X97706686Y-77742510D01*
X97653000Y-78012408D01*
X50127000Y-78012408D01*
X50127000Y-75858665D01*
X142565000Y-75858665D01*
X142565000Y-76141335D01*
X142620147Y-76418574D01*
X142728320Y-76679727D01*
X142885363Y-76914759D01*
X143085241Y-77114637D01*
X143320273Y-77271680D01*
X143581426Y-77379853D01*
X143858665Y-77435000D01*
X144141335Y-77435000D01*
X144418574Y-77379853D01*
X144679727Y-77271680D01*
X144914759Y-77114637D01*
X145114637Y-76914759D01*
X145271680Y-76679727D01*
X145379853Y-76418574D01*
X145435000Y-76141335D01*
X145435000Y-75858665D01*
X145379853Y-75581426D01*
X145271680Y-75320273D01*
X145114637Y-75085241D01*
X144914759Y-74885363D01*
X144679727Y-74728320D01*
X144418574Y-74620147D01*
X144141335Y-74565000D01*
X143858665Y-74565000D01*
X143581426Y-74620147D01*
X143320273Y-74728320D01*
X143085241Y-74885363D01*
X142885363Y-75085241D01*
X142728320Y-75320273D01*
X142620147Y-75581426D01*
X142565000Y-75858665D01*
X50127000Y-75858665D01*
X50127000Y-71184748D01*
X70420000Y-71184748D01*
X70420000Y-71935252D01*
X70566416Y-72671336D01*
X70853622Y-73364712D01*
X71270580Y-73988733D01*
X71801267Y-74519420D01*
X72425288Y-74936378D01*
X73118664Y-75223584D01*
X73854748Y-75370000D01*
X74605252Y-75370000D01*
X75341336Y-75223584D01*
X76034712Y-74936378D01*
X76658733Y-74519420D01*
X77189420Y-73988733D01*
X77606378Y-73364712D01*
X77893584Y-72671336D01*
X78040000Y-71935252D01*
X78040000Y-71184748D01*
X87946000Y-71184748D01*
X87946000Y-71935252D01*
X88092416Y-72671336D01*
X88379622Y-73364712D01*
X88796580Y-73988733D01*
X89327267Y-74519420D01*
X89951288Y-74936378D01*
X90644664Y-75223584D01*
X91380748Y-75370000D01*
X92131252Y-75370000D01*
X92867336Y-75223584D01*
X93560712Y-74936378D01*
X94184733Y-74519420D01*
X94715420Y-73988733D01*
X95132378Y-73364712D01*
X95419584Y-72671336D01*
X95566000Y-71935252D01*
X95566000Y-71862408D01*
X121103000Y-71862408D01*
X121103000Y-72137592D01*
X121156686Y-72407490D01*
X121261995Y-72661727D01*
X121414880Y-72890535D01*
X121609465Y-73085120D01*
X121838273Y-73238005D01*
X122092510Y-73343314D01*
X122362408Y-73397000D01*
X122637592Y-73397000D01*
X122907490Y-73343314D01*
X123161727Y-73238005D01*
X123390535Y-73085120D01*
X123585120Y-72890535D01*
X123738005Y-72661727D01*
X123750000Y-72632769D01*
X123761995Y-72661727D01*
X123914880Y-72890535D01*
X124109465Y-73085120D01*
X124338273Y-73238005D01*
X124592510Y-73343314D01*
X124862408Y-73397000D01*
X125137592Y-73397000D01*
X125407490Y-73343314D01*
X125661727Y-73238005D01*
X125890535Y-73085120D01*
X126010090Y-72965565D01*
X126714040Y-72965565D01*
X126781020Y-73205656D01*
X127030048Y-73322756D01*
X127297135Y-73389023D01*
X127572017Y-73401910D01*
X127844133Y-73360922D01*
X128103023Y-73267636D01*
X128218980Y-73205656D01*
X128285960Y-72965565D01*
X127500000Y-72179605D01*
X126714040Y-72965565D01*
X126010090Y-72965565D01*
X126085120Y-72890535D01*
X126238005Y-72661727D01*
X126249242Y-72634599D01*
X126294344Y-72718980D01*
X126534435Y-72785960D01*
X127320395Y-72000000D01*
X127679605Y-72000000D01*
X128465565Y-72785960D01*
X128705656Y-72718980D01*
X128748218Y-72628467D01*
X128761995Y-72661727D01*
X128914880Y-72890535D01*
X129109465Y-73085120D01*
X129338273Y-73238005D01*
X129592510Y-73343314D01*
X129862408Y-73397000D01*
X130137592Y-73397000D01*
X130407490Y-73343314D01*
X130661727Y-73238005D01*
X130890535Y-73085120D01*
X131085120Y-72890535D01*
X131238005Y-72661727D01*
X131250000Y-72632769D01*
X131261995Y-72661727D01*
X131414880Y-72890535D01*
X131609465Y-73085120D01*
X131838273Y-73238005D01*
X132092510Y-73343314D01*
X132362408Y-73397000D01*
X132637592Y-73397000D01*
X132907490Y-73343314D01*
X133161727Y-73238005D01*
X133390535Y-73085120D01*
X133585120Y-72890535D01*
X133738005Y-72661727D01*
X133750000Y-72632769D01*
X133761995Y-72661727D01*
X133914880Y-72890535D01*
X134109465Y-73085120D01*
X134338273Y-73238005D01*
X134592510Y-73343314D01*
X134862408Y-73397000D01*
X135137592Y-73397000D01*
X135407490Y-73343314D01*
X135661727Y-73238005D01*
X135890535Y-73085120D01*
X136085120Y-72890535D01*
X136238005Y-72661727D01*
X136250000Y-72632769D01*
X136261995Y-72661727D01*
X136414880Y-72890535D01*
X136609465Y-73085120D01*
X136838273Y-73238005D01*
X137092510Y-73343314D01*
X137362408Y-73397000D01*
X137637592Y-73397000D01*
X137907490Y-73343314D01*
X138161727Y-73238005D01*
X138390535Y-73085120D01*
X138585120Y-72890535D01*
X138738005Y-72661727D01*
X138843314Y-72407490D01*
X138897000Y-72137592D01*
X138897000Y-71992702D01*
X143186903Y-71992702D01*
X143258486Y-72236671D01*
X143513996Y-72357571D01*
X143788184Y-72426300D01*
X144070512Y-72440217D01*
X144350130Y-72398787D01*
X144616292Y-72303603D01*
X144741514Y-72236671D01*
X144813097Y-71992702D01*
X144000000Y-71179605D01*
X143186903Y-71992702D01*
X138897000Y-71992702D01*
X138897000Y-71862408D01*
X138843314Y-71592510D01*
X138738005Y-71338273D01*
X138585120Y-71109465D01*
X138546167Y-71070512D01*
X142559783Y-71070512D01*
X142601213Y-71350130D01*
X142696397Y-71616292D01*
X142763329Y-71741514D01*
X143007298Y-71813097D01*
X143820395Y-71000000D01*
X144179605Y-71000000D01*
X144992702Y-71813097D01*
X145236671Y-71741514D01*
X145357571Y-71486004D01*
X145426300Y-71211816D01*
X145440217Y-70929488D01*
X145398787Y-70649870D01*
X145303603Y-70383708D01*
X145236671Y-70258486D01*
X144992702Y-70186903D01*
X144179605Y-71000000D01*
X143820395Y-71000000D01*
X143007298Y-70186903D01*
X142763329Y-70258486D01*
X142642429Y-70513996D01*
X142573700Y-70788184D01*
X142559783Y-71070512D01*
X138546167Y-71070512D01*
X138390535Y-70914880D01*
X138161727Y-70761995D01*
X137907490Y-70656686D01*
X137637592Y-70603000D01*
X137362408Y-70603000D01*
X137092510Y-70656686D01*
X136838273Y-70761995D01*
X136609465Y-70914880D01*
X136414880Y-71109465D01*
X136261995Y-71338273D01*
X136250000Y-71367231D01*
X136238005Y-71338273D01*
X136085120Y-71109465D01*
X135890535Y-70914880D01*
X135661727Y-70761995D01*
X135407490Y-70656686D01*
X135137592Y-70603000D01*
X134862408Y-70603000D01*
X134592510Y-70656686D01*
X134338273Y-70761995D01*
X134109465Y-70914880D01*
X133914880Y-71109465D01*
X133761995Y-71338273D01*
X133750000Y-71367231D01*
X133738005Y-71338273D01*
X133585120Y-71109465D01*
X133390535Y-70914880D01*
X133161727Y-70761995D01*
X132907490Y-70656686D01*
X132637592Y-70603000D01*
X132362408Y-70603000D01*
X132092510Y-70656686D01*
X131838273Y-70761995D01*
X131609465Y-70914880D01*
X131414880Y-71109465D01*
X131261995Y-71338273D01*
X131250000Y-71367231D01*
X131238005Y-71338273D01*
X131085120Y-71109465D01*
X130890535Y-70914880D01*
X130661727Y-70761995D01*
X130407490Y-70656686D01*
X130137592Y-70603000D01*
X129862408Y-70603000D01*
X129592510Y-70656686D01*
X129338273Y-70761995D01*
X129109465Y-70914880D01*
X128914880Y-71109465D01*
X128761995Y-71338273D01*
X128750758Y-71365401D01*
X128705656Y-71281020D01*
X128465565Y-71214040D01*
X127679605Y-72000000D01*
X127320395Y-72000000D01*
X126534435Y-71214040D01*
X126294344Y-71281020D01*
X126251782Y-71371533D01*
X126238005Y-71338273D01*
X126085120Y-71109465D01*
X126010090Y-71034435D01*
X126714040Y-71034435D01*
X127500000Y-71820395D01*
X128285960Y-71034435D01*
X128218980Y-70794344D01*
X127969952Y-70677244D01*
X127702865Y-70610977D01*
X127427983Y-70598090D01*
X127155867Y-70639078D01*
X126896977Y-70732364D01*
X126781020Y-70794344D01*
X126714040Y-71034435D01*
X126010090Y-71034435D01*
X125890535Y-70914880D01*
X125661727Y-70761995D01*
X125407490Y-70656686D01*
X125137592Y-70603000D01*
X124862408Y-70603000D01*
X124592510Y-70656686D01*
X124338273Y-70761995D01*
X124109465Y-70914880D01*
X123914880Y-71109465D01*
X123761995Y-71338273D01*
X123750000Y-71367231D01*
X123738005Y-71338273D01*
X123585120Y-71109465D01*
X123390535Y-70914880D01*
X123161727Y-70761995D01*
X122907490Y-70656686D01*
X122637592Y-70603000D01*
X122362408Y-70603000D01*
X122092510Y-70656686D01*
X121838273Y-70761995D01*
X121609465Y-70914880D01*
X121414880Y-71109465D01*
X121261995Y-71338273D01*
X121156686Y-71592510D01*
X121103000Y-71862408D01*
X95566000Y-71862408D01*
X95566000Y-71184748D01*
X95419584Y-70448664D01*
X95236765Y-70007298D01*
X143186903Y-70007298D01*
X144000000Y-70820395D01*
X144813097Y-70007298D01*
X144741514Y-69763329D01*
X144486004Y-69642429D01*
X144211816Y-69573700D01*
X143929488Y-69559783D01*
X143649870Y-69601213D01*
X143383708Y-69696397D01*
X143258486Y-69763329D01*
X143186903Y-70007298D01*
X95236765Y-70007298D01*
X95132378Y-69755288D01*
X94715420Y-69131267D01*
X94184733Y-68600580D01*
X93560712Y-68183622D01*
X92867336Y-67896416D01*
X92131252Y-67750000D01*
X91380748Y-67750000D01*
X90644664Y-67896416D01*
X89951288Y-68183622D01*
X89327267Y-68600580D01*
X88796580Y-69131267D01*
X88379622Y-69755288D01*
X88092416Y-70448664D01*
X87946000Y-71184748D01*
X78040000Y-71184748D01*
X77893584Y-70448664D01*
X77606378Y-69755288D01*
X77189420Y-69131267D01*
X76658733Y-68600580D01*
X76034712Y-68183622D01*
X75341336Y-67896416D01*
X74605252Y-67750000D01*
X73854748Y-67750000D01*
X73118664Y-67896416D01*
X72425288Y-68183622D01*
X71801267Y-68600580D01*
X71270580Y-69131267D01*
X70853622Y-69755288D01*
X70566416Y-70448664D01*
X70420000Y-71184748D01*
X50127000Y-71184748D01*
X50127000Y-62858371D01*
X62723800Y-62858371D01*
X62723800Y-63243629D01*
X62798961Y-63621486D01*
X62946393Y-63977419D01*
X63160431Y-64297750D01*
X63432850Y-64570169D01*
X63753181Y-64784207D01*
X64109114Y-64931639D01*
X64486971Y-65006800D01*
X64872229Y-65006800D01*
X65250086Y-64931639D01*
X65606019Y-64784207D01*
X65926350Y-64570169D01*
X66198769Y-64297750D01*
X66412807Y-63977419D01*
X66560239Y-63621486D01*
X66635400Y-63243629D01*
X66635400Y-62858371D01*
X81850000Y-62858371D01*
X81850000Y-63243629D01*
X81925161Y-63621486D01*
X82072593Y-63977419D01*
X82286631Y-64297750D01*
X82559050Y-64570169D01*
X82879381Y-64784207D01*
X83235314Y-64931639D01*
X83613171Y-65006800D01*
X83998429Y-65006800D01*
X84376286Y-64931639D01*
X84732219Y-64784207D01*
X85052550Y-64570169D01*
X85324969Y-64297750D01*
X85539007Y-63977419D01*
X85686439Y-63621486D01*
X85761600Y-63243629D01*
X85761600Y-62858371D01*
X85686439Y-62480514D01*
X85539007Y-62124581D01*
X85324969Y-61804250D01*
X85052550Y-61531831D01*
X84732219Y-61317793D01*
X84376286Y-61170361D01*
X83998429Y-61095200D01*
X83613171Y-61095200D01*
X83235314Y-61170361D01*
X82879381Y-61317793D01*
X82559050Y-61531831D01*
X82286631Y-61804250D01*
X82072593Y-62124581D01*
X81925161Y-62480514D01*
X81850000Y-62858371D01*
X66635400Y-62858371D01*
X66560239Y-62480514D01*
X66412807Y-62124581D01*
X66198769Y-61804250D01*
X65926350Y-61531831D01*
X65606019Y-61317793D01*
X65250086Y-61170361D01*
X64872229Y-61095200D01*
X64486971Y-61095200D01*
X64109114Y-61170361D01*
X63753181Y-61317793D01*
X63432850Y-61531831D01*
X63160431Y-61804250D01*
X62946393Y-62124581D01*
X62798961Y-62480514D01*
X62723800Y-62858371D01*
X50127000Y-62858371D01*
X50127000Y-58608665D01*
X102065000Y-58608665D01*
X102065000Y-58891335D01*
X102120147Y-59168574D01*
X102228320Y-59429727D01*
X102385363Y-59664759D01*
X102585241Y-59864637D01*
X102820273Y-60021680D01*
X103081426Y-60129853D01*
X103358665Y-60185000D01*
X103641335Y-60185000D01*
X103918574Y-60129853D01*
X104179727Y-60021680D01*
X104414759Y-59864637D01*
X104614637Y-59664759D01*
X104771680Y-59429727D01*
X104879853Y-59168574D01*
X104935000Y-58891335D01*
X104935000Y-58608665D01*
X104879853Y-58331426D01*
X104771680Y-58070273D01*
X104614637Y-57835241D01*
X104414759Y-57635363D01*
X104179727Y-57478320D01*
X103918574Y-57370147D01*
X103641335Y-57315000D01*
X103358665Y-57315000D01*
X103081426Y-57370147D01*
X102820273Y-57478320D01*
X102585241Y-57635363D01*
X102385363Y-57835241D01*
X102228320Y-58070273D01*
X102120147Y-58331426D01*
X102065000Y-58608665D01*
X50127000Y-58608665D01*
X50127000Y-54122285D01*
X50665000Y-54122285D01*
X50665000Y-54877715D01*
X50812377Y-55618628D01*
X51101467Y-56316554D01*
X51521161Y-56944670D01*
X52055330Y-57478839D01*
X52683446Y-57898533D01*
X53381372Y-58187623D01*
X54122285Y-58335000D01*
X54877715Y-58335000D01*
X55618628Y-58187623D01*
X56316554Y-57898533D01*
X56944670Y-57478839D01*
X57478839Y-56944670D01*
X57898533Y-56316554D01*
X58153917Y-55700000D01*
X95811928Y-55700000D01*
X95811928Y-57300000D01*
X95824188Y-57424482D01*
X95860498Y-57544180D01*
X95919463Y-57654494D01*
X95998815Y-57751185D01*
X96095506Y-57830537D01*
X96205820Y-57889502D01*
X96325518Y-57925812D01*
X96450000Y-57938072D01*
X98050000Y-57938072D01*
X98174482Y-57925812D01*
X98294180Y-57889502D01*
X98404494Y-57830537D01*
X98501185Y-57751185D01*
X98580537Y-57654494D01*
X98639502Y-57544180D01*
X98675812Y-57424482D01*
X98688072Y-57300000D01*
X98688072Y-55700000D01*
X98675812Y-55575518D01*
X98639502Y-55455820D01*
X98580537Y-55345506D01*
X98501185Y-55248815D01*
X98404494Y-55169463D01*
X98294180Y-55110498D01*
X98198057Y-55081339D01*
X98364637Y-54914759D01*
X98521680Y-54679727D01*
X98629853Y-54418574D01*
X98685000Y-54141335D01*
X98685000Y-53858665D01*
X98635272Y-53608665D01*
X102065000Y-53608665D01*
X102065000Y-53891335D01*
X102120147Y-54168574D01*
X102228320Y-54429727D01*
X102385363Y-54664759D01*
X102585241Y-54864637D01*
X102820273Y-55021680D01*
X103081426Y-55129853D01*
X103358665Y-55185000D01*
X103641335Y-55185000D01*
X103918574Y-55129853D01*
X104179727Y-55021680D01*
X104414759Y-54864637D01*
X104614637Y-54664759D01*
X104771680Y-54429727D01*
X104879853Y-54168574D01*
X104889060Y-54122285D01*
X141665000Y-54122285D01*
X141665000Y-54877715D01*
X141812377Y-55618628D01*
X142101467Y-56316554D01*
X142521161Y-56944670D01*
X143055330Y-57478839D01*
X143683446Y-57898533D01*
X144381372Y-58187623D01*
X145122285Y-58335000D01*
X145877715Y-58335000D01*
X146618628Y-58187623D01*
X147316554Y-57898533D01*
X147944670Y-57478839D01*
X148478839Y-56944670D01*
X148898533Y-56316554D01*
X149187623Y-55618628D01*
X149335000Y-54877715D01*
X149335000Y-54122285D01*
X149187623Y-53381372D01*
X148898533Y-52683446D01*
X148478839Y-52055330D01*
X147944670Y-51521161D01*
X147316554Y-51101467D01*
X146618628Y-50812377D01*
X145877715Y-50665000D01*
X145122285Y-50665000D01*
X144381372Y-50812377D01*
X143683446Y-51101467D01*
X143055330Y-51521161D01*
X142521161Y-52055330D01*
X142101467Y-52683446D01*
X141812377Y-53381372D01*
X141665000Y-54122285D01*
X104889060Y-54122285D01*
X104935000Y-53891335D01*
X104935000Y-53608665D01*
X104879853Y-53331426D01*
X104771680Y-53070273D01*
X104614637Y-52835241D01*
X104414759Y-52635363D01*
X104179727Y-52478320D01*
X103918574Y-52370147D01*
X103641335Y-52315000D01*
X103358665Y-52315000D01*
X103081426Y-52370147D01*
X102820273Y-52478320D01*
X102585241Y-52635363D01*
X102385363Y-52835241D01*
X102228320Y-53070273D01*
X102120147Y-53331426D01*
X102065000Y-53608665D01*
X98635272Y-53608665D01*
X98629853Y-53581426D01*
X98521680Y-53320273D01*
X98364637Y-53085241D01*
X98164759Y-52885363D01*
X97929727Y-52728320D01*
X97668574Y-52620147D01*
X97391335Y-52565000D01*
X97108665Y-52565000D01*
X96831426Y-52620147D01*
X96570273Y-52728320D01*
X96335241Y-52885363D01*
X96135363Y-53085241D01*
X95978320Y-53320273D01*
X95870147Y-53581426D01*
X95815000Y-53858665D01*
X95815000Y-54141335D01*
X95870147Y-54418574D01*
X95978320Y-54679727D01*
X96135363Y-54914759D01*
X96301943Y-55081339D01*
X96205820Y-55110498D01*
X96095506Y-55169463D01*
X95998815Y-55248815D01*
X95919463Y-55345506D01*
X95860498Y-55455820D01*
X95824188Y-55575518D01*
X95811928Y-55700000D01*
X58153917Y-55700000D01*
X58187623Y-55618628D01*
X58335000Y-54877715D01*
X58335000Y-54122285D01*
X58187623Y-53381372D01*
X57898533Y-52683446D01*
X57478839Y-52055330D01*
X56944670Y-51521161D01*
X56316554Y-51101467D01*
X55618628Y-50812377D01*
X54877715Y-50665000D01*
X54122285Y-50665000D01*
X53381372Y-50812377D01*
X52683446Y-51101467D01*
X52055330Y-51521161D01*
X51521161Y-52055330D01*
X51101467Y-52683446D01*
X50812377Y-53381372D01*
X50665000Y-54122285D01*
X50127000Y-54122285D01*
X50127000Y-50127000D01*
X149872364Y-50127000D01*
X149373634Y-149873000D01*
%TA.AperFunction,Conductor*%
D21*
G36*
X149373634Y-149873000D02*
G01*
X50127000Y-149873000D01*
X50127000Y-145122285D01*
X50665000Y-145122285D01*
X50665000Y-145877715D01*
X50812377Y-146618628D01*
X51101467Y-147316554D01*
X51521161Y-147944670D01*
X52055330Y-148478839D01*
X52683446Y-148898533D01*
X53381372Y-149187623D01*
X54122285Y-149335000D01*
X54877715Y-149335000D01*
X55618628Y-149187623D01*
X56316554Y-148898533D01*
X56944670Y-148478839D01*
X57311101Y-148112408D01*
X115178000Y-148112408D01*
X115178000Y-148387592D01*
X115231686Y-148657490D01*
X115336995Y-148911727D01*
X115489880Y-149140535D01*
X115684465Y-149335120D01*
X115913273Y-149488005D01*
X116167510Y-149593314D01*
X116437408Y-149647000D01*
X116712592Y-149647000D01*
X116982490Y-149593314D01*
X117236727Y-149488005D01*
X117465535Y-149335120D01*
X117660120Y-149140535D01*
X117813005Y-148911727D01*
X117918314Y-148657490D01*
X117972000Y-148387592D01*
X117972000Y-148112408D01*
X121528000Y-148112408D01*
X121528000Y-148387592D01*
X121581686Y-148657490D01*
X121686995Y-148911727D01*
X121839880Y-149140535D01*
X122034465Y-149335120D01*
X122263273Y-149488005D01*
X122517510Y-149593314D01*
X122787408Y-149647000D01*
X123062592Y-149647000D01*
X123332490Y-149593314D01*
X123586727Y-149488005D01*
X123815535Y-149335120D01*
X124010120Y-149140535D01*
X124163005Y-148911727D01*
X124268314Y-148657490D01*
X124322000Y-148387592D01*
X124322000Y-148112408D01*
X124268314Y-147842510D01*
X124184666Y-147640565D01*
X124714040Y-147640565D01*
X124781020Y-147880656D01*
X125030048Y-147997756D01*
X125297135Y-148064023D01*
X125572017Y-148076910D01*
X125844133Y-148035922D01*
X126103023Y-147942636D01*
X126218980Y-147880656D01*
X126285960Y-147640565D01*
X125500000Y-146854605D01*
X124714040Y-147640565D01*
X124184666Y-147640565D01*
X124163005Y-147588273D01*
X124010120Y-147359465D01*
X123815535Y-147164880D01*
X123586727Y-147011995D01*
X123332490Y-146906686D01*
X123062592Y-146853000D01*
X122787408Y-146853000D01*
X122517510Y-146906686D01*
X122263273Y-147011995D01*
X122034465Y-147164880D01*
X121839880Y-147359465D01*
X121686995Y-147588273D01*
X121581686Y-147842510D01*
X121528000Y-148112408D01*
X117972000Y-148112408D01*
X117918314Y-147842510D01*
X117813005Y-147588273D01*
X117660120Y-147359465D01*
X117465535Y-147164880D01*
X117236727Y-147011995D01*
X116982490Y-146906686D01*
X116712592Y-146853000D01*
X116437408Y-146853000D01*
X116167510Y-146906686D01*
X115913273Y-147011995D01*
X115684465Y-147164880D01*
X115489880Y-147359465D01*
X115336995Y-147588273D01*
X115231686Y-147842510D01*
X115178000Y-148112408D01*
X57311101Y-148112408D01*
X57478839Y-147944670D01*
X57898533Y-147316554D01*
X58134442Y-146747017D01*
X124098090Y-146747017D01*
X124139078Y-147019133D01*
X124232364Y-147278023D01*
X124294344Y-147393980D01*
X124534435Y-147460960D01*
X125320395Y-146675000D01*
X125679605Y-146675000D01*
X126465565Y-147460960D01*
X126705656Y-147393980D01*
X126822756Y-147144952D01*
X126889023Y-146877865D01*
X126901910Y-146602983D01*
X126860922Y-146330867D01*
X126767636Y-146071977D01*
X126705656Y-145956020D01*
X126465565Y-145889040D01*
X125679605Y-146675000D01*
X125320395Y-146675000D01*
X124534435Y-145889040D01*
X124294344Y-145956020D01*
X124177244Y-146205048D01*
X124110977Y-146472135D01*
X124098090Y-146747017D01*
X58134442Y-146747017D01*
X58187623Y-146618628D01*
X58335000Y-145877715D01*
X58335000Y-145122285D01*
X58187623Y-144381372D01*
X58178218Y-144358665D01*
X84065000Y-144358665D01*
X84065000Y-144641335D01*
X84120147Y-144918574D01*
X84228320Y-145179727D01*
X84385363Y-145414759D01*
X84585241Y-145614637D01*
X84820273Y-145771680D01*
X85081426Y-145879853D01*
X85358665Y-145935000D01*
X85641335Y-145935000D01*
X85918574Y-145879853D01*
X86179727Y-145771680D01*
X86414759Y-145614637D01*
X86536694Y-145492702D01*
X89686903Y-145492702D01*
X89758486Y-145736671D01*
X90013996Y-145857571D01*
X90288184Y-145926300D01*
X90570512Y-145940217D01*
X90850130Y-145898787D01*
X91116292Y-145803603D01*
X91241514Y-145736671D01*
X91249505Y-145709435D01*
X124714040Y-145709435D01*
X125500000Y-146495395D01*
X126285960Y-145709435D01*
X126218980Y-145469344D01*
X125969952Y-145352244D01*
X125702865Y-145285977D01*
X125427983Y-145273090D01*
X125155867Y-145314078D01*
X124896977Y-145407364D01*
X124781020Y-145469344D01*
X124714040Y-145709435D01*
X91249505Y-145709435D01*
X91313097Y-145492702D01*
X90500000Y-144679605D01*
X89686903Y-145492702D01*
X86536694Y-145492702D01*
X86614637Y-145414759D01*
X86771680Y-145179727D01*
X86879853Y-144918574D01*
X86935000Y-144641335D01*
X86935000Y-144570512D01*
X89059783Y-144570512D01*
X89101213Y-144850130D01*
X89196397Y-145116292D01*
X89263329Y-145241514D01*
X89507298Y-145313097D01*
X90320395Y-144500000D01*
X90679605Y-144500000D01*
X91492702Y-145313097D01*
X91736671Y-145241514D01*
X91857571Y-144986004D01*
X91926300Y-144711816D01*
X91940217Y-144429488D01*
X91898787Y-144149870D01*
X91803603Y-143883708D01*
X91736671Y-143758486D01*
X91492702Y-143686903D01*
X90679605Y-144500000D01*
X90320395Y-144500000D01*
X89507298Y-143686903D01*
X89263329Y-143758486D01*
X89142429Y-144013996D01*
X89073700Y-144288184D01*
X89059783Y-144570512D01*
X86935000Y-144570512D01*
X86935000Y-144358665D01*
X86879853Y-144081426D01*
X86771680Y-143820273D01*
X86614637Y-143585241D01*
X86536694Y-143507298D01*
X89686903Y-143507298D01*
X90500000Y-144320395D01*
X91313097Y-143507298D01*
X91241514Y-143263329D01*
X90986004Y-143142429D01*
X90711816Y-143073700D01*
X90429488Y-143059783D01*
X90149870Y-143101213D01*
X89883708Y-143196397D01*
X89758486Y-143263329D01*
X89686903Y-143507298D01*
X86536694Y-143507298D01*
X86414759Y-143385363D01*
X86179727Y-143228320D01*
X85918574Y-143120147D01*
X85641335Y-143065000D01*
X85358665Y-143065000D01*
X85081426Y-143120147D01*
X84820273Y-143228320D01*
X84585241Y-143385363D01*
X84385363Y-143585241D01*
X84228320Y-143820273D01*
X84120147Y-144081426D01*
X84065000Y-144358665D01*
X58178218Y-144358665D01*
X57898533Y-143683446D01*
X57478839Y-143055330D01*
X56944670Y-142521161D01*
X56316554Y-142101467D01*
X55618628Y-141812377D01*
X54877715Y-141665000D01*
X54122285Y-141665000D01*
X53381372Y-141812377D01*
X52683446Y-142101467D01*
X52055330Y-142521161D01*
X51521161Y-143055330D01*
X51101467Y-143683446D01*
X50812377Y-144381372D01*
X50665000Y-145122285D01*
X50127000Y-145122285D01*
X50127000Y-139450000D01*
X118561928Y-139450000D01*
X118561928Y-141050000D01*
X118574188Y-141174482D01*
X118610498Y-141294180D01*
X118669463Y-141404494D01*
X118748815Y-141501185D01*
X118845506Y-141580537D01*
X118955820Y-141639502D01*
X119075518Y-141675812D01*
X119200000Y-141688072D01*
X120800000Y-141688072D01*
X120924482Y-141675812D01*
X121044180Y-141639502D01*
X121154494Y-141580537D01*
X121251185Y-141501185D01*
X121330537Y-141404494D01*
X121389502Y-141294180D01*
X121425812Y-141174482D01*
X121438072Y-141050000D01*
X121438072Y-140187408D01*
X124103000Y-140187408D01*
X124103000Y-140462592D01*
X124156686Y-140732490D01*
X124261995Y-140986727D01*
X124414880Y-141215535D01*
X124609465Y-141410120D01*
X124838273Y-141563005D01*
X125092510Y-141668314D01*
X125362408Y-141722000D01*
X125637592Y-141722000D01*
X125907490Y-141668314D01*
X126161727Y-141563005D01*
X126330850Y-141450000D01*
X133061928Y-141450000D01*
X133061928Y-144050000D01*
X133074188Y-144174482D01*
X133110498Y-144294180D01*
X133169463Y-144404494D01*
X133248815Y-144501185D01*
X133345506Y-144580537D01*
X133455820Y-144639502D01*
X133575518Y-144675812D01*
X133700000Y-144688072D01*
X133854682Y-144688072D01*
X133766509Y-144746987D01*
X133496987Y-145016509D01*
X133285225Y-145333434D01*
X133139361Y-145685581D01*
X133065000Y-146059419D01*
X133065000Y-146440581D01*
X133139361Y-146814419D01*
X133285225Y-147166566D01*
X133496987Y-147483491D01*
X133766509Y-147753013D01*
X134083434Y-147964775D01*
X134435581Y-148110639D01*
X134809419Y-148185000D01*
X135190581Y-148185000D01*
X135564419Y-148110639D01*
X135916566Y-147964775D01*
X136233491Y-147753013D01*
X136503013Y-147483491D01*
X136714775Y-147166566D01*
X136860639Y-146814419D01*
X136935000Y-146440581D01*
X136935000Y-146059419D01*
X136860639Y-145685581D01*
X136714775Y-145333434D01*
X136573691Y-145122285D01*
X141665000Y-145122285D01*
X141665000Y-145877715D01*
X141812377Y-146618628D01*
X142101467Y-147316554D01*
X142521161Y-147944670D01*
X143055330Y-148478839D01*
X143683446Y-148898533D01*
X144381372Y-149187623D01*
X145122285Y-149335000D01*
X145877715Y-149335000D01*
X146618628Y-149187623D01*
X147316554Y-148898533D01*
X147944670Y-148478839D01*
X148478839Y-147944670D01*
X148898533Y-147316554D01*
X149187623Y-146618628D01*
X149335000Y-145877715D01*
X149335000Y-145122285D01*
X149187623Y-144381372D01*
X148898533Y-143683446D01*
X148478839Y-143055330D01*
X147944670Y-142521161D01*
X147316554Y-142101467D01*
X146618628Y-141812377D01*
X145877715Y-141665000D01*
X145122285Y-141665000D01*
X144381372Y-141812377D01*
X143683446Y-142101467D01*
X143055330Y-142521161D01*
X142521161Y-143055330D01*
X142101467Y-143683446D01*
X141812377Y-144381372D01*
X141665000Y-145122285D01*
X136573691Y-145122285D01*
X136503013Y-145016509D01*
X136233491Y-144746987D01*
X136145318Y-144688072D01*
X136300000Y-144688072D01*
X136424482Y-144675812D01*
X136544180Y-144639502D01*
X136654494Y-144580537D01*
X136751185Y-144501185D01*
X136830537Y-144404494D01*
X136889502Y-144294180D01*
X136925812Y-144174482D01*
X136938072Y-144050000D01*
X136938072Y-141450000D01*
X136925812Y-141325518D01*
X136889502Y-141205820D01*
X136830537Y-141095506D01*
X136751185Y-140998815D01*
X136654494Y-140919463D01*
X136544180Y-140860498D01*
X136424482Y-140824188D01*
X136300000Y-140811928D01*
X133700000Y-140811928D01*
X133575518Y-140824188D01*
X133455820Y-140860498D01*
X133345506Y-140919463D01*
X133248815Y-140998815D01*
X133169463Y-141095506D01*
X133110498Y-141205820D01*
X133074188Y-141325518D01*
X133061928Y-141450000D01*
X126330850Y-141450000D01*
X126390535Y-141410120D01*
X126585120Y-141215535D01*
X126738005Y-140986727D01*
X126843314Y-140732490D01*
X126897000Y-140462592D01*
X126897000Y-140187408D01*
X126843314Y-139917510D01*
X126738005Y-139663273D01*
X126585120Y-139434465D01*
X126390535Y-139239880D01*
X126161727Y-139086995D01*
X125907490Y-138981686D01*
X125637592Y-138928000D01*
X125362408Y-138928000D01*
X125092510Y-138981686D01*
X124838273Y-139086995D01*
X124609465Y-139239880D01*
X124414880Y-139434465D01*
X124261995Y-139663273D01*
X124156686Y-139917510D01*
X124103000Y-140187408D01*
X121438072Y-140187408D01*
X121438072Y-139450000D01*
X121425812Y-139325518D01*
X121389502Y-139205820D01*
X121330537Y-139095506D01*
X121251185Y-138998815D01*
X121154494Y-138919463D01*
X121044180Y-138860498D01*
X120948057Y-138831339D01*
X121114637Y-138664759D01*
X121271680Y-138429727D01*
X121379853Y-138168574D01*
X121435000Y-137891335D01*
X121435000Y-137608665D01*
X121379853Y-137331426D01*
X121271680Y-137070273D01*
X121249721Y-137037408D01*
X123353000Y-137037408D01*
X123353000Y-137312592D01*
X123406686Y-137582490D01*
X123511995Y-137836727D01*
X123664880Y-138065535D01*
X123859465Y-138260120D01*
X124088273Y-138413005D01*
X124342510Y-138518314D01*
X124612408Y-138572000D01*
X124887592Y-138572000D01*
X125157490Y-138518314D01*
X125411727Y-138413005D01*
X125640535Y-138260120D01*
X125835120Y-138065535D01*
X125988005Y-137836727D01*
X126093314Y-137582490D01*
X126147000Y-137312592D01*
X126147000Y-137037408D01*
X126093314Y-136767510D01*
X125988005Y-136513273D01*
X125835120Y-136284465D01*
X125640535Y-136089880D01*
X125411727Y-135936995D01*
X125157490Y-135831686D01*
X124887592Y-135778000D01*
X124612408Y-135778000D01*
X124342510Y-135831686D01*
X124088273Y-135936995D01*
X123859465Y-136089880D01*
X123664880Y-136284465D01*
X123511995Y-136513273D01*
X123406686Y-136767510D01*
X123353000Y-137037408D01*
X121249721Y-137037408D01*
X121114637Y-136835241D01*
X120914759Y-136635363D01*
X120679727Y-136478320D01*
X120418574Y-136370147D01*
X120141335Y-136315000D01*
X119858665Y-136315000D01*
X119581426Y-136370147D01*
X119320273Y-136478320D01*
X119085241Y-136635363D01*
X118885363Y-136835241D01*
X118728320Y-137070273D01*
X118620147Y-137331426D01*
X118565000Y-137608665D01*
X118565000Y-137891335D01*
X118620147Y-138168574D01*
X118728320Y-138429727D01*
X118885363Y-138664759D01*
X119051943Y-138831339D01*
X118955820Y-138860498D01*
X118845506Y-138919463D01*
X118748815Y-138998815D01*
X118669463Y-139095506D01*
X118610498Y-139205820D01*
X118574188Y-139325518D01*
X118561928Y-139450000D01*
X50127000Y-139450000D01*
X50127000Y-135121371D01*
X62723800Y-135121371D01*
X62723800Y-135506629D01*
X62798961Y-135884486D01*
X62946393Y-136240419D01*
X63160431Y-136560750D01*
X63432850Y-136833169D01*
X63753181Y-137047207D01*
X64109114Y-137194639D01*
X64486971Y-137269800D01*
X64872229Y-137269800D01*
X65250086Y-137194639D01*
X65606019Y-137047207D01*
X65926350Y-136833169D01*
X66198769Y-136560750D01*
X66412807Y-136240419D01*
X66560239Y-135884486D01*
X66635400Y-135506629D01*
X66635400Y-135121371D01*
X81850000Y-135121371D01*
X81850000Y-135506629D01*
X81925161Y-135884486D01*
X82072593Y-136240419D01*
X82286631Y-136560750D01*
X82559050Y-136833169D01*
X82879381Y-137047207D01*
X83235314Y-137194639D01*
X83613171Y-137269800D01*
X83998429Y-137269800D01*
X84376286Y-137194639D01*
X84732219Y-137047207D01*
X85052550Y-136833169D01*
X85324969Y-136560750D01*
X85539007Y-136240419D01*
X85686439Y-135884486D01*
X85761600Y-135506629D01*
X85761600Y-135121371D01*
X85740700Y-135016300D01*
X88733400Y-135016300D01*
X88733400Y-135611700D01*
X88849557Y-136195660D01*
X89077407Y-136745738D01*
X89408193Y-137240795D01*
X89829205Y-137661807D01*
X90324262Y-137992593D01*
X90874340Y-138220443D01*
X91458300Y-138336600D01*
X92053700Y-138336600D01*
X92637660Y-138220443D01*
X93187738Y-137992593D01*
X93682795Y-137661807D01*
X94103807Y-137240795D01*
X94434593Y-136745738D01*
X94662443Y-136195660D01*
X94778600Y-135611700D01*
X94778600Y-135016300D01*
X94662443Y-134432340D01*
X94434593Y-133882262D01*
X94103807Y-133387205D01*
X93682795Y-132966193D01*
X93187738Y-132635407D01*
X92637660Y-132407557D01*
X92053700Y-132291400D01*
X91458300Y-132291400D01*
X90874340Y-132407557D01*
X90324262Y-132635407D01*
X89829205Y-132966193D01*
X89408193Y-133387205D01*
X89077407Y-133882262D01*
X88849557Y-134432340D01*
X88733400Y-135016300D01*
X85740700Y-135016300D01*
X85686439Y-134743514D01*
X85539007Y-134387581D01*
X85324969Y-134067250D01*
X85052550Y-133794831D01*
X84732219Y-133580793D01*
X84376286Y-133433361D01*
X83998429Y-133358200D01*
X83613171Y-133358200D01*
X83235314Y-133433361D01*
X82879381Y-133580793D01*
X82559050Y-133794831D01*
X82286631Y-134067250D01*
X82072593Y-134387581D01*
X81925161Y-134743514D01*
X81850000Y-135121371D01*
X66635400Y-135121371D01*
X66560239Y-134743514D01*
X66412807Y-134387581D01*
X66198769Y-134067250D01*
X65926350Y-133794831D01*
X65606019Y-133580793D01*
X65250086Y-133433361D01*
X64872229Y-133358200D01*
X64486971Y-133358200D01*
X64109114Y-133433361D01*
X63753181Y-133580793D01*
X63432850Y-133794831D01*
X63160431Y-134067250D01*
X62946393Y-134387581D01*
X62798961Y-134743514D01*
X62723800Y-135121371D01*
X50127000Y-135121371D01*
X50127000Y-126392223D01*
X52563800Y-126392223D01*
X52563800Y-127217777D01*
X52724858Y-128027469D01*
X53040784Y-128790183D01*
X53499438Y-129476606D01*
X54083194Y-130060362D01*
X54769617Y-130519016D01*
X55532331Y-130834942D01*
X56342023Y-130996000D01*
X57167577Y-130996000D01*
X57977269Y-130834942D01*
X58739983Y-130519016D01*
X59426406Y-130060362D01*
X60010162Y-129476606D01*
X60468816Y-128790183D01*
X60784742Y-128027469D01*
X60945800Y-127217777D01*
X60945800Y-126392223D01*
X70039000Y-126392223D01*
X70039000Y-127217777D01*
X70200058Y-128027469D01*
X70515984Y-128790183D01*
X70974638Y-129476606D01*
X71558394Y-130060362D01*
X72244817Y-130519016D01*
X73007531Y-130834942D01*
X73817223Y-130996000D01*
X74642777Y-130996000D01*
X75452469Y-130834942D01*
X76215183Y-130519016D01*
X76901606Y-130060362D01*
X77485362Y-129476606D01*
X77944016Y-128790183D01*
X78259942Y-128027469D01*
X78421000Y-127217777D01*
X78421000Y-126392223D01*
X78259942Y-125582531D01*
X77944016Y-124819817D01*
X77485362Y-124133394D01*
X76901606Y-123549638D01*
X76215183Y-123090984D01*
X76122053Y-123052408D01*
X110853000Y-123052408D01*
X110853000Y-123327592D01*
X110906686Y-123597490D01*
X111011995Y-123851727D01*
X111164880Y-124080535D01*
X111359465Y-124275120D01*
X111588273Y-124428005D01*
X111665515Y-124460000D01*
X111588273Y-124491995D01*
X111359465Y-124644880D01*
X111164880Y-124839465D01*
X111011995Y-125068273D01*
X110906686Y-125322510D01*
X110853000Y-125592408D01*
X110853000Y-125867592D01*
X110906686Y-126137490D01*
X111011995Y-126391727D01*
X111164880Y-126620535D01*
X111359465Y-126815120D01*
X111588273Y-126968005D01*
X111665515Y-127000000D01*
X111588273Y-127031995D01*
X111359465Y-127184880D01*
X111164880Y-127379465D01*
X111011995Y-127608273D01*
X110906686Y-127862510D01*
X110853000Y-128132408D01*
X110853000Y-128407592D01*
X110906686Y-128677490D01*
X111011995Y-128931727D01*
X111164880Y-129160535D01*
X111359465Y-129355120D01*
X111588273Y-129508005D01*
X111665515Y-129540000D01*
X111588273Y-129571995D01*
X111359465Y-129724880D01*
X111164880Y-129919465D01*
X111011995Y-130148273D01*
X110906686Y-130402510D01*
X110853000Y-130672408D01*
X110853000Y-130947592D01*
X110906686Y-131217490D01*
X111011995Y-131471727D01*
X111164880Y-131700535D01*
X111359465Y-131895120D01*
X111588273Y-132048005D01*
X111665515Y-132080000D01*
X111588273Y-132111995D01*
X111359465Y-132264880D01*
X111164880Y-132459465D01*
X111011995Y-132688273D01*
X110906686Y-132942510D01*
X110853000Y-133212408D01*
X110853000Y-133487592D01*
X110906686Y-133757490D01*
X111011995Y-134011727D01*
X111164880Y-134240535D01*
X111359465Y-134435120D01*
X111588273Y-134588005D01*
X111842510Y-134693314D01*
X112112408Y-134747000D01*
X112387592Y-134747000D01*
X112657490Y-134693314D01*
X112911727Y-134588005D01*
X113140535Y-134435120D01*
X113335120Y-134240535D01*
X113488005Y-134011727D01*
X113593314Y-133757490D01*
X113647000Y-133487592D01*
X113647000Y-133212408D01*
X113593314Y-132942510D01*
X113488005Y-132688273D01*
X113335120Y-132459465D01*
X113140535Y-132264880D01*
X112911727Y-132111995D01*
X112834485Y-132080000D01*
X112911727Y-132048005D01*
X113140535Y-131895120D01*
X113335120Y-131700535D01*
X113488005Y-131471727D01*
X113593314Y-131217490D01*
X113647000Y-130947592D01*
X113647000Y-130687408D01*
X123353000Y-130687408D01*
X123353000Y-130962592D01*
X123406686Y-131232490D01*
X123511995Y-131486727D01*
X123664880Y-131715535D01*
X123859465Y-131910120D01*
X124088273Y-132063005D01*
X124342510Y-132168314D01*
X124612408Y-132222000D01*
X124887592Y-132222000D01*
X125157490Y-132168314D01*
X125411727Y-132063005D01*
X125640535Y-131910120D01*
X125835120Y-131715535D01*
X125988005Y-131486727D01*
X126093314Y-131232490D01*
X126147000Y-130962592D01*
X126147000Y-130687408D01*
X126093314Y-130417510D01*
X125988005Y-130163273D01*
X125835120Y-129934465D01*
X125640535Y-129739880D01*
X125411727Y-129586995D01*
X125157490Y-129481686D01*
X124887592Y-129428000D01*
X124612408Y-129428000D01*
X124342510Y-129481686D01*
X124088273Y-129586995D01*
X123859465Y-129739880D01*
X123664880Y-129934465D01*
X123511995Y-130163273D01*
X123406686Y-130417510D01*
X123353000Y-130687408D01*
X113647000Y-130687408D01*
X113647000Y-130672408D01*
X113593314Y-130402510D01*
X113488005Y-130148273D01*
X113335120Y-129919465D01*
X113140535Y-129724880D01*
X112911727Y-129571995D01*
X112834485Y-129540000D01*
X112911727Y-129508005D01*
X113140535Y-129355120D01*
X113335120Y-129160535D01*
X113488005Y-128931727D01*
X113593314Y-128677490D01*
X113647000Y-128407592D01*
X113647000Y-128132408D01*
X113593314Y-127862510D01*
X113488005Y-127608273D01*
X113335120Y-127379465D01*
X113140535Y-127184880D01*
X112911727Y-127031995D01*
X112834485Y-127000000D01*
X112911727Y-126968005D01*
X113140535Y-126815120D01*
X113335120Y-126620535D01*
X113488005Y-126391727D01*
X113593314Y-126137490D01*
X113647000Y-125867592D01*
X113647000Y-125592408D01*
X113593314Y-125322510D01*
X113488005Y-125068273D01*
X113335120Y-124839465D01*
X113140535Y-124644880D01*
X112911727Y-124491995D01*
X112834485Y-124460000D01*
X112911727Y-124428005D01*
X113140535Y-124275120D01*
X113335120Y-124080535D01*
X113488005Y-123851727D01*
X113593314Y-123597490D01*
X113647000Y-123327592D01*
X113647000Y-123052408D01*
X113609207Y-122862408D01*
X127603000Y-122862408D01*
X127603000Y-123137592D01*
X127656686Y-123407490D01*
X127761995Y-123661727D01*
X127914880Y-123890535D01*
X128109465Y-124085120D01*
X128338273Y-124238005D01*
X128592510Y-124343314D01*
X128862408Y-124397000D01*
X129137592Y-124397000D01*
X129407490Y-124343314D01*
X129661727Y-124238005D01*
X129890535Y-124085120D01*
X130085120Y-123890535D01*
X130238005Y-123661727D01*
X130250000Y-123632769D01*
X130261995Y-123661727D01*
X130414880Y-123890535D01*
X130609465Y-124085120D01*
X130838273Y-124238005D01*
X131092510Y-124343314D01*
X131362408Y-124397000D01*
X131637592Y-124397000D01*
X131907490Y-124343314D01*
X132161727Y-124238005D01*
X132390535Y-124085120D01*
X132585120Y-123890535D01*
X132738005Y-123661727D01*
X132750000Y-123632769D01*
X132761995Y-123661727D01*
X132914880Y-123890535D01*
X133109465Y-124085120D01*
X133338273Y-124238005D01*
X133592510Y-124343314D01*
X133862408Y-124397000D01*
X134137592Y-124397000D01*
X134407490Y-124343314D01*
X134661727Y-124238005D01*
X134890535Y-124085120D01*
X135085120Y-123890535D01*
X135238005Y-123661727D01*
X135250000Y-123632769D01*
X135261995Y-123661727D01*
X135414880Y-123890535D01*
X135609465Y-124085120D01*
X135838273Y-124238005D01*
X136092510Y-124343314D01*
X136362408Y-124397000D01*
X136637592Y-124397000D01*
X136907490Y-124343314D01*
X137161727Y-124238005D01*
X137390535Y-124085120D01*
X137585120Y-123890535D01*
X137738005Y-123661727D01*
X137750000Y-123632769D01*
X137761995Y-123661727D01*
X137914880Y-123890535D01*
X138109465Y-124085120D01*
X138338273Y-124238005D01*
X138592510Y-124343314D01*
X138862408Y-124397000D01*
X139137592Y-124397000D01*
X139407490Y-124343314D01*
X139661727Y-124238005D01*
X139890535Y-124085120D01*
X140085120Y-123890535D01*
X140238005Y-123661727D01*
X140250000Y-123632769D01*
X140261995Y-123661727D01*
X140414880Y-123890535D01*
X140609465Y-124085120D01*
X140838273Y-124238005D01*
X141092510Y-124343314D01*
X141362408Y-124397000D01*
X141637592Y-124397000D01*
X141907490Y-124343314D01*
X142161727Y-124238005D01*
X142390535Y-124085120D01*
X142585120Y-123890535D01*
X142738005Y-123661727D01*
X142750000Y-123632769D01*
X142761995Y-123661727D01*
X142914880Y-123890535D01*
X143109465Y-124085120D01*
X143338273Y-124238005D01*
X143592510Y-124343314D01*
X143862408Y-124397000D01*
X144137592Y-124397000D01*
X144407490Y-124343314D01*
X144661727Y-124238005D01*
X144890535Y-124085120D01*
X145010090Y-123965565D01*
X145714040Y-123965565D01*
X145781020Y-124205656D01*
X146030048Y-124322756D01*
X146297135Y-124389023D01*
X146572017Y-124401910D01*
X146844133Y-124360922D01*
X147103023Y-124267636D01*
X147218980Y-124205656D01*
X147285960Y-123965565D01*
X146500000Y-123179605D01*
X145714040Y-123965565D01*
X145010090Y-123965565D01*
X145085120Y-123890535D01*
X145238005Y-123661727D01*
X145249242Y-123634599D01*
X145294344Y-123718980D01*
X145534435Y-123785960D01*
X146320395Y-123000000D01*
X146679605Y-123000000D01*
X147465565Y-123785960D01*
X147705656Y-123718980D01*
X147822756Y-123469952D01*
X147889023Y-123202865D01*
X147901910Y-122927983D01*
X147860922Y-122655867D01*
X147767636Y-122396977D01*
X147705656Y-122281020D01*
X147465565Y-122214040D01*
X146679605Y-123000000D01*
X146320395Y-123000000D01*
X145534435Y-122214040D01*
X145294344Y-122281020D01*
X145251782Y-122371533D01*
X145238005Y-122338273D01*
X145085120Y-122109465D01*
X145010090Y-122034435D01*
X145714040Y-122034435D01*
X146500000Y-122820395D01*
X147285960Y-122034435D01*
X147218980Y-121794344D01*
X146969952Y-121677244D01*
X146702865Y-121610977D01*
X146427983Y-121598090D01*
X146155867Y-121639078D01*
X145896977Y-121732364D01*
X145781020Y-121794344D01*
X145714040Y-122034435D01*
X145010090Y-122034435D01*
X144890535Y-121914880D01*
X144661727Y-121761995D01*
X144407490Y-121656686D01*
X144137592Y-121603000D01*
X143862408Y-121603000D01*
X143592510Y-121656686D01*
X143338273Y-121761995D01*
X143109465Y-121914880D01*
X142914880Y-122109465D01*
X142761995Y-122338273D01*
X142750000Y-122367231D01*
X142738005Y-122338273D01*
X142585120Y-122109465D01*
X142390535Y-121914880D01*
X142161727Y-121761995D01*
X141907490Y-121656686D01*
X141637592Y-121603000D01*
X141362408Y-121603000D01*
X141092510Y-121656686D01*
X140838273Y-121761995D01*
X140609465Y-121914880D01*
X140414880Y-122109465D01*
X140261995Y-122338273D01*
X140250000Y-122367231D01*
X140238005Y-122338273D01*
X140085120Y-122109465D01*
X139890535Y-121914880D01*
X139661727Y-121761995D01*
X139407490Y-121656686D01*
X139137592Y-121603000D01*
X138862408Y-121603000D01*
X138592510Y-121656686D01*
X138338273Y-121761995D01*
X138109465Y-121914880D01*
X137914880Y-122109465D01*
X137761995Y-122338273D01*
X137750000Y-122367231D01*
X137738005Y-122338273D01*
X137585120Y-122109465D01*
X137390535Y-121914880D01*
X137161727Y-121761995D01*
X136907490Y-121656686D01*
X136637592Y-121603000D01*
X136362408Y-121603000D01*
X136092510Y-121656686D01*
X135838273Y-121761995D01*
X135609465Y-121914880D01*
X135414880Y-122109465D01*
X135261995Y-122338273D01*
X135250000Y-122367231D01*
X135238005Y-122338273D01*
X135085120Y-122109465D01*
X134890535Y-121914880D01*
X134661727Y-121761995D01*
X134407490Y-121656686D01*
X134137592Y-121603000D01*
X133862408Y-121603000D01*
X133592510Y-121656686D01*
X133338273Y-121761995D01*
X133109465Y-121914880D01*
X132914880Y-122109465D01*
X132761995Y-122338273D01*
X132750000Y-122367231D01*
X132738005Y-122338273D01*
X132585120Y-122109465D01*
X132390535Y-121914880D01*
X132161727Y-121761995D01*
X131907490Y-121656686D01*
X131637592Y-121603000D01*
X131362408Y-121603000D01*
X131092510Y-121656686D01*
X130838273Y-121761995D01*
X130609465Y-121914880D01*
X130414880Y-122109465D01*
X130261995Y-122338273D01*
X130250000Y-122367231D01*
X130238005Y-122338273D01*
X130085120Y-122109465D01*
X129890535Y-121914880D01*
X129661727Y-121761995D01*
X129407490Y-121656686D01*
X129137592Y-121603000D01*
X128862408Y-121603000D01*
X128592510Y-121656686D01*
X128338273Y-121761995D01*
X128109465Y-121914880D01*
X127914880Y-122109465D01*
X127761995Y-122338273D01*
X127656686Y-122592510D01*
X127603000Y-122862408D01*
X113609207Y-122862408D01*
X113593314Y-122782510D01*
X113488005Y-122528273D01*
X113335120Y-122299465D01*
X113140535Y-122104880D01*
X112911727Y-121951995D01*
X112840057Y-121922308D01*
X112853023Y-121917636D01*
X112968980Y-121855656D01*
X113035960Y-121615565D01*
X112250000Y-120829605D01*
X111464040Y-121615565D01*
X111531020Y-121855656D01*
X111666760Y-121919485D01*
X111588273Y-121951995D01*
X111359465Y-122104880D01*
X111164880Y-122299465D01*
X111011995Y-122528273D01*
X110906686Y-122782510D01*
X110853000Y-123052408D01*
X76122053Y-123052408D01*
X75452469Y-122775058D01*
X74642777Y-122614000D01*
X73817223Y-122614000D01*
X73007531Y-122775058D01*
X72244817Y-123090984D01*
X71558394Y-123549638D01*
X70974638Y-124133394D01*
X70515984Y-124819817D01*
X70200058Y-125582531D01*
X70039000Y-126392223D01*
X60945800Y-126392223D01*
X60784742Y-125582531D01*
X60468816Y-124819817D01*
X60010162Y-124133394D01*
X59426406Y-123549638D01*
X58739983Y-123090984D01*
X57977269Y-122775058D01*
X57167577Y-122614000D01*
X56342023Y-122614000D01*
X55532331Y-122775058D01*
X54769617Y-123090984D01*
X54083194Y-123549638D01*
X53499438Y-124133394D01*
X53040784Y-124819817D01*
X52724858Y-125582531D01*
X52563800Y-126392223D01*
X50127000Y-126392223D01*
X50127000Y-120722017D01*
X110848090Y-120722017D01*
X110889078Y-120994133D01*
X110982364Y-121253023D01*
X111044344Y-121368980D01*
X111284435Y-121435960D01*
X112070395Y-120650000D01*
X112429605Y-120650000D01*
X113215565Y-121435960D01*
X113455656Y-121368980D01*
X113572756Y-121119952D01*
X113639023Y-120852865D01*
X113651910Y-120577983D01*
X113610922Y-120305867D01*
X113517636Y-120046977D01*
X113455656Y-119931020D01*
X113215565Y-119864040D01*
X112429605Y-120650000D01*
X112070395Y-120650000D01*
X111284435Y-119864040D01*
X111044344Y-119931020D01*
X110927244Y-120180048D01*
X110860977Y-120447135D01*
X110848090Y-120722017D01*
X50127000Y-120722017D01*
X50127000Y-119684435D01*
X111464040Y-119684435D01*
X112250000Y-120470395D01*
X113035960Y-119684435D01*
X112968980Y-119444344D01*
X112719952Y-119327244D01*
X112452865Y-119260977D01*
X112177983Y-119248090D01*
X111905867Y-119289078D01*
X111646977Y-119382364D01*
X111531020Y-119444344D01*
X111464040Y-119684435D01*
X50127000Y-119684435D01*
X50127000Y-116742702D01*
X118436903Y-116742702D01*
X118508486Y-116986671D01*
X118763996Y-117107571D01*
X119038184Y-117176300D01*
X119320512Y-117190217D01*
X119600130Y-117148787D01*
X119866292Y-117053603D01*
X119991514Y-116986671D01*
X120063097Y-116742702D01*
X119250000Y-115929605D01*
X118436903Y-116742702D01*
X50127000Y-116742702D01*
X50127000Y-115820512D01*
X117809783Y-115820512D01*
X117851213Y-116100130D01*
X117946397Y-116366292D01*
X118013329Y-116491514D01*
X118257298Y-116563097D01*
X119070395Y-115750000D01*
X119429605Y-115750000D01*
X120242702Y-116563097D01*
X120486671Y-116491514D01*
X120607571Y-116236004D01*
X120676300Y-115961816D01*
X120690217Y-115679488D01*
X120648787Y-115399870D01*
X120634052Y-115358665D01*
X125065000Y-115358665D01*
X125065000Y-115641335D01*
X125120147Y-115918574D01*
X125228320Y-116179727D01*
X125385363Y-116414759D01*
X125585241Y-116614637D01*
X125820273Y-116771680D01*
X126081426Y-116879853D01*
X126358665Y-116935000D01*
X126641335Y-116935000D01*
X126918574Y-116879853D01*
X127179727Y-116771680D01*
X127414759Y-116614637D01*
X127614637Y-116414759D01*
X127771680Y-116179727D01*
X127879853Y-115918574D01*
X127935000Y-115641335D01*
X127935000Y-115358665D01*
X127879853Y-115081426D01*
X127771680Y-114820273D01*
X127614637Y-114585241D01*
X127414759Y-114385363D01*
X127179727Y-114228320D01*
X126918574Y-114120147D01*
X126641335Y-114065000D01*
X126358665Y-114065000D01*
X126081426Y-114120147D01*
X125820273Y-114228320D01*
X125585241Y-114385363D01*
X125385363Y-114585241D01*
X125228320Y-114820273D01*
X125120147Y-115081426D01*
X125065000Y-115358665D01*
X120634052Y-115358665D01*
X120553603Y-115133708D01*
X120486671Y-115008486D01*
X120242702Y-114936903D01*
X119429605Y-115750000D01*
X119070395Y-115750000D01*
X118257298Y-114936903D01*
X118013329Y-115008486D01*
X117892429Y-115263996D01*
X117823700Y-115538184D01*
X117809783Y-115820512D01*
X50127000Y-115820512D01*
X50127000Y-114757298D01*
X118436903Y-114757298D01*
X119250000Y-115570395D01*
X120063097Y-114757298D01*
X119991514Y-114513329D01*
X119736004Y-114392429D01*
X119461816Y-114323700D01*
X119179488Y-114309783D01*
X118899870Y-114351213D01*
X118633708Y-114446397D01*
X118508486Y-114513329D01*
X118436903Y-114757298D01*
X50127000Y-114757298D01*
X50127000Y-110608665D01*
X117815000Y-110608665D01*
X117815000Y-110891335D01*
X117870147Y-111168574D01*
X117978320Y-111429727D01*
X118135363Y-111664759D01*
X118335241Y-111864637D01*
X118570273Y-112021680D01*
X118831426Y-112129853D01*
X119108665Y-112185000D01*
X119391335Y-112185000D01*
X119668574Y-112129853D01*
X119929727Y-112021680D01*
X120164759Y-111864637D01*
X120364637Y-111664759D01*
X120479601Y-111492702D01*
X125686903Y-111492702D01*
X125758486Y-111736671D01*
X126013996Y-111857571D01*
X126288184Y-111926300D01*
X126570512Y-111940217D01*
X126850130Y-111898787D01*
X127116292Y-111803603D01*
X127241514Y-111736671D01*
X127313097Y-111492702D01*
X126500000Y-110679605D01*
X125686903Y-111492702D01*
X120479601Y-111492702D01*
X120521680Y-111429727D01*
X120629853Y-111168574D01*
X120685000Y-110891335D01*
X120685000Y-110608665D01*
X120677411Y-110570512D01*
X125059783Y-110570512D01*
X125101213Y-110850130D01*
X125196397Y-111116292D01*
X125263329Y-111241514D01*
X125507298Y-111313097D01*
X126320395Y-110500000D01*
X126679605Y-110500000D01*
X127492702Y-111313097D01*
X127736671Y-111241514D01*
X127857571Y-110986004D01*
X127926300Y-110711816D01*
X127940217Y-110429488D01*
X127918425Y-110282408D01*
X130603000Y-110282408D01*
X130603000Y-110557592D01*
X130656686Y-110827490D01*
X130761995Y-111081727D01*
X130914880Y-111310535D01*
X131109465Y-111505120D01*
X131338273Y-111658005D01*
X131415515Y-111690000D01*
X131338273Y-111721995D01*
X131109465Y-111874880D01*
X130914880Y-112069465D01*
X130761995Y-112298273D01*
X130656686Y-112552510D01*
X130603000Y-112822408D01*
X130603000Y-113097592D01*
X130656686Y-113367490D01*
X130761995Y-113621727D01*
X130914880Y-113850535D01*
X131109465Y-114045120D01*
X131338273Y-114198005D01*
X131415515Y-114230000D01*
X131338273Y-114261995D01*
X131109465Y-114414880D01*
X130914880Y-114609465D01*
X130761995Y-114838273D01*
X130656686Y-115092510D01*
X130603000Y-115362408D01*
X130603000Y-115637592D01*
X130656686Y-115907490D01*
X130761995Y-116161727D01*
X130914880Y-116390535D01*
X131109465Y-116585120D01*
X131338273Y-116738005D01*
X131592510Y-116843314D01*
X131862408Y-116897000D01*
X132137592Y-116897000D01*
X132407490Y-116843314D01*
X132661727Y-116738005D01*
X132890535Y-116585120D01*
X133085120Y-116390535D01*
X133238005Y-116161727D01*
X133343314Y-115907490D01*
X133397000Y-115637592D01*
X133397000Y-115362408D01*
X133343314Y-115092510D01*
X133238005Y-114838273D01*
X133085120Y-114609465D01*
X132890535Y-114414880D01*
X132661727Y-114261995D01*
X132584485Y-114230000D01*
X132661727Y-114198005D01*
X132890535Y-114045120D01*
X133085120Y-113850535D01*
X133238005Y-113621727D01*
X133343314Y-113367490D01*
X133397000Y-113097592D01*
X133397000Y-112822408D01*
X133343314Y-112552510D01*
X133238005Y-112298273D01*
X133085120Y-112069465D01*
X132890535Y-111874880D01*
X132661727Y-111721995D01*
X132584485Y-111690000D01*
X132661727Y-111658005D01*
X132890535Y-111505120D01*
X133085120Y-111310535D01*
X133238005Y-111081727D01*
X133343314Y-110827490D01*
X133397000Y-110557592D01*
X133397000Y-110282408D01*
X133343314Y-110012510D01*
X133238005Y-109758273D01*
X133085120Y-109529465D01*
X132890535Y-109334880D01*
X132661727Y-109181995D01*
X132590057Y-109152308D01*
X132603023Y-109147636D01*
X132718980Y-109085656D01*
X132785960Y-108845565D01*
X132000000Y-108059605D01*
X131214040Y-108845565D01*
X131281020Y-109085656D01*
X131416760Y-109149485D01*
X131338273Y-109181995D01*
X131109465Y-109334880D01*
X130914880Y-109529465D01*
X130761995Y-109758273D01*
X130656686Y-110012510D01*
X130603000Y-110282408D01*
X127918425Y-110282408D01*
X127898787Y-110149870D01*
X127803603Y-109883708D01*
X127736671Y-109758486D01*
X127492702Y-109686903D01*
X126679605Y-110500000D01*
X126320395Y-110500000D01*
X125507298Y-109686903D01*
X125263329Y-109758486D01*
X125142429Y-110013996D01*
X125073700Y-110288184D01*
X125059783Y-110570512D01*
X120677411Y-110570512D01*
X120629853Y-110331426D01*
X120521680Y-110070273D01*
X120364637Y-109835241D01*
X120164759Y-109635363D01*
X119973096Y-109507298D01*
X125686903Y-109507298D01*
X126500000Y-110320395D01*
X127313097Y-109507298D01*
X127241514Y-109263329D01*
X126986004Y-109142429D01*
X126711816Y-109073700D01*
X126429488Y-109059783D01*
X126149870Y-109101213D01*
X125883708Y-109196397D01*
X125758486Y-109263329D01*
X125686903Y-109507298D01*
X119973096Y-109507298D01*
X119929727Y-109478320D01*
X119668574Y-109370147D01*
X119391335Y-109315000D01*
X119108665Y-109315000D01*
X118831426Y-109370147D01*
X118570273Y-109478320D01*
X118335241Y-109635363D01*
X118135363Y-109835241D01*
X117978320Y-110070273D01*
X117870147Y-110331426D01*
X117815000Y-110608665D01*
X50127000Y-110608665D01*
X50127000Y-107952017D01*
X130598090Y-107952017D01*
X130639078Y-108224133D01*
X130732364Y-108483023D01*
X130794344Y-108598980D01*
X131034435Y-108665960D01*
X131820395Y-107880000D01*
X132179605Y-107880000D01*
X132965565Y-108665960D01*
X133205656Y-108598980D01*
X133322756Y-108349952D01*
X133389023Y-108082865D01*
X133401910Y-107807983D01*
X133360922Y-107535867D01*
X133267636Y-107276977D01*
X133205656Y-107161020D01*
X132965565Y-107094040D01*
X132179605Y-107880000D01*
X131820395Y-107880000D01*
X131034435Y-107094040D01*
X130794344Y-107161020D01*
X130677244Y-107410048D01*
X130610977Y-107677135D01*
X130598090Y-107952017D01*
X50127000Y-107952017D01*
X50127000Y-105212408D01*
X97653000Y-105212408D01*
X97653000Y-105487592D01*
X97706686Y-105757490D01*
X97811995Y-106011727D01*
X97964880Y-106240535D01*
X98159465Y-106435120D01*
X98388273Y-106588005D01*
X98642510Y-106693314D01*
X98912408Y-106747000D01*
X99187592Y-106747000D01*
X99457490Y-106693314D01*
X99711727Y-106588005D01*
X99940535Y-106435120D01*
X100060090Y-106315565D01*
X102664040Y-106315565D01*
X102731020Y-106555656D01*
X102980048Y-106672756D01*
X103247135Y-106739023D01*
X103522017Y-106751910D01*
X103794133Y-106710922D01*
X104053023Y-106617636D01*
X104168980Y-106555656D01*
X104235960Y-106315565D01*
X103450000Y-105529605D01*
X102664040Y-106315565D01*
X100060090Y-106315565D01*
X100135120Y-106240535D01*
X100288005Y-106011727D01*
X100393314Y-105757490D01*
X100447000Y-105487592D01*
X100447000Y-105422017D01*
X102048090Y-105422017D01*
X102089078Y-105694133D01*
X102182364Y-105953023D01*
X102244344Y-106068980D01*
X102484435Y-106135960D01*
X103270395Y-105350000D01*
X103629605Y-105350000D01*
X104415565Y-106135960D01*
X104655656Y-106068980D01*
X104772756Y-105819952D01*
X104839023Y-105552865D01*
X104851910Y-105277983D01*
X104810922Y-105005867D01*
X104717636Y-104746977D01*
X104655656Y-104631020D01*
X104415565Y-104564040D01*
X103629605Y-105350000D01*
X103270395Y-105350000D01*
X102484435Y-104564040D01*
X102244344Y-104631020D01*
X102127244Y-104880048D01*
X102060977Y-105147135D01*
X102048090Y-105422017D01*
X100447000Y-105422017D01*
X100447000Y-105212408D01*
X100393314Y-104942510D01*
X100288005Y-104688273D01*
X100135120Y-104459465D01*
X100060090Y-104384435D01*
X102664040Y-104384435D01*
X103450000Y-105170395D01*
X104235960Y-104384435D01*
X104168980Y-104144344D01*
X103919952Y-104027244D01*
X103652865Y-103960977D01*
X103377983Y-103948090D01*
X103105867Y-103989078D01*
X102846977Y-104082364D01*
X102731020Y-104144344D01*
X102664040Y-104384435D01*
X100060090Y-104384435D01*
X99940535Y-104264880D01*
X99711727Y-104111995D01*
X99457490Y-104006686D01*
X99187592Y-103953000D01*
X98912408Y-103953000D01*
X98642510Y-104006686D01*
X98388273Y-104111995D01*
X98159465Y-104264880D01*
X97964880Y-104459465D01*
X97811995Y-104688273D01*
X97706686Y-104942510D01*
X97653000Y-105212408D01*
X50127000Y-105212408D01*
X50127000Y-83992408D01*
X114553000Y-83992408D01*
X114553000Y-84267592D01*
X114606686Y-84537490D01*
X114711995Y-84791727D01*
X114864880Y-85020535D01*
X115059465Y-85215120D01*
X115288273Y-85368005D01*
X115365515Y-85400000D01*
X115288273Y-85431995D01*
X115059465Y-85584880D01*
X114864880Y-85779465D01*
X114711995Y-86008273D01*
X114606686Y-86262510D01*
X114553000Y-86532408D01*
X114553000Y-86807592D01*
X114606686Y-87077490D01*
X114711995Y-87331727D01*
X114864880Y-87560535D01*
X115059465Y-87755120D01*
X115288273Y-87908005D01*
X115365515Y-87940000D01*
X115288273Y-87971995D01*
X115059465Y-88124880D01*
X114864880Y-88319465D01*
X114711995Y-88548273D01*
X114606686Y-88802510D01*
X114553000Y-89072408D01*
X114553000Y-89347592D01*
X114606686Y-89617490D01*
X114711995Y-89871727D01*
X114864880Y-90100535D01*
X115059465Y-90295120D01*
X115288273Y-90448005D01*
X115365515Y-90480000D01*
X115288273Y-90511995D01*
X115059465Y-90664880D01*
X114864880Y-90859465D01*
X114711995Y-91088273D01*
X114606686Y-91342510D01*
X114553000Y-91612408D01*
X114553000Y-91887592D01*
X114606686Y-92157490D01*
X114711995Y-92411727D01*
X114864880Y-92640535D01*
X115059465Y-92835120D01*
X115288273Y-92988005D01*
X115365515Y-93020000D01*
X115288273Y-93051995D01*
X115059465Y-93204880D01*
X114864880Y-93399465D01*
X114711995Y-93628273D01*
X114606686Y-93882510D01*
X114553000Y-94152408D01*
X114553000Y-94427592D01*
X114606686Y-94697490D01*
X114711995Y-94951727D01*
X114864880Y-95180535D01*
X115059465Y-95375120D01*
X115288273Y-95528005D01*
X115365515Y-95560000D01*
X115288273Y-95591995D01*
X115059465Y-95744880D01*
X114864880Y-95939465D01*
X114711995Y-96168273D01*
X114606686Y-96422510D01*
X114553000Y-96692408D01*
X114553000Y-96967592D01*
X114606686Y-97237490D01*
X114711995Y-97491727D01*
X114864880Y-97720535D01*
X115059465Y-97915120D01*
X115288273Y-98068005D01*
X115365515Y-98100000D01*
X115288273Y-98131995D01*
X115059465Y-98284880D01*
X114864880Y-98479465D01*
X114711995Y-98708273D01*
X114606686Y-98962510D01*
X114553000Y-99232408D01*
X114553000Y-99507592D01*
X114606686Y-99777490D01*
X114711995Y-100031727D01*
X114864880Y-100260535D01*
X115059465Y-100455120D01*
X115288273Y-100608005D01*
X115542510Y-100713314D01*
X115812408Y-100767000D01*
X116087592Y-100767000D01*
X116357490Y-100713314D01*
X116611727Y-100608005D01*
X116840535Y-100455120D01*
X117035120Y-100260535D01*
X117188005Y-100031727D01*
X117293314Y-99777490D01*
X117347000Y-99507592D01*
X117347000Y-99232408D01*
X117293314Y-98962510D01*
X117188005Y-98708273D01*
X117035120Y-98479465D01*
X116840535Y-98284880D01*
X116611727Y-98131995D01*
X116534485Y-98100000D01*
X116611727Y-98068005D01*
X116840535Y-97915120D01*
X117035120Y-97720535D01*
X117188005Y-97491727D01*
X117293314Y-97237490D01*
X117347000Y-96967592D01*
X117347000Y-96858665D01*
X119815000Y-96858665D01*
X119815000Y-97141335D01*
X119870147Y-97418574D01*
X119978320Y-97679727D01*
X120135363Y-97914759D01*
X120335241Y-98114637D01*
X120570273Y-98271680D01*
X120831426Y-98379853D01*
X121108665Y-98435000D01*
X121391335Y-98435000D01*
X121668574Y-98379853D01*
X121929727Y-98271680D01*
X122164759Y-98114637D01*
X122331339Y-97948057D01*
X122360498Y-98044180D01*
X122419463Y-98154494D01*
X122498815Y-98251185D01*
X122595506Y-98330537D01*
X122705820Y-98389502D01*
X122825518Y-98425812D01*
X122950000Y-98438072D01*
X123464250Y-98435000D01*
X123623000Y-98276250D01*
X123623000Y-97127000D01*
X123877000Y-97127000D01*
X123877000Y-98276250D01*
X124035750Y-98435000D01*
X124550000Y-98438072D01*
X124674482Y-98425812D01*
X124794180Y-98389502D01*
X124904494Y-98330537D01*
X125001185Y-98251185D01*
X125080537Y-98154494D01*
X125139502Y-98044180D01*
X125175812Y-97924482D01*
X125188072Y-97800000D01*
X125185000Y-97285750D01*
X125026250Y-97127000D01*
X123877000Y-97127000D01*
X123623000Y-97127000D01*
X123603000Y-97127000D01*
X123603000Y-96873000D01*
X123623000Y-96873000D01*
X123623000Y-95723750D01*
X123877000Y-95723750D01*
X123877000Y-96873000D01*
X125026250Y-96873000D01*
X125185000Y-96714250D01*
X125188072Y-96200000D01*
X125175812Y-96075518D01*
X125139502Y-95955820D01*
X125080537Y-95845506D01*
X125001185Y-95748815D01*
X124904494Y-95669463D01*
X124794180Y-95610498D01*
X124674482Y-95574188D01*
X124550000Y-95561928D01*
X124035750Y-95565000D01*
X123877000Y-95723750D01*
X123623000Y-95723750D01*
X123464250Y-95565000D01*
X122950000Y-95561928D01*
X122825518Y-95574188D01*
X122705820Y-95610498D01*
X122595506Y-95669463D01*
X122498815Y-95748815D01*
X122419463Y-95845506D01*
X122360498Y-95955820D01*
X122331339Y-96051943D01*
X122164759Y-95885363D01*
X121929727Y-95728320D01*
X121668574Y-95620147D01*
X121391335Y-95565000D01*
X121108665Y-95565000D01*
X120831426Y-95620147D01*
X120570273Y-95728320D01*
X120335241Y-95885363D01*
X120135363Y-96085241D01*
X119978320Y-96320273D01*
X119870147Y-96581426D01*
X119815000Y-96858665D01*
X117347000Y-96858665D01*
X117347000Y-96692408D01*
X117293314Y-96422510D01*
X117188005Y-96168273D01*
X117035120Y-95939465D01*
X116840535Y-95744880D01*
X116611727Y-95591995D01*
X116534485Y-95560000D01*
X116611727Y-95528005D01*
X116840535Y-95375120D01*
X117035120Y-95180535D01*
X117188005Y-94951727D01*
X117293314Y-94697490D01*
X117347000Y-94427592D01*
X117347000Y-94152408D01*
X117293314Y-93882510D01*
X117188005Y-93628273D01*
X117035120Y-93399465D01*
X116840535Y-93204880D01*
X116611727Y-93051995D01*
X116534485Y-93020000D01*
X116611727Y-92988005D01*
X116840535Y-92835120D01*
X117035120Y-92640535D01*
X117188005Y-92411727D01*
X117293314Y-92157490D01*
X117347000Y-91887592D01*
X117347000Y-91612408D01*
X117293314Y-91342510D01*
X117188005Y-91088273D01*
X117035120Y-90859465D01*
X116840535Y-90664880D01*
X116611727Y-90511995D01*
X116534485Y-90480000D01*
X116611727Y-90448005D01*
X116840535Y-90295120D01*
X117035120Y-90100535D01*
X117188005Y-89871727D01*
X117293314Y-89617490D01*
X117347000Y-89347592D01*
X117347000Y-89072408D01*
X117293314Y-88802510D01*
X117188005Y-88548273D01*
X117035120Y-88319465D01*
X116840535Y-88124880D01*
X116611727Y-87971995D01*
X116534485Y-87940000D01*
X116611727Y-87908005D01*
X116840535Y-87755120D01*
X117035120Y-87560535D01*
X117127413Y-87422408D01*
X130603000Y-87422408D01*
X130603000Y-87697592D01*
X130656686Y-87967490D01*
X130761995Y-88221727D01*
X130914880Y-88450535D01*
X131109465Y-88645120D01*
X131338273Y-88798005D01*
X131415515Y-88830000D01*
X131338273Y-88861995D01*
X131109465Y-89014880D01*
X130914880Y-89209465D01*
X130761995Y-89438273D01*
X130656686Y-89692510D01*
X130603000Y-89962408D01*
X130603000Y-90237592D01*
X130656686Y-90507490D01*
X130761995Y-90761727D01*
X130914880Y-90990535D01*
X131109465Y-91185120D01*
X131338273Y-91338005D01*
X131415515Y-91370000D01*
X131338273Y-91401995D01*
X131109465Y-91554880D01*
X130914880Y-91749465D01*
X130761995Y-91978273D01*
X130656686Y-92232510D01*
X130603000Y-92502408D01*
X130603000Y-92777592D01*
X130656686Y-93047490D01*
X130761995Y-93301727D01*
X130914880Y-93530535D01*
X131109465Y-93725120D01*
X131338273Y-93878005D01*
X131415515Y-93910000D01*
X131338273Y-93941995D01*
X131109465Y-94094880D01*
X130914880Y-94289465D01*
X130761995Y-94518273D01*
X130656686Y-94772510D01*
X130603000Y-95042408D01*
X130603000Y-95317592D01*
X130656686Y-95587490D01*
X130761995Y-95841727D01*
X130914880Y-96070535D01*
X131109465Y-96265120D01*
X131338273Y-96418005D01*
X131415515Y-96450000D01*
X131338273Y-96481995D01*
X131109465Y-96634880D01*
X130914880Y-96829465D01*
X130761995Y-97058273D01*
X130656686Y-97312510D01*
X130603000Y-97582408D01*
X130603000Y-97857592D01*
X130656686Y-98127490D01*
X130761995Y-98381727D01*
X130914880Y-98610535D01*
X131109465Y-98805120D01*
X131338273Y-98958005D01*
X131415515Y-98990000D01*
X131338273Y-99021995D01*
X131109465Y-99174880D01*
X130914880Y-99369465D01*
X130761995Y-99598273D01*
X130656686Y-99852510D01*
X130603000Y-100122408D01*
X130603000Y-100397592D01*
X130656686Y-100667490D01*
X130761995Y-100921727D01*
X130914880Y-101150535D01*
X131109465Y-101345120D01*
X131338273Y-101498005D01*
X131415515Y-101530000D01*
X131338273Y-101561995D01*
X131109465Y-101714880D01*
X130914880Y-101909465D01*
X130761995Y-102138273D01*
X130656686Y-102392510D01*
X130603000Y-102662408D01*
X130603000Y-102937592D01*
X130656686Y-103207490D01*
X130761995Y-103461727D01*
X130914880Y-103690535D01*
X131109465Y-103885120D01*
X131338273Y-104038005D01*
X131415515Y-104070000D01*
X131338273Y-104101995D01*
X131109465Y-104254880D01*
X130914880Y-104449465D01*
X130761995Y-104678273D01*
X130656686Y-104932510D01*
X130603000Y-105202408D01*
X130603000Y-105477592D01*
X130656686Y-105747490D01*
X130761995Y-106001727D01*
X130914880Y-106230535D01*
X131109465Y-106425120D01*
X131338273Y-106578005D01*
X131409943Y-106607692D01*
X131396977Y-106612364D01*
X131281020Y-106674344D01*
X131214040Y-106914435D01*
X132000000Y-107700395D01*
X132785960Y-106914435D01*
X132718980Y-106674344D01*
X132583240Y-106610515D01*
X132661727Y-106578005D01*
X132890535Y-106425120D01*
X133085120Y-106230535D01*
X133238005Y-106001727D01*
X133343314Y-105747490D01*
X133397000Y-105477592D01*
X133397000Y-105202408D01*
X133343314Y-104932510D01*
X133238005Y-104678273D01*
X133085120Y-104449465D01*
X132890535Y-104254880D01*
X132661727Y-104101995D01*
X132590299Y-104072408D01*
X134103000Y-104072408D01*
X134103000Y-104347592D01*
X134156686Y-104617490D01*
X134261995Y-104871727D01*
X134414880Y-105100535D01*
X134609465Y-105295120D01*
X134838273Y-105448005D01*
X134915515Y-105480000D01*
X134838273Y-105511995D01*
X134609465Y-105664880D01*
X134414880Y-105859465D01*
X134261995Y-106088273D01*
X134156686Y-106342510D01*
X134103000Y-106612408D01*
X134103000Y-106887592D01*
X134156686Y-107157490D01*
X134261995Y-107411727D01*
X134414880Y-107640535D01*
X134609465Y-107835120D01*
X134838273Y-107988005D01*
X135092510Y-108093314D01*
X135362408Y-108147000D01*
X135637592Y-108147000D01*
X135907490Y-108093314D01*
X136161727Y-107988005D01*
X136390535Y-107835120D01*
X136585120Y-107640535D01*
X136738005Y-107411727D01*
X136843314Y-107157490D01*
X136897000Y-106887592D01*
X136897000Y-106612408D01*
X136843314Y-106342510D01*
X136738005Y-106088273D01*
X136585120Y-105859465D01*
X136390535Y-105664880D01*
X136161727Y-105511995D01*
X136084485Y-105480000D01*
X136161727Y-105448005D01*
X136390535Y-105295120D01*
X136585120Y-105100535D01*
X136738005Y-104871727D01*
X136843314Y-104617490D01*
X136897000Y-104347592D01*
X136897000Y-104072408D01*
X136843314Y-103802510D01*
X136738005Y-103548273D01*
X136585120Y-103319465D01*
X136390535Y-103124880D01*
X136161727Y-102971995D01*
X135907490Y-102866686D01*
X135637592Y-102813000D01*
X135362408Y-102813000D01*
X135092510Y-102866686D01*
X134838273Y-102971995D01*
X134609465Y-103124880D01*
X134414880Y-103319465D01*
X134261995Y-103548273D01*
X134156686Y-103802510D01*
X134103000Y-104072408D01*
X132590299Y-104072408D01*
X132584485Y-104070000D01*
X132661727Y-104038005D01*
X132890535Y-103885120D01*
X133085120Y-103690535D01*
X133238005Y-103461727D01*
X133343314Y-103207490D01*
X133397000Y-102937592D01*
X133397000Y-102662408D01*
X133343314Y-102392510D01*
X133238005Y-102138273D01*
X133085120Y-101909465D01*
X132890535Y-101714880D01*
X132661727Y-101561995D01*
X132584485Y-101530000D01*
X132661727Y-101498005D01*
X132890535Y-101345120D01*
X133085120Y-101150535D01*
X133238005Y-100921727D01*
X133343314Y-100667490D01*
X133397000Y-100397592D01*
X133397000Y-100122408D01*
X133343314Y-99852510D01*
X133238005Y-99598273D01*
X133085120Y-99369465D01*
X132890535Y-99174880D01*
X132661727Y-99021995D01*
X132584485Y-98990000D01*
X132661727Y-98958005D01*
X132890535Y-98805120D01*
X133085120Y-98610535D01*
X133238005Y-98381727D01*
X133343314Y-98127490D01*
X133397000Y-97857592D01*
X133397000Y-97582408D01*
X133343314Y-97312510D01*
X133238005Y-97058273D01*
X133085120Y-96829465D01*
X132890535Y-96634880D01*
X132661727Y-96481995D01*
X132584485Y-96450000D01*
X132661727Y-96418005D01*
X132890535Y-96265120D01*
X133085120Y-96070535D01*
X133238005Y-95841727D01*
X133343314Y-95587490D01*
X133397000Y-95317592D01*
X133397000Y-95042408D01*
X133343314Y-94772510D01*
X133238005Y-94518273D01*
X133085120Y-94289465D01*
X132890535Y-94094880D01*
X132661727Y-93941995D01*
X132584485Y-93910000D01*
X132661727Y-93878005D01*
X132890535Y-93725120D01*
X133085120Y-93530535D01*
X133197459Y-93362408D01*
X134103000Y-93362408D01*
X134103000Y-93637592D01*
X134156686Y-93907490D01*
X134261995Y-94161727D01*
X134414880Y-94390535D01*
X134609465Y-94585120D01*
X134838273Y-94738005D01*
X134915515Y-94770000D01*
X134838273Y-94801995D01*
X134609465Y-94954880D01*
X134414880Y-95149465D01*
X134261995Y-95378273D01*
X134156686Y-95632510D01*
X134103000Y-95902408D01*
X134103000Y-96177592D01*
X134156686Y-96447490D01*
X134261995Y-96701727D01*
X134414880Y-96930535D01*
X134609465Y-97125120D01*
X134838273Y-97278005D01*
X135092510Y-97383314D01*
X135362408Y-97437000D01*
X135637592Y-97437000D01*
X135907490Y-97383314D01*
X136161727Y-97278005D01*
X136390535Y-97125120D01*
X136585120Y-96930535D01*
X136738005Y-96701727D01*
X136843314Y-96447490D01*
X136897000Y-96177592D01*
X136897000Y-95902408D01*
X136843314Y-95632510D01*
X136738005Y-95378273D01*
X136585120Y-95149465D01*
X136390535Y-94954880D01*
X136161727Y-94801995D01*
X136084485Y-94770000D01*
X136161727Y-94738005D01*
X136390535Y-94585120D01*
X136585120Y-94390535D01*
X136738005Y-94161727D01*
X136843314Y-93907490D01*
X136897000Y-93637592D01*
X136897000Y-93362408D01*
X136843314Y-93092510D01*
X136738005Y-92838273D01*
X136585120Y-92609465D01*
X136390535Y-92414880D01*
X136161727Y-92261995D01*
X135907490Y-92156686D01*
X135637592Y-92103000D01*
X135362408Y-92103000D01*
X135092510Y-92156686D01*
X134838273Y-92261995D01*
X134609465Y-92414880D01*
X134414880Y-92609465D01*
X134261995Y-92838273D01*
X134156686Y-93092510D01*
X134103000Y-93362408D01*
X133197459Y-93362408D01*
X133238005Y-93301727D01*
X133343314Y-93047490D01*
X133397000Y-92777592D01*
X133397000Y-92502408D01*
X133343314Y-92232510D01*
X133238005Y-91978273D01*
X133085120Y-91749465D01*
X132890535Y-91554880D01*
X132661727Y-91401995D01*
X132584485Y-91370000D01*
X132661727Y-91338005D01*
X132890535Y-91185120D01*
X133085120Y-90990535D01*
X133238005Y-90761727D01*
X133343314Y-90507490D01*
X133397000Y-90237592D01*
X133397000Y-89962408D01*
X133343314Y-89692510D01*
X133238005Y-89438273D01*
X133085120Y-89209465D01*
X132890535Y-89014880D01*
X132661727Y-88861995D01*
X132584485Y-88830000D01*
X132661727Y-88798005D01*
X132890535Y-88645120D01*
X133085120Y-88450535D01*
X133238005Y-88221727D01*
X133343314Y-87967490D01*
X133397000Y-87697592D01*
X133397000Y-87422408D01*
X146603000Y-87422408D01*
X146603000Y-87697592D01*
X146656686Y-87967490D01*
X146761995Y-88221727D01*
X146914880Y-88450535D01*
X147109465Y-88645120D01*
X147338273Y-88798005D01*
X147415515Y-88830000D01*
X147338273Y-88861995D01*
X147109465Y-89014880D01*
X146914880Y-89209465D01*
X146761995Y-89438273D01*
X146656686Y-89692510D01*
X146603000Y-89962408D01*
X146603000Y-90237592D01*
X146656686Y-90507490D01*
X146761995Y-90761727D01*
X146914880Y-90990535D01*
X147109465Y-91185120D01*
X147338273Y-91338005D01*
X147415515Y-91370000D01*
X147338273Y-91401995D01*
X147109465Y-91554880D01*
X146914880Y-91749465D01*
X146761995Y-91978273D01*
X146656686Y-92232510D01*
X146603000Y-92502408D01*
X146603000Y-92777592D01*
X146656686Y-93047490D01*
X146761995Y-93301727D01*
X146914880Y-93530535D01*
X147109465Y-93725120D01*
X147338273Y-93878005D01*
X147415515Y-93910000D01*
X147338273Y-93941995D01*
X147109465Y-94094880D01*
X146914880Y-94289465D01*
X146761995Y-94518273D01*
X146656686Y-94772510D01*
X146603000Y-95042408D01*
X146603000Y-95317592D01*
X146656686Y-95587490D01*
X146761995Y-95841727D01*
X146914880Y-96070535D01*
X147109465Y-96265120D01*
X147338273Y-96418005D01*
X147415515Y-96450000D01*
X147338273Y-96481995D01*
X147109465Y-96634880D01*
X146914880Y-96829465D01*
X146761995Y-97058273D01*
X146656686Y-97312510D01*
X146603000Y-97582408D01*
X146603000Y-97857592D01*
X146656686Y-98127490D01*
X146761995Y-98381727D01*
X146914880Y-98610535D01*
X147109465Y-98805120D01*
X147338273Y-98958005D01*
X147415515Y-98990000D01*
X147338273Y-99021995D01*
X147109465Y-99174880D01*
X146914880Y-99369465D01*
X146761995Y-99598273D01*
X146656686Y-99852510D01*
X146603000Y-100122408D01*
X146603000Y-100397592D01*
X146656686Y-100667490D01*
X146761995Y-100921727D01*
X146914880Y-101150535D01*
X147109465Y-101345120D01*
X147338273Y-101498005D01*
X147415515Y-101530000D01*
X147338273Y-101561995D01*
X147109465Y-101714880D01*
X146914880Y-101909465D01*
X146761995Y-102138273D01*
X146656686Y-102392510D01*
X146603000Y-102662408D01*
X146603000Y-102937592D01*
X146656686Y-103207490D01*
X146761995Y-103461727D01*
X146914880Y-103690535D01*
X147109465Y-103885120D01*
X147338273Y-104038005D01*
X147415515Y-104070000D01*
X147338273Y-104101995D01*
X147109465Y-104254880D01*
X146914880Y-104449465D01*
X146761995Y-104678273D01*
X146656686Y-104932510D01*
X146603000Y-105202408D01*
X146603000Y-105477592D01*
X146656686Y-105747490D01*
X146761995Y-106001727D01*
X146914880Y-106230535D01*
X147109465Y-106425120D01*
X147338273Y-106578005D01*
X147415515Y-106610000D01*
X147338273Y-106641995D01*
X147109465Y-106794880D01*
X146914880Y-106989465D01*
X146761995Y-107218273D01*
X146656686Y-107472510D01*
X146603000Y-107742408D01*
X146603000Y-108017592D01*
X146656686Y-108287490D01*
X146761995Y-108541727D01*
X146914880Y-108770535D01*
X147109465Y-108965120D01*
X147338273Y-109118005D01*
X147415515Y-109150000D01*
X147338273Y-109181995D01*
X147109465Y-109334880D01*
X146914880Y-109529465D01*
X146761995Y-109758273D01*
X146656686Y-110012510D01*
X146603000Y-110282408D01*
X146603000Y-110557592D01*
X146656686Y-110827490D01*
X146761995Y-111081727D01*
X146914880Y-111310535D01*
X147109465Y-111505120D01*
X147338273Y-111658005D01*
X147415515Y-111690000D01*
X147338273Y-111721995D01*
X147109465Y-111874880D01*
X146914880Y-112069465D01*
X146761995Y-112298273D01*
X146656686Y-112552510D01*
X146603000Y-112822408D01*
X146603000Y-113097592D01*
X146656686Y-113367490D01*
X146761995Y-113621727D01*
X146914880Y-113850535D01*
X147109465Y-114045120D01*
X147338273Y-114198005D01*
X147415515Y-114230000D01*
X147338273Y-114261995D01*
X147109465Y-114414880D01*
X146914880Y-114609465D01*
X146761995Y-114838273D01*
X146656686Y-115092510D01*
X146603000Y-115362408D01*
X146603000Y-115637592D01*
X146656686Y-115907490D01*
X146761995Y-116161727D01*
X146914880Y-116390535D01*
X147109465Y-116585120D01*
X147338273Y-116738005D01*
X147592510Y-116843314D01*
X147862408Y-116897000D01*
X148137592Y-116897000D01*
X148407490Y-116843314D01*
X148661727Y-116738005D01*
X148890535Y-116585120D01*
X149085120Y-116390535D01*
X149238005Y-116161727D01*
X149343314Y-115907490D01*
X149397000Y-115637592D01*
X149397000Y-115362408D01*
X149343314Y-115092510D01*
X149238005Y-114838273D01*
X149085120Y-114609465D01*
X148890535Y-114414880D01*
X148661727Y-114261995D01*
X148584485Y-114230000D01*
X148661727Y-114198005D01*
X148890535Y-114045120D01*
X149085120Y-113850535D01*
X149238005Y-113621727D01*
X149343314Y-113367490D01*
X149397000Y-113097592D01*
X149397000Y-112822408D01*
X149343314Y-112552510D01*
X149238005Y-112298273D01*
X149085120Y-112069465D01*
X148890535Y-111874880D01*
X148661727Y-111721995D01*
X148584485Y-111690000D01*
X148661727Y-111658005D01*
X148890535Y-111505120D01*
X149085120Y-111310535D01*
X149238005Y-111081727D01*
X149343314Y-110827490D01*
X149397000Y-110557592D01*
X149397000Y-110282408D01*
X149343314Y-110012510D01*
X149238005Y-109758273D01*
X149085120Y-109529465D01*
X148890535Y-109334880D01*
X148661727Y-109181995D01*
X148584485Y-109150000D01*
X148661727Y-109118005D01*
X148890535Y-108965120D01*
X149085120Y-108770535D01*
X149238005Y-108541727D01*
X149343314Y-108287490D01*
X149397000Y-108017592D01*
X149397000Y-107742408D01*
X149343314Y-107472510D01*
X149238005Y-107218273D01*
X149085120Y-106989465D01*
X148890535Y-106794880D01*
X148661727Y-106641995D01*
X148584485Y-106610000D01*
X148661727Y-106578005D01*
X148890535Y-106425120D01*
X149085120Y-106230535D01*
X149238005Y-106001727D01*
X149343314Y-105747490D01*
X149397000Y-105477592D01*
X149397000Y-105202408D01*
X149343314Y-104932510D01*
X149238005Y-104678273D01*
X149085120Y-104449465D01*
X148890535Y-104254880D01*
X148661727Y-104101995D01*
X148584485Y-104070000D01*
X148661727Y-104038005D01*
X148890535Y-103885120D01*
X149085120Y-103690535D01*
X149238005Y-103461727D01*
X149343314Y-103207490D01*
X149397000Y-102937592D01*
X149397000Y-102662408D01*
X149343314Y-102392510D01*
X149238005Y-102138273D01*
X149085120Y-101909465D01*
X148890535Y-101714880D01*
X148661727Y-101561995D01*
X148584485Y-101530000D01*
X148661727Y-101498005D01*
X148890535Y-101345120D01*
X149085120Y-101150535D01*
X149238005Y-100921727D01*
X149343314Y-100667490D01*
X149397000Y-100397592D01*
X149397000Y-100122408D01*
X149343314Y-99852510D01*
X149238005Y-99598273D01*
X149085120Y-99369465D01*
X148890535Y-99174880D01*
X148661727Y-99021995D01*
X148584485Y-98990000D01*
X148661727Y-98958005D01*
X148890535Y-98805120D01*
X149085120Y-98610535D01*
X149238005Y-98381727D01*
X149343314Y-98127490D01*
X149397000Y-97857592D01*
X149397000Y-97582408D01*
X149343314Y-97312510D01*
X149238005Y-97058273D01*
X149085120Y-96829465D01*
X148890535Y-96634880D01*
X148661727Y-96481995D01*
X148584485Y-96450000D01*
X148661727Y-96418005D01*
X148890535Y-96265120D01*
X149085120Y-96070535D01*
X149238005Y-95841727D01*
X149343314Y-95587490D01*
X149397000Y-95317592D01*
X149397000Y-95042408D01*
X149343314Y-94772510D01*
X149238005Y-94518273D01*
X149085120Y-94289465D01*
X148890535Y-94094880D01*
X148661727Y-93941995D01*
X148584485Y-93910000D01*
X148661727Y-93878005D01*
X148890535Y-93725120D01*
X149085120Y-93530535D01*
X149238005Y-93301727D01*
X149343314Y-93047490D01*
X149397000Y-92777592D01*
X149397000Y-92502408D01*
X149343314Y-92232510D01*
X149238005Y-91978273D01*
X149085120Y-91749465D01*
X148890535Y-91554880D01*
X148661727Y-91401995D01*
X148584485Y-91370000D01*
X148661727Y-91338005D01*
X148890535Y-91185120D01*
X149085120Y-90990535D01*
X149238005Y-90761727D01*
X149343314Y-90507490D01*
X149397000Y-90237592D01*
X149397000Y-89962408D01*
X149343314Y-89692510D01*
X149238005Y-89438273D01*
X149085120Y-89209465D01*
X148890535Y-89014880D01*
X148661727Y-88861995D01*
X148584485Y-88830000D01*
X148661727Y-88798005D01*
X148890535Y-88645120D01*
X149085120Y-88450535D01*
X149238005Y-88221727D01*
X149343314Y-87967490D01*
X149397000Y-87697592D01*
X149397000Y-87422408D01*
X149343314Y-87152510D01*
X149238005Y-86898273D01*
X149085120Y-86669465D01*
X148890535Y-86474880D01*
X148661727Y-86321995D01*
X148407490Y-86216686D01*
X148137592Y-86163000D01*
X147862408Y-86163000D01*
X147592510Y-86216686D01*
X147338273Y-86321995D01*
X147109465Y-86474880D01*
X146914880Y-86669465D01*
X146761995Y-86898273D01*
X146656686Y-87152510D01*
X146603000Y-87422408D01*
X133397000Y-87422408D01*
X133343314Y-87152510D01*
X133238005Y-86898273D01*
X133085120Y-86669465D01*
X132890535Y-86474880D01*
X132661727Y-86321995D01*
X132407490Y-86216686D01*
X132137592Y-86163000D01*
X131862408Y-86163000D01*
X131592510Y-86216686D01*
X131338273Y-86321995D01*
X131109465Y-86474880D01*
X130914880Y-86669465D01*
X130761995Y-86898273D01*
X130656686Y-87152510D01*
X130603000Y-87422408D01*
X117127413Y-87422408D01*
X117188005Y-87331727D01*
X117293314Y-87077490D01*
X117347000Y-86807592D01*
X117347000Y-86532408D01*
X117293314Y-86262510D01*
X117188005Y-86008273D01*
X117035120Y-85779465D01*
X116840535Y-85584880D01*
X116611727Y-85431995D01*
X116534485Y-85400000D01*
X116611727Y-85368005D01*
X116840535Y-85215120D01*
X117035120Y-85020535D01*
X117188005Y-84791727D01*
X117293314Y-84537490D01*
X117347000Y-84267592D01*
X117347000Y-83992408D01*
X117293314Y-83722510D01*
X117188005Y-83468273D01*
X117035120Y-83239465D01*
X116840535Y-83044880D01*
X116611727Y-82891995D01*
X116357490Y-82786686D01*
X116087592Y-82733000D01*
X115812408Y-82733000D01*
X115542510Y-82786686D01*
X115288273Y-82891995D01*
X115059465Y-83044880D01*
X114864880Y-83239465D01*
X114711995Y-83468273D01*
X114606686Y-83722510D01*
X114553000Y-83992408D01*
X50127000Y-83992408D01*
X50127000Y-78012408D01*
X97653000Y-78012408D01*
X97653000Y-78287592D01*
X97706686Y-78557490D01*
X97811995Y-78811727D01*
X97964880Y-79040535D01*
X98159465Y-79235120D01*
X98388273Y-79388005D01*
X98642510Y-79493314D01*
X98912408Y-79547000D01*
X99187592Y-79547000D01*
X99457490Y-79493314D01*
X99711727Y-79388005D01*
X99940535Y-79235120D01*
X100135120Y-79040535D01*
X100288005Y-78811727D01*
X100393314Y-78557490D01*
X100447000Y-78287592D01*
X100447000Y-78012408D01*
X102103000Y-78012408D01*
X102103000Y-78287592D01*
X102156686Y-78557490D01*
X102261995Y-78811727D01*
X102414880Y-79040535D01*
X102609465Y-79235120D01*
X102838273Y-79388005D01*
X103092510Y-79493314D01*
X103362408Y-79547000D01*
X103637592Y-79547000D01*
X103907490Y-79493314D01*
X104161727Y-79388005D01*
X104390535Y-79235120D01*
X104585120Y-79040535D01*
X104738005Y-78811727D01*
X104843314Y-78557490D01*
X104897000Y-78287592D01*
X104897000Y-78012408D01*
X104843314Y-77742510D01*
X104738005Y-77488273D01*
X104585120Y-77259465D01*
X104390535Y-77064880D01*
X104161727Y-76911995D01*
X103907490Y-76806686D01*
X103637592Y-76753000D01*
X103362408Y-76753000D01*
X103092510Y-76806686D01*
X102838273Y-76911995D01*
X102609465Y-77064880D01*
X102414880Y-77259465D01*
X102261995Y-77488273D01*
X102156686Y-77742510D01*
X102103000Y-78012408D01*
X100447000Y-78012408D01*
X100393314Y-77742510D01*
X100288005Y-77488273D01*
X100135120Y-77259465D01*
X99940535Y-77064880D01*
X99711727Y-76911995D01*
X99457490Y-76806686D01*
X99187592Y-76753000D01*
X98912408Y-76753000D01*
X98642510Y-76806686D01*
X98388273Y-76911995D01*
X98159465Y-77064880D01*
X97964880Y-77259465D01*
X97811995Y-77488273D01*
X97706686Y-77742510D01*
X97653000Y-78012408D01*
X50127000Y-78012408D01*
X50127000Y-75858665D01*
X142565000Y-75858665D01*
X142565000Y-76141335D01*
X142620147Y-76418574D01*
X142728320Y-76679727D01*
X142885363Y-76914759D01*
X143085241Y-77114637D01*
X143320273Y-77271680D01*
X143581426Y-77379853D01*
X143858665Y-77435000D01*
X144141335Y-77435000D01*
X144418574Y-77379853D01*
X144679727Y-77271680D01*
X144914759Y-77114637D01*
X145114637Y-76914759D01*
X145271680Y-76679727D01*
X145379853Y-76418574D01*
X145435000Y-76141335D01*
X145435000Y-75858665D01*
X145379853Y-75581426D01*
X145271680Y-75320273D01*
X145114637Y-75085241D01*
X144914759Y-74885363D01*
X144679727Y-74728320D01*
X144418574Y-74620147D01*
X144141335Y-74565000D01*
X143858665Y-74565000D01*
X143581426Y-74620147D01*
X143320273Y-74728320D01*
X143085241Y-74885363D01*
X142885363Y-75085241D01*
X142728320Y-75320273D01*
X142620147Y-75581426D01*
X142565000Y-75858665D01*
X50127000Y-75858665D01*
X50127000Y-71184748D01*
X70420000Y-71184748D01*
X70420000Y-71935252D01*
X70566416Y-72671336D01*
X70853622Y-73364712D01*
X71270580Y-73988733D01*
X71801267Y-74519420D01*
X72425288Y-74936378D01*
X73118664Y-75223584D01*
X73854748Y-75370000D01*
X74605252Y-75370000D01*
X75341336Y-75223584D01*
X76034712Y-74936378D01*
X76658733Y-74519420D01*
X77189420Y-73988733D01*
X77606378Y-73364712D01*
X77893584Y-72671336D01*
X78040000Y-71935252D01*
X78040000Y-71184748D01*
X87946000Y-71184748D01*
X87946000Y-71935252D01*
X88092416Y-72671336D01*
X88379622Y-73364712D01*
X88796580Y-73988733D01*
X89327267Y-74519420D01*
X89951288Y-74936378D01*
X90644664Y-75223584D01*
X91380748Y-75370000D01*
X92131252Y-75370000D01*
X92867336Y-75223584D01*
X93560712Y-74936378D01*
X94184733Y-74519420D01*
X94715420Y-73988733D01*
X95132378Y-73364712D01*
X95419584Y-72671336D01*
X95566000Y-71935252D01*
X95566000Y-71862408D01*
X121103000Y-71862408D01*
X121103000Y-72137592D01*
X121156686Y-72407490D01*
X121261995Y-72661727D01*
X121414880Y-72890535D01*
X121609465Y-73085120D01*
X121838273Y-73238005D01*
X122092510Y-73343314D01*
X122362408Y-73397000D01*
X122637592Y-73397000D01*
X122907490Y-73343314D01*
X123161727Y-73238005D01*
X123390535Y-73085120D01*
X123585120Y-72890535D01*
X123738005Y-72661727D01*
X123750000Y-72632769D01*
X123761995Y-72661727D01*
X123914880Y-72890535D01*
X124109465Y-73085120D01*
X124338273Y-73238005D01*
X124592510Y-73343314D01*
X124862408Y-73397000D01*
X125137592Y-73397000D01*
X125407490Y-73343314D01*
X125661727Y-73238005D01*
X125890535Y-73085120D01*
X126010090Y-72965565D01*
X126714040Y-72965565D01*
X126781020Y-73205656D01*
X127030048Y-73322756D01*
X127297135Y-73389023D01*
X127572017Y-73401910D01*
X127844133Y-73360922D01*
X128103023Y-73267636D01*
X128218980Y-73205656D01*
X128285960Y-72965565D01*
X127500000Y-72179605D01*
X126714040Y-72965565D01*
X126010090Y-72965565D01*
X126085120Y-72890535D01*
X126238005Y-72661727D01*
X126249242Y-72634599D01*
X126294344Y-72718980D01*
X126534435Y-72785960D01*
X127320395Y-72000000D01*
X127679605Y-72000000D01*
X128465565Y-72785960D01*
X128705656Y-72718980D01*
X128748218Y-72628467D01*
X128761995Y-72661727D01*
X128914880Y-72890535D01*
X129109465Y-73085120D01*
X129338273Y-73238005D01*
X129592510Y-73343314D01*
X129862408Y-73397000D01*
X130137592Y-73397000D01*
X130407490Y-73343314D01*
X130661727Y-73238005D01*
X130890535Y-73085120D01*
X131085120Y-72890535D01*
X131238005Y-72661727D01*
X131250000Y-72632769D01*
X131261995Y-72661727D01*
X131414880Y-72890535D01*
X131609465Y-73085120D01*
X131838273Y-73238005D01*
X132092510Y-73343314D01*
X132362408Y-73397000D01*
X132637592Y-73397000D01*
X132907490Y-73343314D01*
X133161727Y-73238005D01*
X133390535Y-73085120D01*
X133585120Y-72890535D01*
X133738005Y-72661727D01*
X133750000Y-72632769D01*
X133761995Y-72661727D01*
X133914880Y-72890535D01*
X134109465Y-73085120D01*
X134338273Y-73238005D01*
X134592510Y-73343314D01*
X134862408Y-73397000D01*
X135137592Y-73397000D01*
X135407490Y-73343314D01*
X135661727Y-73238005D01*
X135890535Y-73085120D01*
X136085120Y-72890535D01*
X136238005Y-72661727D01*
X136250000Y-72632769D01*
X136261995Y-72661727D01*
X136414880Y-72890535D01*
X136609465Y-73085120D01*
X136838273Y-73238005D01*
X137092510Y-73343314D01*
X137362408Y-73397000D01*
X137637592Y-73397000D01*
X137907490Y-73343314D01*
X138161727Y-73238005D01*
X138390535Y-73085120D01*
X138585120Y-72890535D01*
X138738005Y-72661727D01*
X138843314Y-72407490D01*
X138897000Y-72137592D01*
X138897000Y-71992702D01*
X143186903Y-71992702D01*
X143258486Y-72236671D01*
X143513996Y-72357571D01*
X143788184Y-72426300D01*
X144070512Y-72440217D01*
X144350130Y-72398787D01*
X144616292Y-72303603D01*
X144741514Y-72236671D01*
X144813097Y-71992702D01*
X144000000Y-71179605D01*
X143186903Y-71992702D01*
X138897000Y-71992702D01*
X138897000Y-71862408D01*
X138843314Y-71592510D01*
X138738005Y-71338273D01*
X138585120Y-71109465D01*
X138546167Y-71070512D01*
X142559783Y-71070512D01*
X142601213Y-71350130D01*
X142696397Y-71616292D01*
X142763329Y-71741514D01*
X143007298Y-71813097D01*
X143820395Y-71000000D01*
X144179605Y-71000000D01*
X144992702Y-71813097D01*
X145236671Y-71741514D01*
X145357571Y-71486004D01*
X145426300Y-71211816D01*
X145440217Y-70929488D01*
X145398787Y-70649870D01*
X145303603Y-70383708D01*
X145236671Y-70258486D01*
X144992702Y-70186903D01*
X144179605Y-71000000D01*
X143820395Y-71000000D01*
X143007298Y-70186903D01*
X142763329Y-70258486D01*
X142642429Y-70513996D01*
X142573700Y-70788184D01*
X142559783Y-71070512D01*
X138546167Y-71070512D01*
X138390535Y-70914880D01*
X138161727Y-70761995D01*
X137907490Y-70656686D01*
X137637592Y-70603000D01*
X137362408Y-70603000D01*
X137092510Y-70656686D01*
X136838273Y-70761995D01*
X136609465Y-70914880D01*
X136414880Y-71109465D01*
X136261995Y-71338273D01*
X136250000Y-71367231D01*
X136238005Y-71338273D01*
X136085120Y-71109465D01*
X135890535Y-70914880D01*
X135661727Y-70761995D01*
X135407490Y-70656686D01*
X135137592Y-70603000D01*
X134862408Y-70603000D01*
X134592510Y-70656686D01*
X134338273Y-70761995D01*
X134109465Y-70914880D01*
X133914880Y-71109465D01*
X133761995Y-71338273D01*
X133750000Y-71367231D01*
X133738005Y-71338273D01*
X133585120Y-71109465D01*
X133390535Y-70914880D01*
X133161727Y-70761995D01*
X132907490Y-70656686D01*
X132637592Y-70603000D01*
X132362408Y-70603000D01*
X132092510Y-70656686D01*
X131838273Y-70761995D01*
X131609465Y-70914880D01*
X131414880Y-71109465D01*
X131261995Y-71338273D01*
X131250000Y-71367231D01*
X131238005Y-71338273D01*
X131085120Y-71109465D01*
X130890535Y-70914880D01*
X130661727Y-70761995D01*
X130407490Y-70656686D01*
X130137592Y-70603000D01*
X129862408Y-70603000D01*
X129592510Y-70656686D01*
X129338273Y-70761995D01*
X129109465Y-70914880D01*
X128914880Y-71109465D01*
X128761995Y-71338273D01*
X128750758Y-71365401D01*
X128705656Y-71281020D01*
X128465565Y-71214040D01*
X127679605Y-72000000D01*
X127320395Y-72000000D01*
X126534435Y-71214040D01*
X126294344Y-71281020D01*
X126251782Y-71371533D01*
X126238005Y-71338273D01*
X126085120Y-71109465D01*
X126010090Y-71034435D01*
X126714040Y-71034435D01*
X127500000Y-71820395D01*
X128285960Y-71034435D01*
X128218980Y-70794344D01*
X127969952Y-70677244D01*
X127702865Y-70610977D01*
X127427983Y-70598090D01*
X127155867Y-70639078D01*
X126896977Y-70732364D01*
X126781020Y-70794344D01*
X126714040Y-71034435D01*
X126010090Y-71034435D01*
X125890535Y-70914880D01*
X125661727Y-70761995D01*
X125407490Y-70656686D01*
X125137592Y-70603000D01*
X124862408Y-70603000D01*
X124592510Y-70656686D01*
X124338273Y-70761995D01*
X124109465Y-70914880D01*
X123914880Y-71109465D01*
X123761995Y-71338273D01*
X123750000Y-71367231D01*
X123738005Y-71338273D01*
X123585120Y-71109465D01*
X123390535Y-70914880D01*
X123161727Y-70761995D01*
X122907490Y-70656686D01*
X122637592Y-70603000D01*
X122362408Y-70603000D01*
X122092510Y-70656686D01*
X121838273Y-70761995D01*
X121609465Y-70914880D01*
X121414880Y-71109465D01*
X121261995Y-71338273D01*
X121156686Y-71592510D01*
X121103000Y-71862408D01*
X95566000Y-71862408D01*
X95566000Y-71184748D01*
X95419584Y-70448664D01*
X95236765Y-70007298D01*
X143186903Y-70007298D01*
X144000000Y-70820395D01*
X144813097Y-70007298D01*
X144741514Y-69763329D01*
X144486004Y-69642429D01*
X144211816Y-69573700D01*
X143929488Y-69559783D01*
X143649870Y-69601213D01*
X143383708Y-69696397D01*
X143258486Y-69763329D01*
X143186903Y-70007298D01*
X95236765Y-70007298D01*
X95132378Y-69755288D01*
X94715420Y-69131267D01*
X94184733Y-68600580D01*
X93560712Y-68183622D01*
X92867336Y-67896416D01*
X92131252Y-67750000D01*
X91380748Y-67750000D01*
X90644664Y-67896416D01*
X89951288Y-68183622D01*
X89327267Y-68600580D01*
X88796580Y-69131267D01*
X88379622Y-69755288D01*
X88092416Y-70448664D01*
X87946000Y-71184748D01*
X78040000Y-71184748D01*
X77893584Y-70448664D01*
X77606378Y-69755288D01*
X77189420Y-69131267D01*
X76658733Y-68600580D01*
X76034712Y-68183622D01*
X75341336Y-67896416D01*
X74605252Y-67750000D01*
X73854748Y-67750000D01*
X73118664Y-67896416D01*
X72425288Y-68183622D01*
X71801267Y-68600580D01*
X71270580Y-69131267D01*
X70853622Y-69755288D01*
X70566416Y-70448664D01*
X70420000Y-71184748D01*
X50127000Y-71184748D01*
X50127000Y-62858371D01*
X62723800Y-62858371D01*
X62723800Y-63243629D01*
X62798961Y-63621486D01*
X62946393Y-63977419D01*
X63160431Y-64297750D01*
X63432850Y-64570169D01*
X63753181Y-64784207D01*
X64109114Y-64931639D01*
X64486971Y-65006800D01*
X64872229Y-65006800D01*
X65250086Y-64931639D01*
X65606019Y-64784207D01*
X65926350Y-64570169D01*
X66198769Y-64297750D01*
X66412807Y-63977419D01*
X66560239Y-63621486D01*
X66635400Y-63243629D01*
X66635400Y-62858371D01*
X81850000Y-62858371D01*
X81850000Y-63243629D01*
X81925161Y-63621486D01*
X82072593Y-63977419D01*
X82286631Y-64297750D01*
X82559050Y-64570169D01*
X82879381Y-64784207D01*
X83235314Y-64931639D01*
X83613171Y-65006800D01*
X83998429Y-65006800D01*
X84376286Y-64931639D01*
X84732219Y-64784207D01*
X85052550Y-64570169D01*
X85324969Y-64297750D01*
X85539007Y-63977419D01*
X85686439Y-63621486D01*
X85761600Y-63243629D01*
X85761600Y-62858371D01*
X85686439Y-62480514D01*
X85539007Y-62124581D01*
X85324969Y-61804250D01*
X85052550Y-61531831D01*
X84732219Y-61317793D01*
X84376286Y-61170361D01*
X83998429Y-61095200D01*
X83613171Y-61095200D01*
X83235314Y-61170361D01*
X82879381Y-61317793D01*
X82559050Y-61531831D01*
X82286631Y-61804250D01*
X82072593Y-62124581D01*
X81925161Y-62480514D01*
X81850000Y-62858371D01*
X66635400Y-62858371D01*
X66560239Y-62480514D01*
X66412807Y-62124581D01*
X66198769Y-61804250D01*
X65926350Y-61531831D01*
X65606019Y-61317793D01*
X65250086Y-61170361D01*
X64872229Y-61095200D01*
X64486971Y-61095200D01*
X64109114Y-61170361D01*
X63753181Y-61317793D01*
X63432850Y-61531831D01*
X63160431Y-61804250D01*
X62946393Y-62124581D01*
X62798961Y-62480514D01*
X62723800Y-62858371D01*
X50127000Y-62858371D01*
X50127000Y-58608665D01*
X102065000Y-58608665D01*
X102065000Y-58891335D01*
X102120147Y-59168574D01*
X102228320Y-59429727D01*
X102385363Y-59664759D01*
X102585241Y-59864637D01*
X102820273Y-60021680D01*
X103081426Y-60129853D01*
X103358665Y-60185000D01*
X103641335Y-60185000D01*
X103918574Y-60129853D01*
X104179727Y-60021680D01*
X104414759Y-59864637D01*
X104614637Y-59664759D01*
X104771680Y-59429727D01*
X104879853Y-59168574D01*
X104935000Y-58891335D01*
X104935000Y-58608665D01*
X104879853Y-58331426D01*
X104771680Y-58070273D01*
X104614637Y-57835241D01*
X104414759Y-57635363D01*
X104179727Y-57478320D01*
X103918574Y-57370147D01*
X103641335Y-57315000D01*
X103358665Y-57315000D01*
X103081426Y-57370147D01*
X102820273Y-57478320D01*
X102585241Y-57635363D01*
X102385363Y-57835241D01*
X102228320Y-58070273D01*
X102120147Y-58331426D01*
X102065000Y-58608665D01*
X50127000Y-58608665D01*
X50127000Y-54122285D01*
X50665000Y-54122285D01*
X50665000Y-54877715D01*
X50812377Y-55618628D01*
X51101467Y-56316554D01*
X51521161Y-56944670D01*
X52055330Y-57478839D01*
X52683446Y-57898533D01*
X53381372Y-58187623D01*
X54122285Y-58335000D01*
X54877715Y-58335000D01*
X55618628Y-58187623D01*
X56316554Y-57898533D01*
X56944670Y-57478839D01*
X57478839Y-56944670D01*
X57898533Y-56316554D01*
X58153917Y-55700000D01*
X95811928Y-55700000D01*
X95811928Y-57300000D01*
X95824188Y-57424482D01*
X95860498Y-57544180D01*
X95919463Y-57654494D01*
X95998815Y-57751185D01*
X96095506Y-57830537D01*
X96205820Y-57889502D01*
X96325518Y-57925812D01*
X96450000Y-57938072D01*
X98050000Y-57938072D01*
X98174482Y-57925812D01*
X98294180Y-57889502D01*
X98404494Y-57830537D01*
X98501185Y-57751185D01*
X98580537Y-57654494D01*
X98639502Y-57544180D01*
X98675812Y-57424482D01*
X98688072Y-57300000D01*
X98688072Y-55700000D01*
X98675812Y-55575518D01*
X98639502Y-55455820D01*
X98580537Y-55345506D01*
X98501185Y-55248815D01*
X98404494Y-55169463D01*
X98294180Y-55110498D01*
X98198057Y-55081339D01*
X98364637Y-54914759D01*
X98521680Y-54679727D01*
X98629853Y-54418574D01*
X98685000Y-54141335D01*
X98685000Y-53858665D01*
X98635272Y-53608665D01*
X102065000Y-53608665D01*
X102065000Y-53891335D01*
X102120147Y-54168574D01*
X102228320Y-54429727D01*
X102385363Y-54664759D01*
X102585241Y-54864637D01*
X102820273Y-55021680D01*
X103081426Y-55129853D01*
X103358665Y-55185000D01*
X103641335Y-55185000D01*
X103918574Y-55129853D01*
X104179727Y-55021680D01*
X104414759Y-54864637D01*
X104614637Y-54664759D01*
X104771680Y-54429727D01*
X104879853Y-54168574D01*
X104889060Y-54122285D01*
X141665000Y-54122285D01*
X141665000Y-54877715D01*
X141812377Y-55618628D01*
X142101467Y-56316554D01*
X142521161Y-56944670D01*
X143055330Y-57478839D01*
X143683446Y-57898533D01*
X144381372Y-58187623D01*
X145122285Y-58335000D01*
X145877715Y-58335000D01*
X146618628Y-58187623D01*
X147316554Y-57898533D01*
X147944670Y-57478839D01*
X148478839Y-56944670D01*
X148898533Y-56316554D01*
X149187623Y-55618628D01*
X149335000Y-54877715D01*
X149335000Y-54122285D01*
X149187623Y-53381372D01*
X148898533Y-52683446D01*
X148478839Y-52055330D01*
X147944670Y-51521161D01*
X147316554Y-51101467D01*
X146618628Y-50812377D01*
X145877715Y-50665000D01*
X145122285Y-50665000D01*
X144381372Y-50812377D01*
X143683446Y-51101467D01*
X143055330Y-51521161D01*
X142521161Y-52055330D01*
X142101467Y-52683446D01*
X141812377Y-53381372D01*
X141665000Y-54122285D01*
X104889060Y-54122285D01*
X104935000Y-53891335D01*
X104935000Y-53608665D01*
X104879853Y-53331426D01*
X104771680Y-53070273D01*
X104614637Y-52835241D01*
X104414759Y-52635363D01*
X104179727Y-52478320D01*
X103918574Y-52370147D01*
X103641335Y-52315000D01*
X103358665Y-52315000D01*
X103081426Y-52370147D01*
X102820273Y-52478320D01*
X102585241Y-52635363D01*
X102385363Y-52835241D01*
X102228320Y-53070273D01*
X102120147Y-53331426D01*
X102065000Y-53608665D01*
X98635272Y-53608665D01*
X98629853Y-53581426D01*
X98521680Y-53320273D01*
X98364637Y-53085241D01*
X98164759Y-52885363D01*
X97929727Y-52728320D01*
X97668574Y-52620147D01*
X97391335Y-52565000D01*
X97108665Y-52565000D01*
X96831426Y-52620147D01*
X96570273Y-52728320D01*
X96335241Y-52885363D01*
X96135363Y-53085241D01*
X95978320Y-53320273D01*
X95870147Y-53581426D01*
X95815000Y-53858665D01*
X95815000Y-54141335D01*
X95870147Y-54418574D01*
X95978320Y-54679727D01*
X96135363Y-54914759D01*
X96301943Y-55081339D01*
X96205820Y-55110498D01*
X96095506Y-55169463D01*
X95998815Y-55248815D01*
X95919463Y-55345506D01*
X95860498Y-55455820D01*
X95824188Y-55575518D01*
X95811928Y-55700000D01*
X58153917Y-55700000D01*
X58187623Y-55618628D01*
X58335000Y-54877715D01*
X58335000Y-54122285D01*
X58187623Y-53381372D01*
X57898533Y-52683446D01*
X57478839Y-52055330D01*
X56944670Y-51521161D01*
X56316554Y-51101467D01*
X55618628Y-50812377D01*
X54877715Y-50665000D01*
X54122285Y-50665000D01*
X53381372Y-50812377D01*
X52683446Y-51101467D01*
X52055330Y-51521161D01*
X51521161Y-52055330D01*
X51101467Y-52683446D01*
X50812377Y-53381372D01*
X50665000Y-54122285D01*
X50127000Y-54122285D01*
X50127000Y-50127000D01*
X149872364Y-50127000D01*
X149373634Y-149873000D01*
G37*
%TD.AperFunction*%
%TD*%
M02*
